Nehemiah-Regular.ufo
<glyph name="exclam" format="2">
  <advance width="433"/>
  <unicode hex="0021"/>
  <outline>
    <contour>
      <point x="245" y="607" type="curve" smooth="yes"/>
      <point x="208" y="178" type="line"/>
      <point x="160" y="178" type="line"/>
      <point x="124" y="607" type="line" smooth="yes"/>
      <point x="124" y="614"/>
      <point x="124" y="614"/>
      <point x="124" y="620" type="curve" smooth="yes"/>
      <point x="124" y="662.667"/>
      <point x="144" y="684"/>
      <point x="184" y="684" type="curve" smooth="yes"/>
      <point x="225.333" y="684"/>
      <point x="246" y="662.667"/>
      <point x="246" y="620" type="curve" smooth="yes"/>
      <point x="245.333" y="616"/>
      <point x="245" y="611.667"/>
    </contour>
    <contour>
      <point x="246" y="54" type="curve" smooth="yes"/>
      <point x="246" y="37.3333"/>
      <point x="239.833" y="22.8333"/>
      <point x="227.5" y="10.5" type="curve" smooth="yes"/>
      <point x="215.167" y="-1.83333"/>
      <point x="200.667" y="-8"/>
      <point x="184" y="-8" type="curve" smooth="yes"/>
      <point x="167.333" y="-8"/>
      <point x="153" y="-2"/>
      <point x="141" y="10" type="curve" smooth="yes"/>
      <point x="129" y="22"/>
      <point x="123" y="36.6667"/>
      <point x="123" y="54" type="curve" smooth="yes"/>
      <point x="123" y="70.6667"/>
      <point x="129" y="85"/>
      <point x="141" y="97" type="curve" smooth="yes"/>
      <point x="153" y="109"/>
      <point x="167.333" y="115"/>
      <point x="184" y="115" type="curve" smooth="yes"/>
      <point x="200.667" y="115"/>
      <point x="215.167" y="109"/>
      <point x="227.5" y="97" type="curve" smooth="yes"/>
      <point x="239.833" y="85"/>
      <point x="246" y="70.6667"/>
    </contour>
  </outline>
</glyph>
<glyph name="quotedbl" format="2">
  <advance width="333"/>
  <unicode hex="0022"/>
  <outline>
    <contour>
      <point x="290" y="665" type="curve"/>
      <point x="255" y="421" type="line"/>
      <point x="239" y="421" type="line"/>
      <point x="205" y="665" type="line"/>
      <point x="205" y="697.667"/>
      <point x="219" y="714"/>
      <point x="247" y="714" type="curve" smooth="yes"/>
      <point x="275.667" y="714"/>
      <point x="290" y="697.667"/>
    </contour>
    <contour>
      <point x="128" y="665" type="curve"/>
      <point x="94" y="421" type="line"/>
      <point x="78" y="421" type="line"/>
      <point x="43" y="665" type="line"/>
      <point x="43" y="697.667"/>
      <point x="57.3333" y="714"/>
      <point x="86" y="714" type="curve" smooth="yes"/>
      <point x="114" y="714"/>
      <point x="128" y="697.667"/>
    </contour>
  </outline>
</glyph>
<glyph name="numbersign" format="2">
  <advance width="743"/>
  <unicode hex="0023"/>
  <outline>
    <contour>
      <point x="682" y="421" type="line"/>
      <point x="525" y="421" type="line"/>
      <point x="477" y="278" type="line"/>
      <point x="638" y="278" type="line"/>
      <point x="638" y="228" type="line"/>
      <point x="460" y="228" type="line"/>
      <point x="375" y="-23" type="line"/>
      <point x="325" y="-7" type="line"/>
      <point x="404" y="228" type="line"/>
      <point x="259" y="228" type="line"/>
      <point x="174" y="-23" type="line"/>
      <point x="124" y="-6" type="line"/>
      <point x="204" y="228" type="line"/>
      <point x="62" y="228" type="line"/>
      <point x="62" y="278" type="line"/>
      <point x="220" y="278" type="line"/>
      <point x="269" y="421" type="line"/>
      <point x="108" y="421" type="line"/>
      <point x="108" y="472" type="line"/>
      <point x="286" y="472" type="line"/>
      <point x="366" y="708" type="line"/>
      <point x="417" y="692" type="line"/>
      <point x="341" y="472" type="line"/>
      <point x="487" y="472" type="line"/>
      <point x="566" y="708" type="line"/>
      <point x="618" y="692" type="line"/>
      <point x="542" y="472" type="line"/>
      <point x="682" y="472" type="line"/>
    </contour>
    <contour>
      <point x="469" y="421" type="line"/>
      <point x="324" y="421" type="line"/>
      <point x="276" y="278" type="line"/>
      <point x="421" y="278" type="line"/>
    </contour>
  </outline>
</glyph>
<glyph name="dollar" format="2">
  <advance width="562"/>
  <unicode hex="0024"/>
  <outline>
    <contour>
      <point x="507" y="190" type="curve" smooth="yes"/>
      <point x="507" y="134.667"/>
      <point x="482" y="88"/>
      <point x="432" y="50" type="curve" smooth="yes"/>
      <point x="391.333" y="19.3333"/>
      <point x="349.667" y="2.66667"/>
      <point x="307" y="0" type="curve"/>
      <point x="307" y="-103" type="line"/>
      <point x="261" y="-103" type="line"/>
      <point x="261" y="0" type="line"/>
      <point x="213" y="2.66667"/>
      <point x="181.667" y="4.66667"/>
      <point x="167" y="6" type="curve" smooth="yes"/>
      <point x="124.333" y="10.6667"/>
      <point x="88.3333" y="17.3333"/>
      <point x="59" y="26" type="curve"/>
      <point x="59" y="196" type="line"/>
      <point x="110" y="196" type="line"/>
      <point x="128" y="84" type="line"/>
      <point x="147.333" y="60.6667"/>
      <point x="191.667" y="49"/>
      <point x="261" y="49" type="curve"/>
      <point x="261" y="302" type="line"/>
      <point x="137" y="330.667"/>
      <point x="75" y="391.333"/>
      <point x="75" y="484" type="curve" smooth="yes"/>
      <point x="75" y="538.667"/>
      <point x="96.3333" y="583"/>
      <point x="139" y="617" type="curve" smooth="yes"/>
      <point x="172.333" y="643.667"/>
      <point x="213.333" y="660.667"/>
      <point x="262" y="668" type="curve"/>
      <point x="262" y="743" type="line"/>
      <point x="308" y="743" type="line"/>
      <point x="308" y="671" type="line"/>
      <point x="361.333" y="671"/>
      <point x="418" y="663.333"/>
      <point x="478" y="648" type="curve"/>
      <point x="478" y="490" type="line"/>
      <point x="427" y="490" type="line"/>
      <point x="411" y="596" type="line"/>
      <point x="395.667" y="613.333"/>
      <point x="361.333" y="622"/>
      <point x="308" y="622" type="curve"/>
      <point x="308" y="384" type="line"/>
      <point x="371.333" y="365.333"/>
      <point x="415.333" y="347"/>
      <point x="440" y="329" type="curve" smooth="yes"/>
      <point x="484.667" y="296.333"/>
      <point x="507" y="250"/>
    </contour>
    <contour>
      <point x="262" y="397" type="curve"/>
      <point x="262" y="618" type="line"/>
      <point x="199.333" y="604.667"/>
      <point x="168" y="566.667"/>
      <point x="168" y="504" type="curve" smooth="yes"/>
      <point x="168" y="456"/>
      <point x="199.333" y="420.333"/>
    </contour>
    <contour>
      <point x="415" y="171" type="curve" smooth="yes"/>
      <point x="415" y="227.667"/>
      <point x="379" y="267.333"/>
      <point x="307" y="290" type="curve"/>
      <point x="307" y="53" type="line"/>
      <point x="379" y="65.6667"/>
      <point x="415" y="105"/>
    </contour>
  </outline>
</glyph>
<glyph name="percent" format="2">
  <advance width="860"/>
  <unicode hex="0025"/>
  <outline>
    <contour>
      <point x="830" y="198" type="curve" smooth="yes"/>
      <point x="830" y="136"/>
      <point x="817.333" y="86"/>
      <point x="792" y="48" type="curve" smooth="yes"/>
      <point x="764.667" y="7.33333"/>
      <point x="726" y="-12.6667"/>
      <point x="676" y="-12" type="curve" smooth="yes"/>
      <point x="626.667" y="-12"/>
      <point x="588" y="8"/>
      <point x="560" y="48" type="curve" smooth="yes"/>
      <point x="534.667" y="86"/>
      <point x="522" y="136"/>
      <point x="522" y="198" type="curve" smooth="yes"/>
      <point x="522" y="260"/>
      <point x="534.667" y="310"/>
      <point x="560" y="348" type="curve" smooth="yes"/>
      <point x="587.333" y="388.667"/>
      <point x="626" y="408.667"/>
      <point x="676" y="408" type="curve" smooth="yes"/>
      <point x="726" y="408"/>
      <point x="764.667" y="388"/>
      <point x="792" y="348" type="curve" smooth="yes"/>
      <point x="817.333" y="310"/>
      <point x="830" y="260"/>
    </contour>
    <contour>
      <point x="674" y="671" type="line"/>
      <point x="250" y="0" type="line"/>
      <point x="187" y="0" type="line"/>
      <point x="612" y="671" type="line"/>
    </contour>
    <contour>
      <point x="339" y="474" type="curve" smooth="yes"/>
      <point x="339" y="412"/>
      <point x="326.333" y="362.333"/>
      <point x="301" y="325" type="curve" smooth="yes"/>
      <point x="273.667" y="284.333"/>
      <point x="235.333" y="264"/>
      <point x="186" y="264" type="curve" smooth="yes"/>
      <point x="136" y="264"/>
      <point x="97.3333" y="284.333"/>
      <point x="70" y="325" type="curve" smooth="yes"/>
      <point x="44.6667" y="362.333"/>
      <point x="32" y="412"/>
      <point x="32" y="474" type="curve" smooth="yes"/>
      <point x="32" y="536"/>
      <point x="44.6667" y="586"/>
      <point x="70" y="624" type="curve" smooth="yes"/>
      <point x="97.3333" y="664.667"/>
      <point x="136" y="684.667"/>
      <point x="186" y="684" type="curve" smooth="yes"/>
      <point x="235.333" y="684"/>
      <point x="273.667" y="664"/>
      <point x="301" y="624" type="curve" smooth="yes"/>
      <point x="326.333" y="586"/>
      <point x="339" y="536"/>
    </contour>
    <contour>
      <point x="753" y="198" type="curve" smooth="yes"/>
      <point x="753" y="312.667"/>
      <point x="727.333" y="370"/>
      <point x="676" y="370" type="curve" smooth="yes"/>
      <point x="624" y="370"/>
      <point x="598" y="312.667"/>
      <point x="598" y="198" type="curve" smooth="yes"/>
      <point x="598" y="83.3333"/>
      <point x="624" y="26"/>
      <point x="676" y="26" type="curve" smooth="yes"/>
      <point x="727.333" y="26"/>
      <point x="753" y="83.3333"/>
    </contour>
    <contour>
      <point x="262" y="474" type="curve" smooth="yes"/>
      <point x="262" y="588.667"/>
      <point x="236.667" y="646"/>
      <point x="186" y="646" type="curve" smooth="yes"/>
      <point x="133.333" y="646"/>
      <point x="107" y="588.667"/>
      <point x="107" y="474" type="curve" smooth="yes"/>
      <point x="107" y="359.333"/>
      <point x="133.333" y="302"/>
      <point x="186" y="302" type="curve" smooth="yes"/>
      <point x="236.667" y="302"/>
      <point x="262" y="359.333"/>
    </contour>
  </outline>
</glyph>
<glyph name="ampersand" format="2">
  <advance width="712"/>
  <unicode hex="0026"/>
  <outline>
    <contour>
      <point x="693" y="0" type="line"/>
      <point x="509" y="0" type="line"/>
      <point x="509" y="24" type="line"/>
      <point x="464" y="74" type="line"/>
      <point x="428" y="46"/>
      <point x="399.333" y="26.6667"/>
      <point x="378" y="16" type="curve" smooth="yes"/>
      <point x="341.333" y="-2.66667"/>
      <point x="302.333" y="-12"/>
      <point x="261" y="-12" type="curve" smooth="yes"/>
      <point x="203.667" y="-12"/>
      <point x="154.667" y="7"/>
      <point x="114" y="45" type="curve" smooth="yes"/>
      <point x="73.3333" y="83"/>
      <point x="53" y="130"/>
      <point x="53" y="186" type="curve" smooth="yes"/>
      <point x="53" y="266"/>
      <point x="97.6667" y="324.667"/>
      <point x="187" y="362" type="curve"/>
      <point x="131" y="418"/>
      <point x="103" y="469"/>
      <point x="103" y="515" type="curve" smooth="yes"/>
      <point x="103" y="564.333"/>
      <point x="121" y="604.833"/>
      <point x="157" y="636.5" type="curve" smooth="yes"/>
      <point x="193" y="668.167"/>
      <point x="238.333" y="684"/>
      <point x="293" y="684" type="curve" smooth="yes"/>
      <point x="343.667" y="684"/>
      <point x="385.667" y="669.667"/>
      <point x="419" y="641" type="curve" smooth="yes"/>
      <point x="452.333" y="612.333"/>
      <point x="469" y="576.333"/>
      <point x="469" y="533" type="curve" smooth="yes"/>
      <point x="469" y="489"/>
      <point x="453.667" y="451.667"/>
      <point x="423" y="421" type="curve" smooth="yes"/>
      <point x="401" y="399"/>
      <point x="367.333" y="378"/>
      <point x="322" y="358" type="curve"/>
      <point x="490" y="177" type="line"/>
      <point x="522" y="218.333"/>
      <point x="540.667" y="257.333"/>
      <point x="546" y="294" type="curve" smooth="yes"/>
      <point x="546" y="297.333"/>
      <point x="544.167" y="301.167"/>
      <point x="540.5" y="305.5" type="curve" smooth="yes"/>
      <point x="536.833" y="309.833"/>
      <point x="533" y="312.333"/>
      <point x="529" y="313" type="curve" smooth="yes"/>
      <point x="475" y="321" type="line"/>
      <point x="475" y="363" type="line"/>
      <point x="680" y="363" type="line"/>
      <point x="680" y="321" type="line"/>
      <point x="608" y="310" type="line"/>
      <point x="592.667" y="254"/>
      <point x="564.333" y="197.667"/>
      <point x="523" y="141" type="curve"/>
      <point x="604" y="48" type="line"/>
      <point x="693" y="43" type="line"/>
    </contour>
    <contour>
      <point x="377" y="527" type="curve" smooth="yes"/>
      <point x="377" y="557.667"/>
      <point x="369.333" y="582.667"/>
      <point x="354" y="602" type="curve" smooth="yes"/>
      <point x="337.333" y="624"/>
      <point x="313.667" y="635"/>
      <point x="283" y="635" type="curve" smooth="yes"/>
      <point x="256.333" y="635"/>
      <point x="234.667" y="626"/>
      <point x="218" y="608" type="curve" smooth="yes"/>
      <point x="201.333" y="590"/>
      <point x="193" y="567.667"/>
      <point x="193" y="541" type="curve" smooth="yes"/>
      <point x="193" y="512.333"/>
      <point x="204" y="483.667"/>
      <point x="226" y="455" type="curve" smooth="yes"/>
      <point x="234" y="444.333"/>
      <point x="254" y="423.333"/>
      <point x="286" y="392" type="curve"/>
      <point x="346.667" y="422.667"/>
      <point x="377" y="467.667"/>
    </contour>
    <contour>
      <point x="432" y="109" type="curve"/>
      <point x="226" y="333" type="line"/>
      <point x="178" y="299"/>
      <point x="154" y="257.667"/>
      <point x="154" y="209" type="curve" smooth="yes"/>
      <point x="154" y="164.333"/>
      <point x="168" y="127.167"/>
      <point x="196" y="97.5" type="curve" smooth="yes"/>
      <point x="224" y="67.8333"/>
      <point x="258.333" y="53"/>
      <point x="299" y="53" type="curve" smooth="yes"/>
      <point x="344.333" y="53"/>
      <point x="388.667" y="71.6667"/>
    </contour>
  </outline>
</glyph>
<glyph name="quotesingle" format="2">
  <advance width="170"/>
  <unicode hex="0027"/>
  <outline>
    <contour>
      <point x="128" y="665" type="curve"/>
      <point x="94" y="421" type="line"/>
      <point x="78" y="421" type="line"/>
      <point x="43" y="665" type="line"/>
      <point x="43" y="697.667"/>
      <point x="57" y="714"/>
      <point x="85" y="714" type="curve" smooth="yes"/>
      <point x="113.667" y="714"/>
      <point x="128" y="697.667"/>
    </contour>
  </outline>
</glyph>
<glyph name="parenleft" format="2">
  <advance width="537"/>
  <unicode hex="0028"/>
  <outline>
    <contour>
      <point x="494" y="-182" type="line"/>
      <point x="368" y="-168"/>
      <point x="274" y="-107.333"/>
      <point x="212" y="-0" type="curve" smooth="yes"/>
      <point x="158" y="93.3333"/>
      <point x="131" y="216"/>
      <point x="131" y="368" type="curve" smooth="yes"/>
      <point x="131" y="520.667"/>
      <point x="158" y="643.667"/>
      <point x="212" y="737" type="curve" smooth="yes"/>
      <point x="274" y="844.333"/>
      <point x="368" y="904.667"/>
      <point x="494" y="918" type="curve"/>
      <point x="494" y="861" type="line"/>
      <point x="407.333" y="847"/>
      <point x="344.333" y="796.667"/>
      <point x="305" y="710" type="curve" smooth="yes"/>
      <point x="268.333" y="630.667"/>
      <point x="250" y="516.667"/>
      <point x="250" y="368" type="curve" smooth="yes"/>
      <point x="250" y="219.333"/>
      <point x="268.333" y="105.333"/>
      <point x="305" y="26" type="curve" smooth="yes"/>
      <point x="344.333" y="-60.6667"/>
      <point x="407.333" y="-111"/>
      <point x="494" y="-125" type="curve"/>
    </contour>
  </outline>
</glyph>
<glyph name="parenright" format="2">
  <advance width="537"/>
  <unicode hex="0029"/>
  <outline>
    <contour>
      <point x="407" y="368" type="curve" smooth="yes"/>
      <point x="407" y="215.333"/>
      <point x="380" y="92.6667"/>
      <point x="326" y="-0" type="curve" smooth="yes"/>
      <point x="264" y="-106.667"/>
      <point x="169.667" y="-167.333"/>
      <point x="43" y="-182" type="curve"/>
      <point x="43" y="-125" type="line"/>
      <point x="129.667" y="-111"/>
      <point x="192.667" y="-60.6667"/>
      <point x="232" y="26" type="curve" smooth="yes"/>
      <point x="268.667" y="105.333"/>
      <point x="287" y="219.333"/>
      <point x="287" y="368" type="curve" smooth="yes"/>
      <point x="287" y="516.667"/>
      <point x="268.667" y="630.667"/>
      <point x="232" y="710" type="curve" smooth="yes"/>
      <point x="192.667" y="796"/>
      <point x="129.667" y="846.333"/>
      <point x="43" y="861" type="curve"/>
      <point x="43" y="918" type="line"/>
      <point x="169" y="904"/>
      <point x="263.333" y="843.667"/>
      <point x="326" y="737" type="curve" smooth="yes"/>
      <point x="380" y="643"/>
      <point x="407" y="520"/>
    </contour>
  </outline>
</glyph>
<glyph name="asterisk" format="2">
  <advance width="503"/>
  <unicode hex="002A"/>
  <outline>
    <contour>
      <point x="461" y="642" type="line"/>
      <point x="412" y="580" type="line"/>
      <point x="272" y="572" type="line"/>
      <point x="267" y="587" type="line"/>
      <point x="384" y="665" type="line"/>
    </contour>
    <contour>
      <point x="292" y="734" type="line"/>
      <point x="255" y="599" type="line"/>
      <point x="239" y="599" type="line"/>
      <point x="202" y="734" type="line"/>
      <point x="247" y="801" type="line"/>
    </contour>
    <contour>
      <point x="379" y="389" type="line"/>
      <point x="304" y="417" type="line"/>
      <point x="254" y="547" type="line"/>
      <point x="266" y="557" type="line"/>
      <point x="376" y="469" type="line"/>
    </contour>
    <contour>
      <point x="228" y="587" type="line"/>
      <point x="223" y="572" type="line"/>
      <point x="82" y="580" type="line"/>
      <point x="32" y="642" type="line"/>
      <point x="109" y="665" type="line"/>
    </contour>
    <contour>
      <point x="240" y="547" type="line"/>
      <point x="190" y="417" type="line"/>
      <point x="115" y="389" type="line"/>
      <point x="118" y="469" type="line"/>
      <point x="228" y="557" type="line"/>
    </contour>
  </outline>
</glyph>
<glyph name="plus" format="2">
  <advance width="833"/>
  <unicode hex="002B"/>
  <outline>
    <contour>
      <point x="714" y="269" type="line"/>
      <point x="445" y="269" type="line"/>
      <point x="445" y="0" type="line"/>
      <point x="388" y="0" type="line"/>
      <point x="388" y="269" type="line"/>
      <point x="119" y="269" type="line"/>
      <point x="119" y="326" type="line"/>
      <point x="388" y="326" type="line"/>
      <point x="388" y="594" type="line"/>
      <point x="445" y="594" type="line"/>
      <point x="445" y="326" type="line"/>
      <point x="714" y="326" type="line"/>
    </contour>
  </outline>
</glyph>
<glyph name="comma" format="2">
  <advance width="210"/>
  <unicode hex="002C"/>
  <outline>
    <contour>
      <point x="189" y="73" type="curve" smooth="yes"/>
      <point x="189" y="45.6667"/>
      <point x="174" y="15"/>
      <point x="144" y="-19" type="curve" smooth="yes"/>
      <point x="117.333" y="-49"/>
      <point x="98.6667" y="-64"/>
      <point x="88" y="-64" type="curve" smooth="yes"/>
      <point x="84.6667" y="-64"/>
      <point x="82.1667" y="-63.3333"/>
      <point x="80.5" y="-62" type="curve" smooth="yes"/>
      <point x="78.8333" y="-60.6667"/>
      <point x="78" y="-57.6667"/>
      <point x="78" y="-53" type="curve" smooth="yes"/>
      <point x="78" y="-50.3333"/>
      <point x="81.8333" y="-43.8333"/>
      <point x="89.5" y="-33.5" type="curve" smooth="yes"/>
      <point x="97.1667" y="-23.1667"/>
      <point x="101" y="-12"/>
      <point x="101" y="0" type="curve" smooth="yes"/>
      <point x="101" y="27.3333"/>
      <point x="74.6667" y="52.3333"/>
      <point x="22" y="75" type="curve"/>
      <point x="40" y="86.3333"/>
      <point x="58.6667" y="101.667"/>
      <point x="78" y="121" type="curve" smooth="yes"/>
      <point x="96" y="139.667"/>
      <point x="108" y="155.333"/>
      <point x="114" y="168" type="curve"/>
      <point x="164" y="140.667"/>
      <point x="189" y="109"/>
    </contour>
  </outline>
</glyph>
<glyph name="period" format="2">
  <advance width="289"/>
  <unicode hex="002E"/>
  <outline>
    <contour>
      <point x="236" y="81" type="curve"/>
      <point x="196.667" y="57"/>
      <point x="166" y="26"/>
      <point x="144" y="-12" type="curve"/>
      <point x="122" y="26.6667"/>
      <point x="91.3333" y="57.6667"/>
      <point x="52" y="81" type="curve"/>
      <point x="91.3333" y="103.667"/>
      <point x="122" y="134.667"/>
      <point x="144" y="174" type="curve"/>
      <point x="166" y="134.667"/>
      <point x="196.667" y="103.667"/>
    </contour>
  </outline>
</glyph>
<glyph name="slash" format="2">
  <advance width="500"/>
  <unicode hex="002F"/>
  <outline>
    <contour>
      <point x="500" y="731" type="line"/>
      <point x="65" y="-50" type="line"/>
      <point x="0" y="-50" type="line"/>
      <point x="435" y="731" type="line"/>
    </contour>
  </outline>
</glyph>
<glyph name="zero" format="2">
  <advance width="554"/>
  <unicode hex="0030"/>
  <outline>
    <contour>
      <point x="516" y="331" type="curve" smooth="yes"/>
      <point x="516" y="231"/>
      <point x="496.333" y="150.333"/>
      <point x="457" y="89" type="curve" smooth="yes"/>
      <point x="414.333" y="21.6667"/>
      <point x="354.333" y="-12"/>
      <point x="277" y="-12" type="curve" smooth="yes"/>
      <point x="200.333" y="-12"/>
      <point x="140.667" y="21.6667"/>
      <point x="98" y="89" type="curve" smooth="yes"/>
      <point x="58.6667" y="150.333"/>
      <point x="39" y="231"/>
      <point x="39" y="331" type="curve" smooth="yes"/>
      <point x="39" y="430.333"/>
      <point x="58.6667" y="510.667"/>
      <point x="98" y="572" type="curve" smooth="yes"/>
      <point x="140.667" y="639.333"/>
      <point x="200.333" y="673"/>
      <point x="277" y="673" type="curve" smooth="yes"/>
      <point x="354.333" y="673"/>
      <point x="414.333" y="639.333"/>
      <point x="457" y="572" type="curve" smooth="yes"/>
      <point x="496.333" y="510.667"/>
      <point x="516" y="430.333"/>
    </contour>
    <contour>
      <point x="412" y="331" type="curve" smooth="yes"/>
      <point x="412" y="526.333"/>
      <point x="367" y="624"/>
      <point x="277" y="624" type="curve" smooth="yes"/>
      <point x="187.667" y="624"/>
      <point x="143" y="526.333"/>
      <point x="143" y="331" type="curve" smooth="yes"/>
      <point x="143" y="135"/>
      <point x="187.667" y="37"/>
      <point x="277" y="37" type="curve" smooth="yes"/>
      <point x="367" y="37"/>
      <point x="412" y="135"/>
    </contour>
  </outline>
</glyph>
<glyph name="one" format="2">
  <advance width="554"/>
  <unicode hex="0031"/>
  <outline>
    <contour>
      <point x="440" y="0" type="line"/>
      <point x="106" y="0" type="line"/>
      <point x="106" y="44" type="line"/>
      <point x="207" y="48" type="line" smooth="yes"/>
      <point x="221" y="48.6667"/>
      <point x="228" y="56"/>
      <point x="228" y="70" type="curve" smooth="yes"/>
      <point x="228" y="589" type="line"/>
      <point x="75" y="563" type="line"/>
      <point x="75" y="607" type="line"/>
      <point x="288" y="673" type="line"/>
      <point x="325" y="673" type="line"/>
      <point x="325" y="70" type="line" smooth="yes"/>
      <point x="325" y="56"/>
      <point x="332.333" y="48.6667"/>
      <point x="347" y="48" type="curve" smooth="yes"/>
      <point x="440" y="44" type="line"/>
    </contour>
  </outline>
</glyph>
<glyph name="two" format="2">
  <advance width="554"/>
  <unicode hex="0032"/>
  <outline>
    <contour>
      <point x="508" y="0" type="line"/>
      <point x="47" y="0" type="line"/>
      <point x="47" y="66" type="line"/>
      <point x="181" y="177.333"/>
      <point x="263.333" y="249.333"/>
      <point x="294" y="282" type="curve" smooth="yes"/>
      <point x="358.667" y="350.667"/>
      <point x="391" y="415.333"/>
      <point x="391" y="476" type="curve" smooth="yes"/>
      <point x="391" y="520.667"/>
      <point x="377" y="556.333"/>
      <point x="349" y="583" type="curve" smooth="yes"/>
      <point x="323" y="607.667"/>
      <point x="290" y="620"/>
      <point x="250" y="620" type="curve" smooth="yes"/>
      <point x="231.333" y="620"/>
      <point x="212.333" y="616.667"/>
      <point x="193" y="610" type="curve" smooth="yes"/>
      <point x="184.333" y="606.667"/>
      <point x="175.667" y="603"/>
      <point x="167" y="599" type="curve"/>
      <point x="167" y="489" type="line"/>
      <point x="153.667" y="478.333"/>
      <point x="137.667" y="473"/>
      <point x="119" y="473" type="curve" smooth="yes"/>
      <point x="79.6667" y="473"/>
      <point x="60" y="492"/>
      <point x="60" y="530" type="curve" smooth="yes"/>
      <point x="60" y="571.333"/>
      <point x="81.6667" y="605.667"/>
      <point x="125" y="633" type="curve" smooth="yes"/>
      <point x="167" y="659.667"/>
      <point x="217.667" y="673"/>
      <point x="277" y="673" type="curve" smooth="yes"/>
      <point x="341.667" y="673"/>
      <point x="394.5" y="655.833"/>
      <point x="435.5" y="621.5" type="curve" smooth="yes"/>
      <point x="476.5" y="587.167"/>
      <point x="497" y="541.667"/>
      <point x="497" y="485" type="curve" smooth="yes"/>
      <point x="497" y="423.667"/>
      <point x="461.333" y="356.667"/>
      <point x="390" y="284" type="curve" smooth="yes"/>
      <point x="354" y="247.333"/>
      <point x="274" y="180.333"/>
      <point x="150" y="83" type="curve"/>
      <point x="442" y="83" type="line"/>
      <point x="460" y="168" type="line"/>
      <point x="508" y="168" type="line"/>
    </contour>
  </outline>
</glyph>
<glyph name="three" format="2">
  <advance width="554"/>
  <unicode hex="0033"/>
  <outline>
    <contour>
      <point x="508" y="188" type="curve" smooth="yes"/>
      <point x="508" y="129.333"/>
      <point x="483.167" y="81.3333"/>
      <point x="433.5" y="44" type="curve" smooth="yes"/>
      <point x="383.833" y="6.66667"/>
      <point x="322.667" y="-12"/>
      <point x="250" y="-12" type="curve" smooth="yes"/>
      <point x="188.667" y="-12"/>
      <point x="138.333" y="0.666667"/>
      <point x="99" y="26" type="curve" smooth="yes"/>
      <point x="64.3333" y="48"/>
      <point x="47" y="72.6667"/>
      <point x="47" y="100" type="curve" smooth="yes"/>
      <point x="47" y="114.667"/>
      <point x="52" y="127.333"/>
      <point x="62" y="138" type="curve" smooth="yes"/>
      <point x="72" y="148.667"/>
      <point x="86.3333" y="154"/>
      <point x="105" y="154" type="curve" smooth="yes"/>
      <point x="121" y="154"/>
      <point x="132" y="151.667"/>
      <point x="138" y="147" type="curve"/>
      <point x="168" y="59" type="line"/>
      <point x="194" y="45"/>
      <point x="222.333" y="38"/>
      <point x="253" y="38" type="curve" smooth="yes"/>
      <point x="297" y="38"/>
      <point x="334" y="53"/>
      <point x="364" y="83" type="curve" smooth="yes"/>
      <point x="392.667" y="111.667"/>
      <point x="407" y="146.667"/>
      <point x="407" y="188" type="curve" smooth="yes"/>
      <point x="407" y="231.333"/>
      <point x="390.333" y="264.333"/>
      <point x="357" y="287" type="curve" smooth="yes"/>
      <point x="330.333" y="304.333"/>
      <point x="297.667" y="313"/>
      <point x="259" y="313" type="curve" smooth="yes"/>
      <point x="237.667" y="313"/>
      <point x="217.667" y="311.333"/>
      <point x="199" y="308" type="curve"/>
      <point x="199" y="370" type="line"/>
      <point x="201" y="369.333"/>
      <point x="209.333" y="369"/>
      <point x="224" y="369" type="curve" smooth="yes"/>
      <point x="268.667" y="369"/>
      <point x="305.333" y="379"/>
      <point x="334" y="399" type="curve" smooth="yes"/>
      <point x="366" y="421.667"/>
      <point x="382.333" y="453.333"/>
      <point x="383" y="494" type="curve" smooth="yes"/>
      <point x="383" y="533.333"/>
      <point x="369.667" y="564.333"/>
      <point x="343" y="587" type="curve" smooth="yes"/>
      <point x="318.333" y="608.333"/>
      <point x="288.333" y="619"/>
      <point x="253" y="619" type="curve" smooth="yes"/>
      <point x="221" y="619"/>
      <point x="191.333" y="611"/>
      <point x="164" y="595" type="curve"/>
      <point x="164" y="497" type="line"/>
      <point x="146.667" y="488.333"/>
      <point x="132" y="484"/>
      <point x="120" y="484" type="curve" smooth="yes"/>
      <point x="106" y="484"/>
      <point x="93.6667" y="488"/>
      <point x="83" y="496" type="curve" smooth="yes"/>
      <point x="69.6667" y="506.667"/>
      <point x="63" y="521.333"/>
      <point x="63" y="540" type="curve" smooth="yes"/>
      <point x="63" y="577.333"/>
      <point x="84.6667" y="609"/>
      <point x="128" y="635" type="curve" smooth="yes"/>
      <point x="170" y="660.333"/>
      <point x="221" y="673"/>
      <point x="281" y="673" type="curve" smooth="yes"/>
      <point x="339.667" y="673"/>
      <point x="387.667" y="658.333"/>
      <point x="425" y="629" type="curve" smooth="yes"/>
      <point x="463.667" y="598.333"/>
      <point x="483" y="557.667"/>
      <point x="483" y="507" type="curve" smooth="yes"/>
      <point x="483" y="430.333"/>
      <point x="432.667" y="377.333"/>
      <point x="332" y="348" type="curve"/>
      <point x="378.667" y="346"/>
      <point x="418.333" y="332.667"/>
      <point x="451" y="308" type="curve" smooth="yes"/>
      <point x="489" y="278.667"/>
      <point x="508" y="238.667"/>
    </contour>
  </outline>
</glyph>
<glyph name="four" format="2">
  <advance width="554"/>
  <unicode hex="0034"/>
  <outline>
    <contour>
      <point x="516" y="196" type="line"/>
      <point x="432" y="196" type="line"/>
      <point x="432" y="-12" type="line"/>
      <point x="339" y="-12" type="line"/>
      <point x="339" y="196" type="line"/>
      <point x="39" y="196" type="line"/>
      <point x="39" y="264" type="line"/>
      <point x="362" y="673" type="line"/>
      <point x="432" y="673" type="line"/>
      <point x="432" y="263" type="line"/>
      <point x="516" y="263" type="line"/>
    </contour>
    <contour>
      <point x="339" y="263" type="line"/>
      <point x="339" y="547" type="line"/>
      <point x="117" y="263" type="line"/>
    </contour>
  </outline>
</glyph>
<glyph name="five" format="2">
  <advance width="554"/>
  <unicode hex="0035"/>
  <outline>
    <contour>
      <point x="510" y="214" type="curve" smooth="yes"/>
      <point x="510" y="145.333"/>
      <point x="486.333" y="91"/>
      <point x="439" y="51" type="curve" smooth="yes"/>
      <point x="389.667" y="9"/>
      <point x="320.667" y="-12"/>
      <point x="232" y="-12" type="curve" smooth="yes"/>
      <point x="182.667" y="-12"/>
      <point x="138.667" y="0.333333"/>
      <point x="100" y="25" type="curve" smooth="yes"/>
      <point x="63.3333" y="48.3333"/>
      <point x="45" y="73.3333"/>
      <point x="45" y="100" type="curve" smooth="yes"/>
      <point x="45" y="137.333"/>
      <point x="65.3333" y="156"/>
      <point x="106" y="156" type="curve" smooth="yes"/>
      <point x="116" y="156"/>
      <point x="125" y="154.667"/>
      <point x="133" y="152" type="curve"/>
      <point x="171" y="61" type="line"/>
      <point x="187.667" y="44.3333"/>
      <point x="213" y="36"/>
      <point x="247" y="36" type="curve" smooth="yes"/>
      <point x="295.667" y="36"/>
      <point x="335.667" y="53"/>
      <point x="367" y="87" type="curve" smooth="yes"/>
      <point x="395" y="117"/>
      <point x="409" y="151.333"/>
      <point x="409" y="190" type="curve" smooth="yes"/>
      <point x="409" y="243.333"/>
      <point x="393" y="284.333"/>
      <point x="361" y="313" type="curve" smooth="yes"/>
      <point x="331" y="339.667"/>
      <point x="291" y="353"/>
      <point x="241" y="353" type="curve" smooth="yes"/>
      <point x="201" y="353"/>
      <point x="148.333" y="341.667"/>
      <point x="83" y="319" type="curve"/>
      <point x="83" y="661" type="line"/>
      <point x="464" y="661" type="line"/>
      <point x="464" y="578" type="line"/>
      <point x="154" y="578" type="line"/>
      <point x="154" y="391" type="line"/>
      <point x="149.333" y="391"/>
      <point x="163.333" y="395.167"/>
      <point x="196" y="403.5" type="curve" smooth="yes"/>
      <point x="228.667" y="411.833"/>
      <point x="258.667" y="416"/>
      <point x="286" y="416" type="curve" smooth="yes"/>
      <point x="355.333" y="416"/>
      <point x="410" y="398.167"/>
      <point x="450" y="362.5" type="curve" smooth="yes"/>
      <point x="490" y="326.833"/>
      <point x="510" y="277.333"/>
    </contour>
  </outline>
</glyph>
<glyph name="six" format="2">
  <advance width="554"/>
  <unicode hex="0036"/>
  <outline>
    <contour>
      <point x="516" y="226" type="curve" smooth="yes"/>
      <point x="516" y="155.333"/>
      <point x="492.667" y="97.6667"/>
      <point x="446" y="53" type="curve" smooth="yes"/>
      <point x="400.667" y="9.66667"/>
      <point x="344" y="-12"/>
      <point x="276" y="-12" type="curve" smooth="yes"/>
      <point x="204.667" y="-12"/>
      <point x="148.667" y="10.3333"/>
      <point x="108" y="55" type="curve" smooth="yes"/>
      <point x="62" y="105"/>
      <point x="39" y="181"/>
      <point x="39" y="283" type="curve" smooth="yes"/>
      <point x="39" y="402.333"/>
      <point x="73.6667" y="496.667"/>
      <point x="143" y="566" type="curve" smooth="yes"/>
      <point x="213.667" y="636.667"/>
      <point x="310.667" y="672.333"/>
      <point x="434" y="673" type="curve"/>
      <point x="434" y="612" type="line"/>
      <point x="400" y="613" type="line" smooth="yes"/>
      <point x="336" y="615"/>
      <point x="280.333" y="594.333"/>
      <point x="233" y="551" type="curve" smooth="yes"/>
      <point x="184.333" y="505.667"/>
      <point x="155.333" y="444.667"/>
      <point x="146" y="368" type="curve"/>
      <point x="194" y="410"/>
      <point x="249" y="431"/>
      <point x="311" y="431" type="curve" smooth="yes"/>
      <point x="372.333" y="431"/>
      <point x="421.833" y="411.667"/>
      <point x="459.5" y="373" type="curve" smooth="yes"/>
      <point x="497.167" y="334.333"/>
      <point x="516" y="285.333"/>
    </contour>
    <contour>
      <point x="416" y="213" type="curve" smooth="yes"/>
      <point x="416" y="261.667"/>
      <point x="403.5" y="299.5"/>
      <point x="378.5" y="326.5" type="curve" smooth="yes"/>
      <point x="353.5" y="353.5"/>
      <point x="319.333" y="367"/>
      <point x="276" y="367" type="curve" smooth="yes"/>
      <point x="232.667" y="367"/>
      <point x="188.333" y="350.333"/>
      <point x="143" y="317" type="curve"/>
      <point x="141.667" y="303"/>
      <point x="141" y="285"/>
      <point x="141" y="263" type="curve" smooth="yes"/>
      <point x="141" y="113.667"/>
      <point x="186" y="39"/>
      <point x="276" y="39" type="curve" smooth="yes"/>
      <point x="321.333" y="39"/>
      <point x="356.667" y="55.6667"/>
      <point x="382" y="89" type="curve" smooth="yes"/>
      <point x="404.667" y="120.333"/>
      <point x="416" y="161.667"/>
    </contour>
  </outline>
</glyph>
<glyph name="seven" format="2">
  <advance width="554"/>
  <unicode hex="0037"/>
  <outline>
    <contour>
      <point x="514" y="606" type="line"/>
      <point x="190" y="21" type="line"/>
      <point x="190" y="-12" type="line"/>
      <point x="86" y="-12" type="line"/>
      <point x="411" y="578" type="line"/>
      <point x="107" y="578" type="line"/>
      <point x="92" y="487" type="line"/>
      <point x="41" y="487" type="line"/>
      <point x="41" y="661" type="line"/>
      <point x="514" y="661" type="line"/>
    </contour>
  </outline>
</glyph>
<glyph name="eight" format="2">
  <advance width="554"/>
  <unicode hex="0038"/>
  <outline>
    <contour>
      <point x="515" y="180" type="curve" smooth="yes"/>
      <point x="515" y="124.667"/>
      <point x="492.333" y="78.8333"/>
      <point x="447" y="42.5" type="curve" smooth="yes"/>
      <point x="401.667" y="6.16667"/>
      <point x="345" y="-12"/>
      <point x="277" y="-12" type="curve" smooth="yes"/>
      <point x="205" y="-12"/>
      <point x="147.5" y="5.5"/>
      <point x="104.5" y="40.5" type="curve" smooth="yes"/>
      <point x="61.5" y="75.5"/>
      <point x="40" y="121.333"/>
      <point x="40" y="178" type="curve" smooth="yes"/>
      <point x="40" y="252.667"/>
      <point x="86.6667" y="307.333"/>
      <point x="180" y="342" type="curve"/>
      <point x="148.667" y="355.333"/>
      <point x="123" y="373.333"/>
      <point x="103" y="396" type="curve" smooth="yes"/>
      <point x="78.3333" y="424"/>
      <point x="66" y="456"/>
      <point x="66" y="492" type="curve" smooth="yes"/>
      <point x="66" y="547.333"/>
      <point x="85.3333" y="591.667"/>
      <point x="124" y="625" type="curve" smooth="yes"/>
      <point x="162.667" y="657"/>
      <point x="213.667" y="673"/>
      <point x="277" y="673" type="curve" smooth="yes"/>
      <point x="337" y="673"/>
      <point x="387" y="657.5"/>
      <point x="427" y="626.5" type="curve" smooth="yes"/>
      <point x="467" y="595.5"/>
      <point x="487" y="556"/>
      <point x="487" y="508" type="curve" smooth="yes"/>
      <point x="487" y="439.333"/>
      <point x="447.333" y="386"/>
      <point x="368" y="348" type="curve"/>
      <point x="466" y="312"/>
      <point x="515" y="256"/>
    </contour>
    <contour>
      <point x="397" y="499" type="curve" smooth="yes"/>
      <point x="397" y="538.333"/>
      <point x="385" y="569"/>
      <point x="361" y="591" type="curve" smooth="yes"/>
      <point x="339" y="612.333"/>
      <point x="311" y="623"/>
      <point x="277" y="623" type="curve" smooth="yes"/>
      <point x="243.667" y="623"/>
      <point x="216.333" y="612.5"/>
      <point x="195" y="591.5" type="curve" smooth="yes"/>
      <point x="173.667" y="570.5"/>
      <point x="163" y="545"/>
      <point x="163" y="515" type="curve" smooth="yes"/>
      <point x="163" y="481.667"/>
      <point x="177.333" y="453"/>
      <point x="206" y="429" type="curve" smooth="yes"/>
      <point x="231.333" y="407.667"/>
      <point x="271" y="386.667"/>
      <point x="325" y="366" type="curve"/>
      <point x="373" y="400.667"/>
      <point x="397" y="445"/>
    </contour>
    <contour>
      <point x="415" y="164" type="curve" smooth="yes"/>
      <point x="415" y="200.667"/>
      <point x="397.667" y="230.667"/>
      <point x="363" y="254" type="curve" smooth="yes"/>
      <point x="342.333" y="268"/>
      <point x="294.333" y="290"/>
      <point x="219" y="320" type="curve"/>
      <point x="160.333" y="288"/>
      <point x="131" y="243"/>
      <point x="131" y="185" type="curve" smooth="yes"/>
      <point x="131" y="141.667"/>
      <point x="143.333" y="107.333"/>
      <point x="168" y="82" type="curve" smooth="yes"/>
      <point x="194" y="55.3333"/>
      <point x="230.333" y="42"/>
      <point x="277" y="42" type="curve" smooth="yes"/>
      <point x="318.333" y="42"/>
      <point x="352" y="54"/>
      <point x="378" y="78" type="curve" smooth="yes"/>
      <point x="402.667" y="100.667"/>
      <point x="415" y="129.333"/>
    </contour>
  </outline>
</glyph>
<glyph name="nine" format="2">
  <advance width="554"/>
  <unicode hex="0039"/>
  <outline>
    <contour>
      <point x="516" y="378" type="curve" smooth="yes"/>
      <point x="516" y="259.333"/>
      <point x="481.333" y="165"/>
      <point x="412" y="95" type="curve" smooth="yes"/>
      <point x="341.333" y="23.6667"/>
      <point x="244" y="-12"/>
      <point x="120" y="-12" type="curve"/>
      <point x="120" y="49" type="line"/>
      <point x="154" y="48" type="line" smooth="yes"/>
      <point x="218" y="46.6667"/>
      <point x="273.333" y="67.3333"/>
      <point x="320" y="110" type="curve" smooth="yes"/>
      <point x="368.667" y="154.667"/>
      <point x="398.333" y="215.667"/>
      <point x="409" y="293" type="curve"/>
      <point x="360.333" y="251"/>
      <point x="305.333" y="230"/>
      <point x="244" y="230" type="curve" smooth="yes"/>
      <point x="182.667" y="230"/>
      <point x="133.167" y="249.333"/>
      <point x="95.5" y="288" type="curve" smooth="yes"/>
      <point x="57.8333" y="326.667"/>
      <point x="39" y="375.667"/>
      <point x="39" y="435" type="curve" smooth="yes"/>
      <point x="39" y="505.667"/>
      <point x="62" y="563.333"/>
      <point x="108" y="608" type="curve" smooth="yes"/>
      <point x="153.333" y="651.333"/>
      <point x="210" y="673"/>
      <point x="278" y="673" type="curve" smooth="yes"/>
      <point x="350" y="673"/>
      <point x="406.333" y="650.667"/>
      <point x="447" y="606" type="curve" smooth="yes"/>
      <point x="493" y="556"/>
      <point x="516" y="480"/>
    </contour>
    <contour>
      <point x="414" y="398" type="curve" smooth="yes"/>
      <point x="414" y="547.333"/>
      <point x="368.667" y="622"/>
      <point x="278" y="622" type="curve" smooth="yes"/>
      <point x="232.667" y="622"/>
      <point x="197.667" y="605.333"/>
      <point x="173" y="572" type="curve" smooth="yes"/>
      <point x="150.333" y="541.333"/>
      <point x="139" y="500"/>
      <point x="139" y="448" type="curve" smooth="yes"/>
      <point x="139" y="400"/>
      <point x="151.333" y="362.333"/>
      <point x="176" y="335" type="curve" smooth="yes"/>
      <point x="200.667" y="307.667"/>
      <point x="234.667" y="294"/>
      <point x="278" y="294" type="curve" smooth="yes"/>
      <point x="322.667" y="294"/>
      <point x="367.333" y="310.667"/>
      <point x="412" y="344" type="curve"/>
      <point x="413.333" y="358"/>
      <point x="414" y="376"/>
    </contour>
  </outline>
</glyph>
<glyph name="colon" format="2">
  <advance width="292"/>
  <unicode hex="003A"/>
  <outline>
    <contour>
      <point x="214" y="415" type="curve" smooth="yes"/>
      <point x="214" y="396.333"/>
      <point x="207.5" y="380.5"/>
      <point x="194.5" y="367.5" type="curve" smooth="yes"/>
      <point x="181.5" y="354.5"/>
      <point x="165.667" y="348"/>
      <point x="147" y="348" type="curve" smooth="yes"/>
      <point x="128.333" y="348"/>
      <point x="112.667" y="354.5"/>
      <point x="100" y="367.5" type="curve" smooth="yes"/>
      <point x="87.3333" y="380.5"/>
      <point x="81" y="396.333"/>
      <point x="81" y="415" type="curve" smooth="yes"/>
      <point x="81" y="433.667"/>
      <point x="87.3333" y="449.5"/>
      <point x="100" y="462.5" type="curve" smooth="yes"/>
      <point x="112.667" y="475.5"/>
      <point x="128.333" y="482"/>
      <point x="147" y="482" type="curve" smooth="yes"/>
      <point x="165.667" y="482"/>
      <point x="181.5" y="475.5"/>
      <point x="194.5" y="462.5" type="curve" smooth="yes"/>
      <point x="207.5" y="449.5"/>
      <point x="214" y="433.667"/>
    </contour>
    <contour>
      <point x="214" y="59" type="curve" smooth="yes"/>
      <point x="214" y="40.3333"/>
      <point x="207.5" y="24.5"/>
      <point x="194.5" y="11.5" type="curve" smooth="yes"/>
      <point x="181.5" y="-1.5"/>
      <point x="165.667" y="-8"/>
      <point x="147" y="-8" type="curve" smooth="yes"/>
      <point x="128.333" y="-8"/>
      <point x="112.667" y="-1.5"/>
      <point x="100" y="11.5" type="curve" smooth="yes"/>
      <point x="87.3333" y="24.5"/>
      <point x="81" y="40.3333"/>
      <point x="81" y="59" type="curve" smooth="yes"/>
      <point x="81" y="77.6667"/>
      <point x="87.3333" y="93.5"/>
      <point x="100" y="106.5" type="curve" smooth="yes"/>
      <point x="112.667" y="119.5"/>
      <point x="128.333" y="126"/>
      <point x="147" y="126" type="curve" smooth="yes"/>
      <point x="165.667" y="126"/>
      <point x="181.5" y="119.5"/>
      <point x="194.5" y="106.5" type="curve" smooth="yes"/>
      <point x="207.5" y="93.5"/>
      <point x="214" y="77.6667"/>
    </contour>
  </outline>
</glyph>
<glyph name="semicolon" format="2">
  <advance width="289"/>
  <unicode hex="003B"/>
  <outline>
    <contour>
      <point x="232" y="315" type="curve"/>
      <point x="194" y="293"/>
      <point x="163.667" y="262.333"/>
      <point x="141" y="223" type="curve"/>
      <point x="118.333" y="261.667"/>
      <point x="87.6667" y="292.333"/>
      <point x="49" y="315" type="curve"/>
      <point x="87.6667" y="337"/>
      <point x="118.333" y="368"/>
      <point x="141" y="408" type="curve"/>
      <point x="164.333" y="367.333"/>
      <point x="194.667" y="336.333"/>
    </contour>
    <contour>
      <point x="216" y="72" type="curve" smooth="yes"/>
      <point x="216" y="45.3333"/>
      <point x="201" y="15"/>
      <point x="171" y="-19" type="curve" smooth="yes"/>
      <point x="144.333" y="-49"/>
      <point x="126" y="-64"/>
      <point x="116" y="-64" type="curve" smooth="yes"/>
      <point x="108.667" y="-64"/>
      <point x="105" y="-60.3333"/>
      <point x="105" y="-53" type="curve" smooth="yes"/>
      <point x="105" y="-50.3333"/>
      <point x="108.667" y="-43.8333"/>
      <point x="116" y="-33.5" type="curve" smooth="yes"/>
      <point x="123.333" y="-23.1667"/>
      <point x="127" y="-12"/>
      <point x="127" y="0" type="curve" smooth="yes"/>
      <point x="127" y="27.3333"/>
      <point x="101" y="52.3333"/>
      <point x="49" y="75" type="curve"/>
      <point x="67.6667" y="86.3333"/>
      <point x="86.1667" y="101.5"/>
      <point x="104.5" y="120.5" type="curve" smooth="yes"/>
      <point x="122.833" y="139.5"/>
      <point x="135" y="155.333"/>
      <point x="141" y="168" type="curve"/>
      <point x="191" y="140.667"/>
      <point x="216" y="108.667"/>
    </contour>
  </outline>
</glyph>
<glyph name="less" format="2">
  <advance width="833"/>
  <unicode hex="003C"/>
  <outline>
    <contour>
      <point x="704" y="37" type="line"/>
      <point x="129" y="272" type="line"/>
      <point x="129" y="323" type="line"/>
      <point x="704" y="559" type="line"/>
      <point x="704" y="497" type="line"/>
      <point x="216" y="298" type="line"/>
      <point x="704" y="100" type="line"/>
    </contour>
  </outline>
</glyph>
<glyph name="equal" format="2">
  <advance width="833"/>
  <unicode hex="003D"/>
  <outline>
    <contour>
      <point x="709" y="363" type="line"/>
      <point x="124" y="363" type="line"/>
      <point x="124" y="420" type="line"/>
      <point x="709" y="420" type="line"/>
    </contour>
    <contour>
      <point x="709" y="176" type="line"/>
      <point x="124" y="176" type="line"/>
      <point x="124" y="233" type="line"/>
      <point x="709" y="233" type="line"/>
    </contour>
  </outline>
</glyph>
<glyph name="greater" format="2">
  <advance width="833"/>
  <unicode hex="003E"/>
  <outline>
    <contour>
      <point x="704" y="272" type="line"/>
      <point x="129" y="37" type="line"/>
      <point x="129" y="100" type="line"/>
      <point x="617" y="298" type="line"/>
      <point x="129" y="497" type="line"/>
      <point x="129" y="559" type="line"/>
      <point x="704" y="323" type="line"/>
    </contour>
  </outline>
</glyph>
<glyph name="question" format="2">
  <advance width="522"/>
  <unicode hex="003F"/>
  <outline>
    <contour>
      <point x="451" y="522" type="curve" smooth="yes"/>
      <point x="451" y="464.667"/>
      <point x="428" y="415.333"/>
      <point x="382" y="374" type="curve" smooth="yes"/>
      <point x="353.333" y="348"/>
      <point x="310.667" y="322.333"/>
      <point x="254" y="297" type="curve"/>
      <point x="254" y="183" type="line"/>
      <point x="196" y="183" type="line"/>
      <point x="196" y="332" type="line"/>
      <point x="236.667" y="345.333"/>
      <point x="270" y="365.333"/>
      <point x="296" y="392" type="curve" smooth="yes"/>
      <point x="329.333" y="426"/>
      <point x="346" y="466.333"/>
      <point x="346" y="513" type="curve" smooth="yes"/>
      <point x="346" y="608.333"/>
      <point x="297" y="656"/>
      <point x="199" y="656" type="curve"/>
      <point x="156" y="550" type="line"/>
      <point x="139" y="549" type="line"/>
      <point x="94.3333" y="549"/>
      <point x="72" y="567.667"/>
      <point x="72" y="605" type="curve" smooth="yes"/>
      <point x="72" y="632.333"/>
      <point x="85.3333" y="655.333"/>
      <point x="112" y="674" type="curve" smooth="yes"/>
      <point x="142" y="696"/>
      <point x="183.333" y="707"/>
      <point x="236" y="707" type="curve" smooth="yes"/>
      <point x="298" y="707"/>
      <point x="349" y="690.333"/>
      <point x="389" y="657" type="curve" smooth="yes"/>
      <point x="430.333" y="622.333"/>
      <point x="451" y="577.333"/>
    </contour>
    <contour>
      <point x="291" y="55" type="curve" smooth="yes"/>
      <point x="291" y="37.6667"/>
      <point x="284.5" y="22.8333"/>
      <point x="271.5" y="10.5" type="curve" smooth="yes"/>
      <point x="258.5" y="-1.83333"/>
      <point x="243.333" y="-8"/>
      <point x="226" y="-8" type="curve" smooth="yes"/>
      <point x="208.667" y="-8"/>
      <point x="193.833" y="-1.66667"/>
      <point x="181.5" y="11" type="curve" smooth="yes"/>
      <point x="169.167" y="23.6667"/>
      <point x="163" y="38.6667"/>
      <point x="163" y="56" type="curve" smooth="yes"/>
      <point x="163" y="73.3333"/>
      <point x="169.167" y="88.3333"/>
      <point x="181.5" y="101" type="curve" smooth="yes"/>
      <point x="193.833" y="113.667"/>
      <point x="208.667" y="120"/>
      <point x="226" y="120" type="curve" smooth="yes"/>
      <point x="244" y="120"/>
      <point x="259.333" y="113.667"/>
      <point x="272" y="101" type="curve" smooth="yes"/>
      <point x="284.667" y="88.3333"/>
      <point x="291" y="73"/>
    </contour>
  </outline>
</glyph>
<glyph name="at" format="2">
  <advance width="936"/>
  <unicode hex="0040"/>
  <outline>
    <contour>
      <point x="867" y="373" type="curve" smooth="yes"/>
      <point x="867" y="279"/>
      <point x="839" y="201"/>
      <point x="783" y="139" type="curve" smooth="yes"/>
      <point x="733.667" y="83.6667"/>
      <point x="680.333" y="56"/>
      <point x="623" y="56" type="curve" smooth="yes"/>
      <point x="571" y="56"/>
      <point x="545" y="83.6667"/>
      <point x="545" y="139" type="curve"/>
      <point x="490.333" y="84.3333"/>
      <point x="442.333" y="57"/>
      <point x="401" y="57" type="curve" smooth="yes"/>
      <point x="364.333" y="57"/>
      <point x="334.333" y="71.8333"/>
      <point x="311" y="101.5" type="curve" smooth="yes"/>
      <point x="287.667" y="131.167"/>
      <point x="276" y="170.667"/>
      <point x="276" y="220" type="curve" smooth="yes"/>
      <point x="276" y="294.667"/>
      <point x="301.667" y="359.333"/>
      <point x="353" y="414" type="curve" smooth="yes"/>
      <point x="403" y="466.667"/>
      <point x="460" y="492.667"/>
      <point x="524" y="492" type="curve" smooth="yes"/>
      <point x="556.667" y="492"/>
      <point x="589.333" y="483"/>
      <point x="622" y="465" type="curve"/>
      <point x="640" y="488" type="line"/>
      <point x="697" y="488" type="line"/>
      <point x="693.667" y="478"/>
      <point x="670.667" y="379"/>
      <point x="628" y="191" type="curve" smooth="yes"/>
      <point x="625.333" y="179"/>
      <point x="624" y="168.333"/>
      <point x="624" y="159" type="curve" smooth="yes"/>
      <point x="624" y="128.333"/>
      <point x="637.667" y="113"/>
      <point x="665" y="113" type="curve" smooth="yes"/>
      <point x="699" y="113"/>
      <point x="732" y="136.333"/>
      <point x="764" y="183" type="curve" smooth="yes"/>
      <point x="800.667" y="236.333"/>
      <point x="819" y="299.333"/>
      <point x="819" y="372" type="curve" smooth="yes"/>
      <point x="819" y="460.667"/>
      <point x="789.667" y="530"/>
      <point x="731" y="580" type="curve" smooth="yes"/>
      <point x="679" y="624.667"/>
      <point x="614.667" y="647"/>
      <point x="538" y="647" type="curve" smooth="yes"/>
      <point x="424.667" y="647"/>
      <point x="331.333" y="610"/>
      <point x="258" y="536" type="curve" smooth="yes"/>
      <point x="184.667" y="462"/>
      <point x="148" y="369"/>
      <point x="148" y="257" type="curve" smooth="yes"/>
      <point x="148" y="152.333"/>
      <point x="178.667" y="66.6667"/>
      <point x="240" y="0" type="curve" smooth="yes"/>
      <point x="304" y="-69.3333"/>
      <point x="390" y="-103.667"/>
      <point x="498" y="-103" type="curve" smooth="yes"/>
      <point x="585.333" y="-103"/>
      <point x="673.333" y="-78.3333"/>
      <point x="762" y="-29" type="curve"/>
      <point x="777" y="-65" type="line"/>
      <point x="667" y="-123.667"/>
      <point x="566" y="-153"/>
      <point x="474" y="-153" type="curve" smooth="yes"/>
      <point x="362.667" y="-153"/>
      <point x="269.667" y="-118"/>
      <point x="195" y="-48" type="curve" smooth="yes"/>
      <point x="115.667" y="25.3333"/>
      <point x="76" y="121"/>
      <point x="76" y="239" type="curve" smooth="yes"/>
      <point x="76" y="379"/>
      <point x="123" y="491.333"/>
      <point x="217" y="576" type="curve" smooth="yes"/>
      <point x="302.333" y="652.667"/>
      <point x="405.333" y="691"/>
      <point x="526" y="691" type="curve" smooth="yes"/>
      <point x="628" y="691"/>
      <point x="709.667" y="663.667"/>
      <point x="771" y="609" type="curve" smooth="yes"/>
      <point x="835" y="552.333"/>
      <point x="867" y="473.667"/>
    </contour>
    <contour>
      <point x="588" y="393" type="line" smooth="yes"/>
      <point x="590" y="403"/>
      <point x="585" y="414.667"/>
      <point x="573" y="428" type="curve" smooth="yes"/>
      <point x="559.667" y="442.667"/>
      <point x="545" y="450"/>
      <point x="529" y="450" type="curve" smooth="yes"/>
      <point x="480.333" y="450"/>
      <point x="441" y="428.333"/>
      <point x="411" y="385" type="curve" smooth="yes"/>
      <point x="382.333" y="343.667"/>
      <point x="367.667" y="291.667"/>
      <point x="367" y="229" type="curve" smooth="yes"/>
      <point x="367" y="157"/>
      <point x="393.333" y="121"/>
      <point x="446" y="121" type="curve" smooth="yes"/>
      <point x="479.333" y="121"/>
      <point x="513.333" y="142.667"/>
      <point x="548" y="186" type="curve"/>
    </contour>
  </outline>
</glyph>
<glyph name="B" format="2">
  <advance width="608"/>
  <unicode hex="0042"/>
  <outline>
    <contour>
      <point x="566" y="198" type="curve" smooth="yes"/>
      <point x="566" y="125.333"/>
      <point x="537" y="72.3333"/>
      <point x="479" y="39" type="curve" smooth="yes"/>
      <point x="435" y="13"/>
      <point x="379.333" y="0"/>
      <point x="312" y="0" type="curve" smooth="yes"/>
      <point x="32" y="0" type="line"/>
      <point x="32" y="43" type="line"/>
      <point x="85" y="47" type="line" smooth="yes"/>
      <point x="99" y="47.6667"/>
      <point x="106" y="55"/>
      <point x="106" y="69" type="curve" smooth="yes"/>
      <point x="106" y="602" type="line" smooth="yes"/>
      <point x="106" y="616"/>
      <point x="99" y="623.333"/>
      <point x="85" y="624" type="curve" smooth="yes"/>
      <point x="32" y="628" type="line"/>
      <point x="32" y="671" type="line"/>
      <point x="300" y="671" type="line" smooth="yes"/>
      <point x="450" y="671"/>
      <point x="525" y="617.333"/>
      <point x="525" y="510" type="curve" smooth="yes"/>
      <point x="525" y="432"/>
      <point x="477" y="380.667"/>
      <point x="381" y="356" type="curve"/>
      <point x="432.333" y="356"/>
      <point x="474.333" y="344.333"/>
      <point x="507" y="321" type="curve" smooth="yes"/>
      <point x="546.333" y="293.667"/>
      <point x="566" y="252.667"/>
    </contour>
    <contour>
      <point x="417" y="503" type="curve" smooth="yes"/>
      <point x="417" y="584.333"/>
      <point x="365.667" y="625"/>
      <point x="263" y="625" type="curve" smooth="yes"/>
      <point x="255" y="625"/>
      <point x="243.833" y="624.5"/>
      <point x="229.5" y="623.5" type="curve" smooth="yes"/>
      <point x="215.167" y="622.5"/>
      <point x="207.333" y="622"/>
      <point x="206" y="622" type="curve"/>
      <point x="206" y="369" type="line"/>
      <point x="223.333" y="368.333"/>
      <point x="235.333" y="368"/>
      <point x="242" y="368" type="curve" smooth="yes"/>
      <point x="304.667" y="368"/>
      <point x="350" y="379.667"/>
      <point x="378" y="403" type="curve" smooth="yes"/>
      <point x="404" y="425"/>
      <point x="417" y="458.333"/>
    </contour>
    <contour>
      <point x="457" y="190" type="curve" smooth="yes"/>
      <point x="457" y="278"/>
      <point x="403.333" y="322"/>
      <point x="296" y="322" type="curve" smooth="yes"/>
      <point x="282.667" y="322"/>
      <point x="264.333" y="321"/>
      <point x="241" y="319" type="curve" smooth="yes"/>
      <point x="206" y="316"/>
      <point x="206" y="316"/>
      <point x="206" y="316" type="curve"/>
      <point x="206" y="52" type="line"/>
      <point x="235.333" y="50"/>
      <point x="256" y="49"/>
      <point x="268" y="49" type="curve" smooth="yes"/>
      <point x="336.667" y="49"/>
      <point x="385.667" y="60.6667"/>
      <point x="415" y="84" type="curve" smooth="yes"/>
      <point x="443" y="106"/>
      <point x="457" y="141.333"/>
    </contour>
  </outline>
</glyph>
<glyph name="C" format="2">
  <advance width="632"/>
  <unicode hex="0043"/>
  <outline>
    <contour>
      <point x="591" y="23" type="line"/>
      <point x="532.333" y="-0.333333"/>
      <point x="465.667" y="-12"/>
      <point x="391" y="-12" type="curve" smooth="yes"/>
      <point x="283.667" y="-12"/>
      <point x="197.333" y="23.3333"/>
      <point x="132" y="94" type="curve" smooth="yes"/>
      <point x="72" y="159.333"/>
      <point x="42" y="240.333"/>
      <point x="42" y="337" type="curve" smooth="yes"/>
      <point x="42" y="440.333"/>
      <point x="74.1667" y="523.833"/>
      <point x="138.5" y="587.5" type="curve" smooth="yes"/>
      <point x="202.833" y="651.167"/>
      <point x="287.333" y="683"/>
      <point x="392" y="683" type="curve" smooth="yes"/>
      <point x="448.667" y="683"/>
      <point x="515" y="671.333"/>
      <point x="591" y="648" type="curve"/>
      <point x="591" y="491" type="line"/>
      <point x="531" y="491" type="line"/>
      <point x="516" y="582" type="line" smooth="yes"/>
      <point x="514.667" y="592.667"/>
      <point x="509" y="600.333"/>
      <point x="499" y="605" type="curve" smooth="yes"/>
      <point x="468.333" y="619.667"/>
      <point x="434.333" y="627"/>
      <point x="397" y="627" type="curve" smooth="yes"/>
      <point x="326.333" y="627"/>
      <point x="269.333" y="603"/>
      <point x="226" y="555" type="curve" smooth="yes"/>
      <point x="180" y="504.333"/>
      <point x="157" y="432.667"/>
      <point x="157" y="340" type="curve" smooth="yes"/>
      <point x="157" y="247.333"/>
      <point x="179.5" y="174.667"/>
      <point x="224.5" y="122" type="curve" smooth="yes"/>
      <point x="269.5" y="69.3333"/>
      <point x="331.333" y="43"/>
      <point x="410" y="43" type="curve" smooth="yes"/>
      <point x="442.667" y="43"/>
      <point x="469.667" y="47.3333"/>
      <point x="491" y="56" type="curve" smooth="yes"/>
      <point x="501.667" y="60"/>
      <point x="508" y="66.6667"/>
      <point x="510" y="76" type="curve" smooth="yes"/>
      <point x="533" y="185" type="line"/>
      <point x="591" y="185" type="line"/>
    </contour>
  </outline>
</glyph>
<glyph name="D" format="2">
  <advance width="698"/>
  <unicode hex="0044"/>
  <outline>
    <contour>
      <point x="657" y="337" type="curve" smooth="yes"/>
      <point x="657" y="240.333"/>
      <point x="630.667" y="162.333"/>
      <point x="578" y="103" type="curve" smooth="yes"/>
      <point x="517.333" y="34.3333"/>
      <point x="428" y="0"/>
      <point x="310" y="0" type="curve" smooth="yes"/>
      <point x="32" y="0" type="line"/>
      <point x="32" y="43" type="line"/>
      <point x="85" y="47" type="line" smooth="yes"/>
      <point x="99.6667" y="47.6667"/>
      <point x="107" y="55"/>
      <point x="107" y="69" type="curve" smooth="yes"/>
      <point x="107" y="602" type="line" smooth="yes"/>
      <point x="107" y="616"/>
      <point x="99.6667" y="623.333"/>
      <point x="85" y="624" type="curve" smooth="yes"/>
      <point x="32" y="628" type="line"/>
      <point x="32" y="671" type="line"/>
      <point x="290" y="671" type="line" smooth="yes"/>
      <point x="400.667" y="671"/>
      <point x="488" y="644"/>
      <point x="552" y="590" type="curve" smooth="yes"/>
      <point x="622" y="532"/>
      <point x="657" y="447.667"/>
    </contour>
    <contour>
      <point x="544" y="335" type="curve" smooth="yes"/>
      <point x="544" y="527"/>
      <point x="457.333" y="623"/>
      <point x="284" y="623" type="curve" smooth="yes"/>
      <point x="207" y="623" type="line"/>
      <point x="207" y="48" type="line"/>
      <point x="289" y="49" type="line" smooth="yes"/>
      <point x="459" y="51"/>
      <point x="544" y="146.333"/>
    </contour>
  </outline>
</glyph>
<glyph name="F" format="2">
  <advance width="541"/>
  <unicode hex="0046"/>
  <outline>
    <contour>
      <point x="517" y="512" type="line"/>
      <point x="458" y="512" type="line"/>
      <point x="444" y="604" type="line" smooth="yes"/>
      <point x="442" y="616"/>
      <point x="436.333" y="622"/>
      <point x="427" y="622" type="curve" smooth="yes"/>
      <point x="213" y="622" type="line"/>
      <point x="213" y="362" type="line"/>
      <point x="367" y="362" type="line" smooth="yes"/>
      <point x="377" y="362"/>
      <point x="383" y="368"/>
      <point x="385" y="380" type="curve" smooth="yes"/>
      <point x="394" y="450" type="line"/>
      <point x="444" y="450" type="line"/>
      <point x="444" y="225" type="line"/>
      <point x="394" y="225" type="line"/>
      <point x="385" y="295" type="line" smooth="yes"/>
      <point x="383.667" y="307"/>
      <point x="377.667" y="313"/>
      <point x="367" y="313" type="curve" smooth="yes"/>
      <point x="213" y="313" type="line"/>
      <point x="213" y="69" type="line" smooth="yes"/>
      <point x="213" y="55"/>
      <point x="220" y="47.6667"/>
      <point x="234" y="47" type="curve" smooth="yes"/>
      <point x="301" y="43" type="line"/>
      <point x="301" y="0" type="line"/>
      <point x="39" y="0" type="line"/>
      <point x="39" y="43" type="line"/>
      <point x="92" y="47" type="line" smooth="yes"/>
      <point x="106" y="47.6667"/>
      <point x="113" y="55"/>
      <point x="113" y="69" type="curve" smooth="yes"/>
      <point x="113" y="602" type="line" smooth="yes"/>
      <point x="113" y="616"/>
      <point x="106" y="623.333"/>
      <point x="92" y="624" type="curve" smooth="yes"/>
      <point x="31" y="628" type="line"/>
      <point x="31" y="671" type="line"/>
      <point x="517" y="671" type="line"/>
    </contour>
  </outline>
</glyph>
<glyph name="G" format="2">
  <advance width="698"/>
  <unicode hex="0047"/>
  <outline>
    <contour>
      <point x="673" y="281" type="line"/>
      <point x="622" y="276" type="line" smooth="yes"/>
      <point x="608" y="274.667"/>
      <point x="601" y="267.667"/>
      <point x="601" y="255" type="curve" smooth="yes"/>
      <point x="601" y="24" type="line"/>
      <point x="527.667" y="0"/>
      <point x="457.667" y="-12"/>
      <point x="391" y="-12" type="curve" smooth="yes"/>
      <point x="283.667" y="-12"/>
      <point x="197.667" y="23"/>
      <point x="133" y="93" type="curve" smooth="yes"/>
      <point x="72.3333" y="159"/>
      <point x="42" y="240.333"/>
      <point x="42" y="337" type="curve" smooth="yes"/>
      <point x="42" y="442.333"/>
      <point x="74.5" y="526.333"/>
      <point x="139.5" y="589" type="curve" smooth="yes"/>
      <point x="204.5" y="651.667"/>
      <point x="292.667" y="683"/>
      <point x="404" y="683" type="curve" smooth="yes"/>
      <point x="458" y="683"/>
      <point x="523.333" y="673"/>
      <point x="600" y="653" type="curve"/>
      <point x="600" y="491" type="line"/>
      <point x="540" y="491" type="line"/>
      <point x="524" y="581" type="line" smooth="yes"/>
      <point x="522" y="592.333"/>
      <point x="515.333" y="600.333"/>
      <point x="504" y="605" type="curve" smooth="yes"/>
      <point x="470" y="619.667"/>
      <point x="435.333" y="627"/>
      <point x="400" y="627" type="curve" smooth="yes"/>
      <point x="326" y="627"/>
      <point x="267.333" y="602.667"/>
      <point x="224" y="554" type="curve" smooth="yes"/>
      <point x="178.667" y="503.333"/>
      <point x="156" y="432.667"/>
      <point x="156" y="342" type="curve" smooth="yes"/>
      <point x="156" y="247.333"/>
      <point x="179.333" y="173.667"/>
      <point x="226" y="121" type="curve" smooth="yes"/>
      <point x="271.333" y="69.6667"/>
      <point x="333.333" y="44"/>
      <point x="412" y="44" type="curve" smooth="yes"/>
      <point x="430" y="44"/>
      <point x="449.5" y="45.8333"/>
      <point x="470.5" y="49.5" type="curve" smooth="yes"/>
      <point x="491.5" y="53.1667"/>
      <point x="501.333" y="55"/>
      <point x="500" y="55" type="curve"/>
      <point x="500" y="255" type="line" smooth="yes"/>
      <point x="500" y="268.333"/>
      <point x="493" y="275.333"/>
      <point x="479" y="276" type="curve" smooth="yes"/>
      <point x="412" y="281" type="line"/>
      <point x="412" y="324" type="line"/>
      <point x="673" y="324" type="line"/>
    </contour>
  </outline>
</glyph>
<glyph name="I" format="2">
  <advance width="330"/>
  <unicode hex="0049"/>
  <outline>
    <contour>
      <point x="297" y="0" type="line"/>
      <point x="33" y="0" type="line"/>
      <point x="33" y="43" type="line"/>
      <point x="93" y="47" type="line" smooth="yes"/>
      <point x="107" y="47.6667"/>
      <point x="114" y="55"/>
      <point x="114" y="69" type="curve" smooth="yes"/>
      <point x="114" y="602" type="line" smooth="yes"/>
      <point x="114" y="615.333"/>
      <point x="107" y="622.333"/>
      <point x="93" y="623" type="curve" smooth="yes"/>
      <point x="33" y="627" type="line"/>
      <point x="33" y="671" type="line"/>
      <point x="297" y="671" type="line"/>
      <point x="297" y="627" type="line"/>
      <point x="236" y="623" type="line" smooth="yes"/>
      <point x="222" y="622.333"/>
      <point x="215" y="615.333"/>
      <point x="215" y="602" type="curve" smooth="yes"/>
      <point x="215" y="69" type="line" smooth="yes"/>
      <point x="215" y="55"/>
      <point x="222" y="47.6667"/>
      <point x="236" y="47" type="curve" smooth="yes"/>
      <point x="297" y="43" type="line"/>
    </contour>
  </outline>
</glyph>
<glyph name="J" format="2">
  <advance width="479"/>
  <unicode hex="004A"/>
  <outline>
    <contour>
      <point x="459" y="628" type="line"/>
      <point x="401" y="624" type="line" smooth="yes"/>
      <point x="387" y="623.333"/>
      <point x="380" y="616"/>
      <point x="380" y="602" type="curve" smooth="yes"/>
      <point x="380" y="253" type="line" smooth="yes"/>
      <point x="380" y="166.333"/>
      <point x="363.667" y="101.333"/>
      <point x="331" y="58" type="curve" smooth="yes"/>
      <point x="295.667" y="11.3333"/>
      <point x="238.667" y="-12"/>
      <point x="160" y="-12" type="curve" smooth="yes"/>
      <point x="118.667" y="-12"/>
      <point x="73.6667" y="-4"/>
      <point x="25" y="12" type="curve"/>
      <point x="25" y="183" type="line"/>
      <point x="85" y="183" type="line"/>
      <point x="107" y="61" type="line" smooth="yes"/>
      <point x="109.667" y="46.3333"/>
      <point x="125" y="39"/>
      <point x="153" y="39" type="curve" smooth="yes"/>
      <point x="197.667" y="39"/>
      <point x="230" y="55.8333"/>
      <point x="250" y="89.5" type="curve" smooth="yes"/>
      <point x="270" y="123.167"/>
      <point x="280" y="175.333"/>
      <point x="280" y="246" type="curve" smooth="yes"/>
      <point x="280" y="602" type="line" smooth="yes"/>
      <point x="280" y="616"/>
      <point x="273" y="623.333"/>
      <point x="259" y="624" type="curve" smooth="yes"/>
      <point x="196" y="628" type="line"/>
      <point x="196" y="671" type="line"/>
      <point x="459" y="671" type="line"/>
    </contour>
  </outline>
</glyph>
<glyph name="K" format="2">
  <advance width="638"/>
  <unicode hex="004B"/>
  <outline>
    <contour>
      <point x="638" y="0" type="line"/>
      <point x="463" y="0" type="line"/>
      <point x="463" y="31" type="line"/>
      <point x="277" y="298" type="line"/>
      <point x="208" y="298" type="line"/>
      <point x="207" y="69" type="line" smooth="yes"/>
      <point x="207" y="55"/>
      <point x="214.333" y="47.6667"/>
      <point x="229" y="47" type="curve" smooth="yes"/>
      <point x="286" y="43" type="line"/>
      <point x="286" y="0" type="line"/>
      <point x="32" y="0" type="line"/>
      <point x="32" y="43" type="line"/>
      <point x="85" y="47" type="line" smooth="yes"/>
      <point x="99" y="47.6667"/>
      <point x="106" y="55"/>
      <point x="106" y="69" type="curve" smooth="yes"/>
      <point x="106" y="602" type="line" smooth="yes"/>
      <point x="106" y="616"/>
      <point x="99" y="623.333"/>
      <point x="85" y="624" type="curve" smooth="yes"/>
      <point x="32" y="628" type="line"/>
      <point x="32" y="671" type="line"/>
      <point x="286" y="671" type="line"/>
      <point x="286" y="628" type="line"/>
      <point x="229" y="624" type="line" smooth="yes"/>
      <point x="214.333" y="623.333"/>
      <point x="207" y="616"/>
      <point x="207" y="602" type="curve" smooth="yes"/>
      <point x="208" y="340" type="line"/>
      <point x="243" y="340" type="line"/>
      <point x="461" y="606" type="line" smooth="yes"/>
      <point x="463" y="608.667"/>
      <point x="463" y="612.333"/>
      <point x="461" y="617" type="curve" smooth="yes"/>
      <point x="459" y="621"/>
      <point x="456.333" y="623"/>
      <point x="453" y="623" type="curve" smooth="yes"/>
      <point x="402" y="628" type="line"/>
      <point x="402" y="671" type="line"/>
      <point x="614" y="671" type="line"/>
      <point x="614" y="628" type="line"/>
      <point x="546" y="620" type="line"/>
      <point x="342" y="376" type="line"/>
      <point x="566" y="48" type="line"/>
      <point x="638" y="43" type="line"/>
    </contour>
  </outline>
</glyph>
<glyph name="M" format="2">
  <advance width="871"/>
  <unicode hex="004D"/>
  <outline>
    <contour>
      <point x="841" y="0" type="line"/>
      <point x="593" y="0" type="line"/>
      <point x="593" y="43" type="line"/>
      <point x="646" y="47" type="line" smooth="yes"/>
      <point x="660.667" y="47.6667"/>
      <point x="668" y="55"/>
      <point x="668" y="69" type="curve" smooth="yes"/>
      <point x="668" y="620" type="line"/>
      <point x="438" y="0" type="line"/>
      <point x="388" y="0" type="line"/>
      <point x="166" y="611" type="line"/>
      <point x="166" y="69" type="line" smooth="yes"/>
      <point x="166" y="55"/>
      <point x="173.333" y="47.6667"/>
      <point x="188" y="47" type="curve" smooth="yes"/>
      <point x="245" y="43" type="line"/>
      <point x="245" y="0" type="line"/>
      <point x="29" y="0" type="line"/>
      <point x="29" y="43" type="line"/>
      <point x="86" y="47" type="line" smooth="yes"/>
      <point x="100" y="47.6667"/>
      <point x="107" y="55"/>
      <point x="107" y="69" type="curve" smooth="yes"/>
      <point x="107" y="602" type="line" smooth="yes"/>
      <point x="107" y="616"/>
      <point x="100" y="623.333"/>
      <point x="86" y="624" type="curve" smooth="yes"/>
      <point x="29" y="628" type="line"/>
      <point x="29" y="671" type="line"/>
      <point x="253" y="671" type="line"/>
      <point x="253" y="644" type="line"/>
      <point x="434" y="153" type="line"/>
      <point x="615" y="641" type="line"/>
      <point x="615" y="671" type="line"/>
      <point x="841" y="671" type="line"/>
      <point x="841" y="628" type="line"/>
      <point x="787" y="624" type="line" smooth="yes"/>
      <point x="772.333" y="623.333"/>
      <point x="765" y="616"/>
      <point x="765" y="602" type="curve" smooth="yes"/>
      <point x="765" y="69" type="line" smooth="yes"/>
      <point x="765" y="55"/>
      <point x="772.333" y="47.6667"/>
      <point x="787" y="47" type="curve" smooth="yes"/>
      <point x="841" y="43" type="line"/>
    </contour>
  </outline>
</glyph>
<glyph name="N" format="2">
  <advance width="715"/>
  <unicode hex="004E"/>
  <outline>
    <contour>
      <point x="692" y="628" type="line"/>
      <point x="636" y="624" type="line" smooth="yes"/>
      <point x="622" y="623.333"/>
      <point x="615" y="616"/>
      <point x="615" y="602" type="curve" smooth="yes"/>
      <point x="615" y="0" type="line"/>
      <point x="537" y="0" type="line"/>
      <point x="165" y="560" type="line"/>
      <point x="165" y="69" type="line" smooth="yes"/>
      <point x="165" y="55"/>
      <point x="172" y="47.6667"/>
      <point x="186" y="47" type="curve" smooth="yes"/>
      <point x="243" y="43" type="line"/>
      <point x="243" y="0" type="line"/>
      <point x="27" y="0" type="line"/>
      <point x="27" y="43" type="line"/>
      <point x="84" y="47" type="line" smooth="yes"/>
      <point x="98.6667" y="47.6667"/>
      <point x="106" y="55"/>
      <point x="106" y="69" type="curve" smooth="yes"/>
      <point x="106" y="602" type="line" smooth="yes"/>
      <point x="106" y="616"/>
      <point x="98.6667" y="623.333"/>
      <point x="84" y="624" type="curve" smooth="yes"/>
      <point x="25" y="628" type="line"/>
      <point x="25" y="671" type="line"/>
      <point x="223" y="671" type="line"/>
      <point x="223" y="646" type="line"/>
      <point x="556" y="143" type="line"/>
      <point x="556" y="602" type="line" smooth="yes"/>
      <point x="556" y="616"/>
      <point x="549" y="623.333"/>
      <point x="535" y="624" type="curve" smooth="yes"/>
      <point x="478" y="628" type="line"/>
      <point x="478" y="671" type="line"/>
      <point x="692" y="671" type="line"/>
    </contour>
  </outline>
</glyph>
<glyph name="P" format="2">
  <advance width="564"/>
  <unicode hex="0050"/>
  <outline>
    <contour>
      <point x="540" y="469" type="curve" smooth="yes"/>
      <point x="540" y="398.333"/>
      <point x="514.667" y="343.667"/>
      <point x="464" y="305" type="curve" smooth="yes"/>
      <point x="416.667" y="269"/>
      <point x="355" y="251"/>
      <point x="279" y="251" type="curve" smooth="yes"/>
      <point x="243.667" y="251"/>
      <point x="220" y="252.333"/>
      <point x="208" y="255" type="curve"/>
      <point x="208" y="69" type="line" smooth="yes"/>
      <point x="208" y="55"/>
      <point x="215" y="47.6667"/>
      <point x="229" y="47" type="curve" smooth="yes"/>
      <point x="295" y="43" type="line"/>
      <point x="295" y="0" type="line"/>
      <point x="32" y="0" type="line"/>
      <point x="32" y="43" type="line"/>
      <point x="85" y="47" type="line" smooth="yes"/>
      <point x="99.6667" y="47.6667"/>
      <point x="107" y="55"/>
      <point x="107" y="69" type="curve" smooth="yes"/>
      <point x="107" y="602" type="line" smooth="yes"/>
      <point x="107" y="616"/>
      <point x="99.6667" y="623.333"/>
      <point x="85" y="624" type="curve" smooth="yes"/>
      <point x="25" y="628" type="line"/>
      <point x="25" y="671" type="line"/>
      <point x="264" y="671" type="line" smooth="yes"/>
      <point x="360.667" y="671"/>
      <point x="430.333" y="655.667"/>
      <point x="473" y="625" type="curve" smooth="yes"/>
      <point x="517.667" y="593.667"/>
      <point x="540" y="541.667"/>
    </contour>
    <contour>
      <point x="436" y="468" type="curve" smooth="yes"/>
      <point x="436" y="570.667"/>
      <point x="377" y="622"/>
      <point x="259" y="622" type="curve" smooth="yes"/>
      <point x="247" y="622"/>
      <point x="230" y="621.667"/>
      <point x="208" y="621" type="curve"/>
      <point x="208" y="306" type="line"/>
      <point x="208" y="306"/>
      <point x="208" y="306"/>
      <point x="230.5" y="303.5" type="curve" smooth="yes"/>
      <point x="245.5" y="301.833"/>
      <point x="256.667" y="301"/>
      <point x="264" y="301" type="curve" smooth="yes"/>
      <point x="378.667" y="300.333"/>
      <point x="436" y="356"/>
    </contour>
  </outline>
</glyph>
<glyph name="Q" format="2">
  <advance width="742"/>
  <unicode hex="0051"/>
  <outline>
    <contour>
      <point x="703" y="335" type="curve" smooth="yes"/>
      <point x="703" y="244.333"/>
      <point x="678.667" y="168"/>
      <point x="630" y="106" type="curve" smooth="yes"/>
      <point x="580" y="44"/>
      <point x="512.333" y="6"/>
      <point x="427" y="-8" type="curve"/>
      <point x="427.667" y="-87.3333"/>
      <point x="473.667" y="-127"/>
      <point x="565" y="-127" type="curve" smooth="yes"/>
      <point x="597" y="-127"/>
      <point x="629" y="-123.333"/>
      <point x="661" y="-116" type="curve"/>
      <point x="661" y="-159" type="line"/>
      <point x="609" y="-170.333"/>
      <point x="559.667" y="-176"/>
      <point x="513" y="-176" type="curve" smooth="yes"/>
      <point x="384.333" y="-176"/>
      <point x="320" y="-120.667"/>
      <point x="320" y="-10" type="curve"/>
      <point x="237.333" y="2"/>
      <point x="171" y="38"/>
      <point x="121" y="98" type="curve" smooth="yes"/>
      <point x="68.3333" y="160.667"/>
      <point x="42" y="239.667"/>
      <point x="42" y="335" type="curve" smooth="yes"/>
      <point x="42" y="435"/>
      <point x="71.6667" y="518.333"/>
      <point x="131" y="585" type="curve" smooth="yes"/>
      <point x="193" y="653.667"/>
      <point x="273" y="688"/>
      <point x="371" y="688" type="curve" smooth="yes"/>
      <point x="470.333" y="688"/>
      <point x="551" y="653.667"/>
      <point x="613" y="585" type="curve" smooth="yes"/>
      <point x="673" y="519"/>
      <point x="703" y="435.667"/>
    </contour>
    <contour>
      <point x="585" y="335" type="curve" smooth="yes"/>
      <point x="585" y="419.667"/>
      <point x="568" y="488.667"/>
      <point x="534" y="542" type="curve" smooth="yes"/>
      <point x="496" y="601.333"/>
      <point x="442" y="631.333"/>
      <point x="372" y="632" type="curve" smooth="yes"/>
      <point x="302.667" y="632"/>
      <point x="249" y="602.667"/>
      <point x="211" y="544" type="curve" smooth="yes"/>
      <point x="176.333" y="490.667"/>
      <point x="159" y="421.667"/>
      <point x="159" y="337" type="curve" smooth="yes"/>
      <point x="159" y="253.667"/>
      <point x="176.667" y="184.667"/>
      <point x="212" y="130" type="curve" smooth="yes"/>
      <point x="250.667" y="71.3333"/>
      <point x="304" y="42"/>
      <point x="372" y="42" type="curve" smooth="yes"/>
      <point x="440.667" y="42"/>
      <point x="494.333" y="71"/>
      <point x="533" y="129" type="curve" smooth="yes"/>
      <point x="567.667" y="183"/>
      <point x="585" y="251.667"/>
    </contour>
  </outline>
</glyph>
<glyph name="R" format="2">
  <advance width="649"/>
  <unicode hex="0052"/>
  <outline>
    <contour>
      <point x="650" y="1" type="line"/>
      <point x="603.333" y="-4.33333"/>
      <point x="581.333" y="-7"/>
      <point x="584" y="-7" type="curve"/>
      <point x="530.667" y="-7"/>
      <point x="493.167" y="4.66667"/>
      <point x="471.5" y="28" type="curve" smooth="yes"/>
      <point x="449.833" y="51.3333"/>
      <point x="431.667" y="89.3333"/>
      <point x="417" y="142" type="curve" smooth="yes"/>
      <point x="401.667" y="197.333"/>
      <point x="386.667" y="234.333"/>
      <point x="372" y="253" type="curve" smooth="yes"/>
      <point x="348.667" y="283.667"/>
      <point x="309" y="299"/>
      <point x="253" y="299" type="curve" smooth="yes"/>
      <point x="244.333" y="299"/>
      <point x="234.5" y="298.667"/>
      <point x="223.5" y="298" type="curve" smooth="yes"/>
      <point x="212.5" y="297.333"/>
      <point x="207.333" y="297"/>
      <point x="208" y="297" type="curve"/>
      <point x="208" y="69" type="line" smooth="yes"/>
      <point x="208" y="55"/>
      <point x="215" y="47.6667"/>
      <point x="229" y="47" type="curve" smooth="yes"/>
      <point x="282" y="43" type="line"/>
      <point x="282" y="0" type="line"/>
      <point x="33" y="0" type="line"/>
      <point x="33" y="43" type="line"/>
      <point x="85" y="47" type="line" smooth="yes"/>
      <point x="99.6667" y="47.6667"/>
      <point x="107" y="55"/>
      <point x="107" y="69" type="curve" smooth="yes"/>
      <point x="107" y="602" type="line" smooth="yes"/>
      <point x="107" y="616"/>
      <point x="99.6667" y="623.333"/>
      <point x="85" y="624" type="curve" smooth="yes"/>
      <point x="33" y="628" type="line"/>
      <point x="33" y="671" type="line"/>
      <point x="294" y="671" type="line" smooth="yes"/>
      <point x="457.333" y="671"/>
      <point x="539" y="611.667"/>
      <point x="539" y="493" type="curve" smooth="yes"/>
      <point x="539" y="406.333"/>
      <point x="484.333" y="350.667"/>
      <point x="375" y="326" type="curve"/>
      <point x="415.667" y="316"/>
      <point x="444.333" y="301.333"/>
      <point x="461" y="282" type="curve" smooth="yes"/>
      <point x="482.333" y="256.667"/>
      <point x="499" y="219.667"/>
      <point x="511" y="171" type="curve" smooth="yes"/>
      <point x="523" y="122.333"/>
      <point x="537.167" y="88.6667"/>
      <point x="553.5" y="70" type="curve" smooth="yes"/>
      <point x="569.833" y="51.3333"/>
      <point x="602" y="42"/>
      <point x="650" y="42" type="curve"/>
    </contour>
    <contour>
      <point x="430" y="489" type="curve" smooth="yes"/>
      <point x="430" y="577.667"/>
      <point x="371.333" y="622"/>
      <point x="254" y="622" type="curve" smooth="yes"/>
      <point x="208" y="622" type="line"/>
      <point x="208" y="348" type="line"/>
      <point x="234.667" y="347.333"/>
      <point x="251.333" y="347"/>
      <point x="258" y="347" type="curve" smooth="yes"/>
      <point x="316" y="347"/>
      <point x="358.667" y="357.333"/>
      <point x="386" y="378" type="curve" smooth="yes"/>
      <point x="415.333" y="400.667"/>
      <point x="430" y="437.667"/>
    </contour>
  </outline>
</glyph>
<glyph name="S" format="2">
  <advance width="529"/>
  <unicode hex="0053"/>
  <outline>
    <contour>
      <point x="487" y="188" type="curve" smooth="yes"/>
      <point x="487" y="132.667"/>
      <point x="466.333" y="86.6667"/>
      <point x="425" y="50" type="curve" smooth="yes"/>
      <point x="377.667" y="8.66667"/>
      <point x="310" y="-12"/>
      <point x="222" y="-12" type="curve" smooth="yes"/>
      <point x="155.333" y="-12"/>
      <point x="96" y="-1"/>
      <point x="44" y="21" type="curve"/>
      <point x="44" y="198" type="line"/>
      <point x="107" y="198" type="line"/>
      <point x="120" y="85" type="line" smooth="yes"/>
      <point x="121.333" y="74.3333"/>
      <point x="127" y="67"/>
      <point x="137" y="63" type="curve" smooth="yes"/>
      <point x="169" y="50.3333"/>
      <point x="202.667" y="44"/>
      <point x="238" y="44" type="curve" smooth="yes"/>
      <point x="281.333" y="44"/>
      <point x="316.667" y="54"/>
      <point x="344" y="74" type="curve" smooth="yes"/>
      <point x="371.333" y="94"/>
      <point x="385" y="122"/>
      <point x="385" y="158" type="curve" smooth="yes"/>
      <point x="385" y="192.667"/>
      <point x="364.667" y="224"/>
      <point x="324" y="252" type="curve" smooth="yes"/>
      <point x="310.667" y="261.333"/>
      <point x="272.333" y="281"/>
      <point x="209" y="311" type="curve" smooth="yes"/>
      <point x="157.667" y="335.667"/>
      <point x="122" y="357.667"/>
      <point x="102" y="377" type="curve" smooth="yes"/>
      <point x="71.3333" y="407"/>
      <point x="55.6667" y="445"/>
      <point x="55" y="491" type="curve" smooth="yes"/>
      <point x="55" y="549"/>
      <point x="77" y="596"/>
      <point x="121" y="632" type="curve" smooth="yes"/>
      <point x="163.667" y="666"/>
      <point x="218.667" y="683"/>
      <point x="286" y="683" type="curve" smooth="yes"/>
      <point x="340" y="683"/>
      <point x="398.667" y="673"/>
      <point x="462" y="653" type="curve"/>
      <point x="462" y="497" type="line"/>
      <point x="405" y="497" type="line"/>
      <point x="390" y="593" type="line" smooth="yes"/>
      <point x="389.333" y="599.667"/>
      <point x="384.333" y="605.333"/>
      <point x="375" y="610" type="curve"/>
      <point x="356.333" y="622.667"/>
      <point x="327" y="629"/>
      <point x="287" y="629" type="curve" smooth="yes"/>
      <point x="247" y="629"/>
      <point x="215.5" y="618.5"/>
      <point x="192.5" y="597.5" type="curve" smooth="yes"/>
      <point x="169.5" y="576.5"/>
      <point x="158" y="549"/>
      <point x="158" y="515" type="curve" smooth="yes"/>
      <point x="158" y="461.667"/>
      <point x="204.333" y="417.667"/>
      <point x="297" y="383" type="curve" smooth="yes"/>
      <point x="362.333" y="358.333"/>
      <point x="409" y="332.667"/>
      <point x="437" y="306" type="curve" smooth="yes"/>
      <point x="470.333" y="274.667"/>
      <point x="487" y="235.333"/>
    </contour>
  </outline>
</glyph>
<glyph name="U" format="2">
  <advance width="704"/>
  <unicode hex="0055"/>
  <outline>
    <contour>
      <point x="682" y="628" type="line"/>
      <point x="625" y="624" type="line" smooth="yes"/>
      <point x="611" y="623.333"/>
      <point x="604" y="616"/>
      <point x="604" y="602" type="curve" smooth="yes"/>
      <point x="604" y="222" type="line" smooth="yes"/>
      <point x="604" y="66"/>
      <point x="518" y="-12"/>
      <point x="346" y="-12" type="curve" smooth="yes"/>
      <point x="180" y="-12"/>
      <point x="97" y="66"/>
      <point x="97" y="222" type="curve" smooth="yes"/>
      <point x="97" y="602" type="line" smooth="yes"/>
      <point x="97" y="616"/>
      <point x="90" y="623.333"/>
      <point x="76" y="624" type="curve" smooth="yes"/>
      <point x="23" y="628" type="line"/>
      <point x="23" y="671" type="line"/>
      <point x="282" y="671" type="line"/>
      <point x="282" y="628" type="line"/>
      <point x="225" y="624" type="line" smooth="yes"/>
      <point x="211" y="623.333"/>
      <point x="204" y="616"/>
      <point x="204" y="602" type="curve" smooth="yes"/>
      <point x="204" y="248" type="line" smooth="yes"/>
      <point x="204" y="184"/>
      <point x="215" y="137.333"/>
      <point x="237" y="108" type="curve" smooth="yes"/>
      <point x="263.667" y="72.6667"/>
      <point x="309.333" y="55"/>
      <point x="374" y="55" type="curve" smooth="yes"/>
      <point x="438.667" y="55"/>
      <point x="484.333" y="73.3333"/>
      <point x="511" y="110" type="curve" smooth="yes"/>
      <point x="533.667" y="140"/>
      <point x="545" y="186"/>
      <point x="545" y="248" type="curve" smooth="yes"/>
      <point x="545" y="602" type="line" smooth="yes"/>
      <point x="545" y="616"/>
      <point x="537.667" y="623.333"/>
      <point x="523" y="624" type="curve" smooth="yes"/>
      <point x="466" y="628" type="line"/>
      <point x="466" y="671" type="line"/>
      <point x="682" y="671" type="line"/>
    </contour>
  </outline>
</glyph>
<glyph name="V" format="2">
  <advance width="666"/>
  <unicode hex="0056"/>
  <outline>
    <contour>
      <point x="656" y="628" type="line"/>
      <point x="598" y="617" type="line"/>
      <point x="374" y="-5" type="line"/>
      <point x="298" y="-5" type="line"/>
      <point x="261.333" y="92.3333"/>
      <point x="185" y="300"/>
      <point x="69" y="618" type="curve"/>
      <point x="10" y="628" type="line"/>
      <point x="10" y="671" type="line"/>
      <point x="249" y="671" type="line"/>
      <point x="249" y="628" type="line"/>
      <point x="190" y="623" type="line" smooth="yes"/>
      <point x="186.667" y="623"/>
      <point x="184" y="620.833"/>
      <point x="182" y="616.5" type="curve" smooth="yes"/>
      <point x="180" y="612.167"/>
      <point x="179.667" y="608.333"/>
      <point x="181" y="605" type="curve" smooth="yes"/>
      <point x="357" y="117" type="line"/>
      <point x="526" y="603" type="line" smooth="yes"/>
      <point x="527.333" y="607"/>
      <point x="526.5" y="611.333"/>
      <point x="523.5" y="616" type="curve" smooth="yes"/>
      <point x="520.5" y="620.667"/>
      <point x="516.667" y="623"/>
      <point x="512" y="623" type="curve" smooth="yes"/>
      <point x="457" y="628" type="line"/>
      <point x="457" y="671" type="line"/>
      <point x="656" y="671" type="line"/>
    </contour>
  </outline>
</glyph>
<glyph name="W" format="2">
  <advance width="931"/>
  <unicode hex="0057"/>
  <outline>
    <contour>
      <point x="921" y="628" type="line"/>
      <point x="860" y="616" type="line"/>
      <point x="707" y="-5" type="line"/>
      <point x="634" y="-5" type="line"/>
      <point x="467" y="538" type="line"/>
      <point x="303" y="-5" type="line"/>
      <point x="231" y="-5" type="line"/>
      <point x="68" y="616" type="line"/>
      <point x="10" y="628" type="line"/>
      <point x="10" y="671" type="line"/>
      <point x="239" y="671" type="line"/>
      <point x="239" y="628" type="line"/>
      <point x="179" y="622" type="line" smooth="yes"/>
      <point x="169" y="621.333"/>
      <point x="165.667" y="614.667"/>
      <point x="169" y="602" type="curve" smooth="yes"/>
      <point x="288" y="157" type="line"/>
      <point x="445" y="671" type="line"/>
      <point x="522" y="671" type="line"/>
      <point x="683" y="146" type="line"/>
      <point x="794" y="602" type="line" smooth="yes"/>
      <point x="796.667" y="614"/>
      <point x="792" y="620.667"/>
      <point x="780" y="622" type="curve" smooth="yes"/>
      <point x="717" y="628" type="line"/>
      <point x="717" y="671" type="line"/>
      <point x="921" y="671" type="line"/>
    </contour>
  </outline>
</glyph>
<glyph name="X" format="2">
  <advance width="632"/>
  <unicode hex="0058"/>
  <outline>
    <contour>
      <point x="624" y="0" type="line"/>
      <point x="367" y="0" type="line"/>
      <point x="367" y="43" type="line"/>
      <point x="425" y="49" type="line" smooth="yes"/>
      <point x="434.333" y="49.6667"/>
      <point x="439" y="54.3333"/>
      <point x="439" y="63" type="curve" smooth="yes"/>
      <point x="439" y="65"/>
      <point x="438.333" y="67.3333"/>
      <point x="437" y="70" type="curve" smooth="yes"/>
      <point x="304" y="279" type="line"/>
      <point x="150" y="67" type="line" smooth="yes"/>
      <point x="142" y="55.6667"/>
      <point x="146" y="49.3333"/>
      <point x="162" y="48" type="curve" smooth="yes"/>
      <point x="222" y="43" type="line"/>
      <point x="222" y="0" type="line"/>
      <point x="10" y="0" type="line"/>
      <point x="10" y="43" type="line"/>
      <point x="70" y="55" type="line"/>
      <point x="271" y="331" type="line"/>
      <point x="89" y="617" type="line"/>
      <point x="23" y="629" type="line"/>
      <point x="23" y="671" type="line"/>
      <point x="274" y="671" type="line"/>
      <point x="274" y="629" type="line"/>
      <point x="223" y="624" type="line" smooth="yes"/>
      <point x="207.667" y="622.667"/>
      <point x="203.667" y="616"/>
      <point x="211" y="604" type="curve" smooth="yes"/>
      <point x="333" y="415" type="line"/>
      <point x="468" y="601" type="line" smooth="yes"/>
      <point x="470" y="603.667"/>
      <point x="471" y="606.333"/>
      <point x="471" y="609" type="curve" smooth="yes"/>
      <point x="471" y="616.333"/>
      <point x="466.333" y="620.667"/>
      <point x="457" y="622" type="curve" smooth="yes"/>
      <point x="406" y="629" type="line"/>
      <point x="406" y="671" type="line"/>
      <point x="615" y="671" type="line"/>
      <point x="615" y="629" type="line"/>
      <point x="551" y="619" type="line"/>
      <point x="365" y="363" type="line"/>
      <point x="562" y="55" type="line"/>
      <point x="624" y="43" type="line"/>
    </contour>
  </outline>
</glyph>
<glyph name="Y" format="2">
  <advance width="625"/>
  <unicode hex="0059"/>
  <outline>
    <contour>
      <point x="615" y="629" type="line"/>
      <point x="561" y="619" type="line"/>
      <point x="360" y="285" type="line"/>
      <point x="360" y="69" type="line" smooth="yes"/>
      <point x="360" y="55"/>
      <point x="367" y="47.6667"/>
      <point x="381" y="47" type="curve" smooth="yes"/>
      <point x="445" y="43" type="line"/>
      <point x="445" y="0" type="line"/>
      <point x="176" y="0" type="line"/>
      <point x="176" y="43" type="line"/>
      <point x="238" y="47" type="line" smooth="yes"/>
      <point x="252.667" y="47.6667"/>
      <point x="260" y="55"/>
      <point x="260" y="69" type="curve" smooth="yes"/>
      <point x="260" y="270" type="line"/>
      <point x="68" y="617" type="line"/>
      <point x="10" y="629" type="line"/>
      <point x="10" y="671" type="line"/>
      <point x="247" y="671" type="line"/>
      <point x="247" y="629" type="line"/>
      <point x="197" y="624" type="line" smooth="yes"/>
      <point x="183" y="622.667"/>
      <point x="179" y="616"/>
      <point x="185" y="604" type="curve" smooth="yes"/>
      <point x="325" y="342" type="line"/>
      <point x="480" y="601" type="line" smooth="yes"/>
      <point x="481.333" y="603"/>
      <point x="482" y="605.333"/>
      <point x="482" y="608" type="curve" smooth="yes"/>
      <point x="482" y="616"/>
      <point x="477.333" y="620.667"/>
      <point x="468" y="622" type="curve" smooth="yes"/>
      <point x="412" y="629" type="line"/>
      <point x="412" y="671" type="line"/>
      <point x="615" y="671" type="line"/>
    </contour>
  </outline>
</glyph>
<glyph name="Z" format="2">
  <advance width="586"/>
  <unicode hex="005A"/>
  <outline>
    <contour>
      <point x="542" y="0" type="line"/>
      <point x="45" y="0" type="line"/>
      <point x="45" y="44" type="line"/>
      <point x="417" y="621" type="line"/>
      <point x="157" y="621" type="line" smooth="yes"/>
      <point x="147.667" y="621"/>
      <point x="142" y="615.333"/>
      <point x="140" y="604" type="curve" smooth="yes"/>
      <point x="125" y="511" type="line"/>
      <point x="66" y="511" type="line"/>
      <point x="66" y="671" type="line"/>
      <point x="537" y="671" type="line"/>
      <point x="537" y="625" type="line"/>
      <point x="164" y="51" type="line"/>
      <point x="449" y="51" type="line" smooth="yes"/>
      <point x="458.333" y="51"/>
      <point x="464" y="57"/>
      <point x="466" y="69" type="curve" smooth="yes"/>
      <point x="483" y="185" type="line"/>
      <point x="542" y="185" type="line"/>
    </contour>
  </outline>
</glyph>
<glyph name="bracketleft" format="2">
  <advance width="319"/>
  <unicode hex="005B"/>
  <outline>
    <contour>
      <point x="286" y="-341" type="line"/>
      <point x="85" y="-341" type="line"/>
      <point x="85" y="823" type="line"/>
      <point x="286" y="823" type="line"/>
      <point x="286" y="802" type="line"/>
      <point x="158" y="802" type="line"/>
      <point x="158" y="-320" type="line"/>
      <point x="286" y="-320" type="line"/>
    </contour>
  </outline>
</glyph>
<glyph name="backslash" format="2">
  <advance width="500"/>
  <unicode hex="005C"/>
  <outline>
    <contour>
      <point x="500" y="-50" type="line"/>
      <point x="436" y="-50" type="line"/>
      <point x="0" y="731" type="line"/>
      <point x="66" y="731" type="line"/>
    </contour>
  </outline>
</glyph>
<glyph name="bracketright" format="2">
  <advance width="319"/>
  <unicode hex="005D"/>
  <outline>
    <contour>
      <point x="235" y="-341" type="line"/>
      <point x="34" y="-341" type="line"/>
      <point x="34" y="-320" type="line"/>
      <point x="162" y="-320" type="line"/>
      <point x="162" y="802" type="line"/>
      <point x="34" y="802" type="line"/>
      <point x="34" y="823" type="line"/>
      <point x="235" y="823" type="line"/>
    </contour>
  </outline>
</glyph>
<glyph name="asciicircum" format="2">
  <advance width="958"/>
  <unicode hex="005E"/>
  <outline>
    <contour>
      <point x="740" y="11" type="line"/>
      <point x="677" y="11" type="line"/>
      <point x="479" y="499" type="line"/>
      <point x="280" y="11" type="line"/>
      <point x="218" y="11" type="line"/>
      <point x="454" y="586" type="line"/>
      <point x="505" y="586" type="line"/>
    </contour>
  </outline>
</glyph>
<glyph name="grave" format="2">
  <advance width="350"/>
  <unicode hex="0060"/>
  <outline>
    <contour>
      <point x="232" y="551" type="line"/>
      <point x="175" y="551" type="line"/>
      <point x="23" y="648" type="line" smooth="yes"/>
      <point x="7.66667" y="658"/>
      <point x="0" y="671.333"/>
      <point x="0" y="688" type="curve" smooth="yes"/>
      <point x="0" y="718"/>
      <point x="15.3333" y="733"/>
      <point x="46" y="733" type="curve" smooth="yes"/>
      <point x="65.3333" y="733"/>
      <point x="82.6667" y="724"/>
      <point x="98" y="706" type="curve" smooth="yes"/>
    </contour>
  </outline>
</glyph>
<glyph name="a" format="2">
  <advance width="512"/>
  <unicode hex="0061"/>
  <outline>
    <contour>
      <point x="500" y="0" type="line"/>
      <point x="350" y="0" type="line"/>
      <point x="337" y="59" type="line"/>
      <point x="275" y="14.3333"/>
      <point x="220" y="-8"/>
      <point x="172" y="-8" type="curve" smooth="yes"/>
      <point x="134.667" y="-8"/>
      <point x="104" y="3.33333"/>
      <point x="80" y="26" type="curve" smooth="yes"/>
      <point x="54.6667" y="50"/>
      <point x="42" y="82.3333"/>
      <point x="42" y="123" type="curve" smooth="yes"/>
      <point x="42" y="164.333"/>
      <point x="58.3333" y="197"/>
      <point x="91" y="221" type="curve" smooth="yes"/>
      <point x="133" y="251"/>
      <point x="215" y="279"/>
      <point x="337" y="305" type="curve"/>
      <point x="337" y="348" type="line" smooth="yes"/>
      <point x="337" y="414"/>
      <point x="306.667" y="447"/>
      <point x="246" y="447" type="curve" smooth="yes"/>
      <point x="219.333" y="447"/>
      <point x="195.667" y="442.667"/>
      <point x="175" y="434" type="curve"/>
      <point x="175" y="347" type="line"/>
      <point x="102" y="347" type="line" smooth="yes"/>
      <point x="77.3333" y="347"/>
      <point x="65" y="356.667"/>
      <point x="65" y="376" type="curve" smooth="yes"/>
      <point x="65" y="414"/>
      <point x="87.3333" y="443.667"/>
      <point x="132" y="465" type="curve" smooth="yes"/>
      <point x="170.667" y="483.667"/>
      <point x="217.667" y="493"/>
      <point x="273" y="493" type="curve" smooth="yes"/>
      <point x="378.333" y="493"/>
      <point x="431" y="443.333"/>
      <point x="431" y="344" type="curve" smooth="yes"/>
      <point x="431" y="64" type="line" smooth="yes"/>
      <point x="431" y="50"/>
      <point x="438" y="42.6667"/>
      <point x="452" y="42" type="curve" smooth="yes"/>
      <point x="500" y="39" type="line"/>
    </contour>
    <contour>
      <point x="337" y="94" type="curve"/>
      <point x="337" y="267" type="line"/>
      <point x="255" y="246.333"/>
      <point x="199.667" y="224"/>
      <point x="171" y="200" type="curve" smooth="yes"/>
      <point x="151" y="182.667"/>
      <point x="141" y="159.333"/>
      <point x="141" y="130" type="curve" smooth="yes"/>
      <point x="141" y="108"/>
      <point x="147.667" y="89.6667"/>
      <point x="161" y="75" type="curve" smooth="yes"/>
      <point x="175" y="59"/>
      <point x="193.333" y="51"/>
      <point x="216" y="51" type="curve" smooth="yes"/>
      <point x="248.667" y="51"/>
      <point x="289" y="65.3333"/>
    </contour>
  </outline>
</glyph>
<glyph name="b" format="2">
  <advance width="549"/>
  <unicode hex="0062"/>
  <outline>
    <contour>
      <point x="516" y="264" type="curve" smooth="yes"/>
      <point x="516" y="184.667"/>
      <point x="493.333" y="122"/>
      <point x="448" y="76" type="curve" smooth="yes"/>
      <point x="398.667" y="25.3333"/>
      <point x="326" y="0"/>
      <point x="230" y="0" type="curve" smooth="yes"/>
      <point x="86" y="0" type="line"/>
      <point x="86" y="665" type="line"/>
      <point x="10" y="665" type="line"/>
      <point x="10" y="698" type="line"/>
      <point x="138" y="737" type="line"/>
      <point x="179" y="737" type="line"/>
      <point x="179" y="456" type="line"/>
      <point x="231" y="480.667"/>
      <point x="277" y="493"/>
      <point x="317" y="493" type="curve" smooth="yes"/>
      <point x="379.667" y="493"/>
      <point x="429.333" y="470.333"/>
      <point x="466" y="425" type="curve" smooth="yes"/>
      <point x="499.333" y="382.333"/>
      <point x="516" y="328.667"/>
    </contour>
    <contour>
      <point x="415" y="244" type="curve" smooth="yes"/>
      <point x="415" y="370.667"/>
      <point x="363.667" y="434"/>
      <point x="261" y="434" type="curve" smooth="yes"/>
      <point x="235" y="434"/>
      <point x="207.667" y="429"/>
      <point x="179" y="419" type="curve"/>
      <point x="179" y="48" type="line"/>
      <point x="178.333" y="48"/>
      <point x="184.333" y="47.8333"/>
      <point x="197" y="47.5" type="curve" smooth="yes"/>
      <point x="209.667" y="47.1667"/>
      <point x="220" y="47"/>
      <point x="228" y="47" type="curve" smooth="yes"/>
      <point x="290" y="47"/>
      <point x="336" y="61.6667"/>
      <point x="366" y="91" type="curve" smooth="yes"/>
      <point x="398.667" y="123"/>
      <point x="415" y="174"/>
    </contour>
  </outline>
</glyph>
<glyph name="c" format="2">
  <advance width="470"/>
  <unicode hex="0063"/>
  <outline>
    <contour>
      <point x="435" y="41" type="line"/>
      <point x="374.333" y="8.33333"/>
      <point x="318" y="-8"/>
      <point x="266" y="-8" type="curve" smooth="yes"/>
      <point x="196.667" y="-8"/>
      <point x="141.167" y="14.8333"/>
      <point x="99.5" y="60.5" type="curve" smooth="yes"/>
      <point x="57.8333" y="106.167"/>
      <point x="37" y="165.333"/>
      <point x="37" y="238" type="curve" smooth="yes"/>
      <point x="37" y="318.667"/>
      <point x="61" y="382.333"/>
      <point x="109" y="429" type="curve" smooth="yes"/>
      <point x="153.667" y="471.667"/>
      <point x="210" y="493"/>
      <point x="278" y="493" type="curve" smooth="yes"/>
      <point x="323.333" y="493"/>
      <point x="360.333" y="484.333"/>
      <point x="389" y="467" type="curve" smooth="yes"/>
      <point x="418.333" y="449"/>
      <point x="433" y="424.333"/>
      <point x="433" y="393" type="curve" smooth="yes"/>
      <point x="433" y="374.333"/>
      <point x="427.167" y="360"/>
      <point x="415.5" y="350" type="curve" smooth="yes"/>
      <point x="403.833" y="340"/>
      <point x="390" y="335"/>
      <point x="374" y="335" type="curve" smooth="yes"/>
      <point x="357.333" y="335"/>
      <point x="340.667" y="340.333"/>
      <point x="324" y="351" type="curve"/>
      <point x="324" y="439" type="line"/>
      <point x="310" y="447"/>
      <point x="296" y="451"/>
      <point x="282" y="451" type="curve" smooth="yes"/>
      <point x="238" y="451"/>
      <point x="203.167" y="432.333"/>
      <point x="177.5" y="395" type="curve" smooth="yes"/>
      <point x="151.833" y="357.667"/>
      <point x="139" y="309.667"/>
      <point x="139" y="251" type="curve" smooth="yes"/>
      <point x="139" y="193"/>
      <point x="153" y="146.333"/>
      <point x="181" y="111" type="curve" smooth="yes"/>
      <point x="210.333" y="73.6667"/>
      <point x="251.667" y="55"/>
      <point x="305" y="55" type="curve" smooth="yes"/>
      <point x="347.667" y="55"/>
      <point x="391" y="69.3333"/>
      <point x="435" y="98" type="curve"/>
    </contour>
  </outline>
</glyph>
<glyph name="d" format="2">
  <advance width="562"/>
  <unicode hex="0064"/>
  <outline>
    <contour>
      <point x="542" y="0" type="line"/>
      <point x="384" y="0" type="line"/>
      <point x="384" y="53" type="line"/>
      <point x="330.667" y="12.3333"/>
      <point x="279" y="-8"/>
      <point x="229" y="-8" type="curve" smooth="yes"/>
      <point x="166.333" y="-8"/>
      <point x="117.667" y="17.3333"/>
      <point x="83" y="68" type="curve" smooth="yes"/>
      <point x="52.3333" y="111.333"/>
      <point x="37" y="164.667"/>
      <point x="37" y="228" type="curve" smooth="yes"/>
      <point x="37" y="301.333"/>
      <point x="58" y="362.667"/>
      <point x="100" y="412" type="curve" smooth="yes"/>
      <point x="146.667" y="466.667"/>
      <point x="210.667" y="493.667"/>
      <point x="292" y="493" type="curve" smooth="yes"/>
      <point x="323.333" y="493"/>
      <point x="354" y="489.333"/>
      <point x="384" y="482" type="curve"/>
      <point x="384" y="665" type="line"/>
      <point x="308" y="665" type="line"/>
      <point x="308" y="698" type="line"/>
      <point x="437" y="737" type="line"/>
      <point x="478" y="737" type="line"/>
      <point x="478" y="64" type="line" smooth="yes"/>
      <point x="478" y="50"/>
      <point x="485" y="42.6667"/>
      <point x="499" y="42" type="curve" smooth="yes"/>
      <point x="542" y="39" type="line"/>
    </contour>
    <contour>
      <point x="384" y="91" type="curve"/>
      <point x="384" y="431" type="line"/>
      <point x="356" y="441"/>
      <point x="327.667" y="446"/>
      <point x="299" y="446" type="curve" smooth="yes"/>
      <point x="249.667" y="446"/>
      <point x="210.167" y="427.667"/>
      <point x="180.5" y="391" type="curve" smooth="yes"/>
      <point x="150.833" y="354.333"/>
      <point x="136" y="305.667"/>
      <point x="136" y="245" type="curve" smooth="yes"/>
      <point x="136" y="189.667"/>
      <point x="148.667" y="145.333"/>
      <point x="174" y="112" type="curve" smooth="yes"/>
      <point x="200" y="77.3333"/>
      <point x="235.667" y="60"/>
      <point x="281" y="60" type="curve" smooth="yes"/>
      <point x="316.333" y="60"/>
      <point x="350.667" y="70.3333"/>
    </contour>
  </outline>
</glyph>
<glyph name="f" format="2">
  <advance width="326"/>
  <unicode hex="0066"/>
  <outline>
    <contour>
      <point x="389" y="684" type="curve" smooth="yes"/>
      <point x="389" y="656.667"/>
      <point x="373.667" y="638.667"/>
      <point x="343" y="630" type="curve"/>
      <point x="341.667" y="631.333"/>
      <point x="326.167" y="642.5"/>
      <point x="296.5" y="663.5" type="curve" smooth="yes"/>
      <point x="266.833" y="684.5"/>
      <point x="251.667" y="695.333"/>
      <point x="251" y="696" type="curve" smooth="yes"/>
      <point x="213" y="676.667"/>
      <point x="193.667" y="626.333"/>
      <point x="193" y="545" type="curve" smooth="yes"/>
      <point x="192" y="469" type="line"/>
      <point x="316" y="469" type="line"/>
      <point x="316" y="419" type="line"/>
      <point x="192" y="419" type="line"/>
      <point x="192" y="64" type="line" smooth="yes"/>
      <point x="192" y="50"/>
      <point x="199" y="42.6667"/>
      <point x="213" y="42" type="curve" smooth="yes"/>
      <point x="272" y="39" type="line"/>
      <point x="272" y="0" type="line"/>
      <point x="29" y="0" type="line"/>
      <point x="29" y="39" type="line"/>
      <point x="78" y="42" type="line" smooth="yes"/>
      <point x="92" y="42.6667"/>
      <point x="99" y="50"/>
      <point x="99" y="64" type="curve" smooth="yes"/>
      <point x="99" y="419" type="line"/>
      <point x="35" y="419" type="line"/>
      <point x="35" y="453" type="line"/>
      <point x="99" y="471" type="line"/>
      <point x="99" y="536.333"/>
      <point x="110.333" y="590.667"/>
      <point x="133" y="634" type="curve" smooth="yes"/>
      <point x="171.667" y="707.333"/>
      <point x="228.333" y="744"/>
      <point x="303" y="744" type="curve" smooth="yes"/>
      <point x="330.333" y="744"/>
      <point x="352" y="738"/>
      <point x="368" y="726" type="curve" smooth="yes"/>
      <point x="382" y="714.667"/>
      <point x="389" y="700.667"/>
    </contour>
  </outline>
</glyph>
<glyph name="g" format="2">
  <advance width="529"/>
  <unicode hex="0067"/>
  <outline>
    <contour>
      <point x="513" y="415" type="line"/>
      <point x="413" y="415" type="line"/>
      <point x="431" y="386.333"/>
      <point x="440" y="356.333"/>
      <point x="440" y="325" type="curve" smooth="yes"/>
      <point x="440" y="277"/>
      <point x="420.333" y="238"/>
      <point x="381" y="208" type="curve" smooth="yes"/>
      <point x="344.333" y="180"/>
      <point x="298.667" y="166.333"/>
      <point x="244" y="167" type="curve" smooth="yes"/>
      <point x="234" y="167"/>
      <point x="234" y="167"/>
      <point x="224" y="167" type="curve"/>
      <point x="210.667" y="145.667"/>
      <point x="208" y="123.333"/>
      <point x="216" y="100" type="curve"/>
      <point x="284.667" y="93.3333"/>
      <point x="321.667" y="87.6667"/>
      <point x="327" y="83" type="curve"/>
      <point x="433.667" y="67"/>
      <point x="487" y="26"/>
      <point x="487" y="-40" type="curve" smooth="yes"/>
      <point x="487" y="-88"/>
      <point x="461.667" y="-129.5"/>
      <point x="411" y="-164.5" type="curve" smooth="yes"/>
      <point x="360.333" y="-199.5"/>
      <point x="299" y="-217"/>
      <point x="227" y="-217" type="curve" smooth="yes"/>
      <point x="167.667" y="-217"/>
      <point x="121.5" y="-205.5"/>
      <point x="88.5" y="-182.5" type="curve" smooth="yes"/>
      <point x="55.5" y="-159.5"/>
      <point x="39" y="-127.667"/>
      <point x="39" y="-87" type="curve" smooth="yes"/>
      <point x="39" y="-57"/>
      <point x="47.6667" y="-31"/>
      <point x="65" y="-9" type="curve" smooth="yes"/>
      <point x="83.6667" y="13.6667"/>
      <point x="110.333" y="28"/>
      <point x="145" y="34" type="curve"/>
      <point x="138.333" y="54.6667"/>
      <point x="135" y="70"/>
      <point x="135" y="80" type="curve" smooth="yes"/>
      <point x="135" y="108"/>
      <point x="151.667" y="139.333"/>
      <point x="185" y="174" type="curve"/>
      <point x="149.667" y="182"/>
      <point x="120.667" y="198.667"/>
      <point x="98" y="224" type="curve" smooth="yes"/>
      <point x="73.3333" y="252"/>
      <point x="61" y="285.333"/>
      <point x="61" y="324" type="curve" smooth="yes"/>
      <point x="61" y="376"/>
      <point x="79.3333" y="417.167"/>
      <point x="116" y="447.5" type="curve" smooth="yes"/>
      <point x="152.667" y="477.833"/>
      <point x="201.333" y="493"/>
      <point x="262" y="493" type="curve" smooth="yes"/>
      <point x="296.667" y="493"/>
      <point x="335.333" y="483.333"/>
      <point x="378" y="464" type="curve"/>
      <point x="513" y="464" type="line"/>
    </contour>
    <contour>
      <point x="345" y="331" type="curve" smooth="yes"/>
      <point x="345" y="364.333"/>
      <point x="337" y="392.333"/>
      <point x="321" y="415" type="curve" smooth="yes"/>
      <point x="303.667" y="439.667"/>
      <point x="280.667" y="452"/>
      <point x="252" y="452" type="curve" smooth="yes"/>
      <point x="224" y="452"/>
      <point x="201.167" y="441.167"/>
      <point x="183.5" y="419.5" type="curve" smooth="yes"/>
      <point x="165.833" y="397.833"/>
      <point x="157" y="368"/>
      <point x="157" y="330" type="curve" smooth="yes"/>
      <point x="157" y="294.667"/>
      <point x="165" y="266"/>
      <point x="181" y="244" type="curve" smooth="yes"/>
      <point x="197.667" y="220"/>
      <point x="221.333" y="208"/>
      <point x="252" y="208" type="curve" smooth="yes"/>
      <point x="280.667" y="208"/>
      <point x="303.667" y="220"/>
      <point x="321" y="244" type="curve" smooth="yes"/>
      <point x="337" y="266.667"/>
      <point x="345" y="295.667"/>
    </contour>
    <contour>
      <point x="401" y="-67" type="curve" smooth="yes"/>
      <point x="401" y="-45.6667"/>
      <point x="395" y="-29.5"/>
      <point x="383" y="-18.5" type="curve" smooth="yes"/>
      <point x="371" y="-7.5"/>
      <point x="348.333" y="1"/>
      <point x="315" y="7" type="curve" smooth="yes"/>
      <point x="281.667" y="13"/>
      <point x="245" y="19.6667"/>
      <point x="205" y="27" type="curve"/>
      <point x="154.333" y="9"/>
      <point x="129" y="-22.3333"/>
      <point x="129" y="-67" type="curve" smooth="yes"/>
      <point x="129" y="-94.3333"/>
      <point x="139.667" y="-117.333"/>
      <point x="161" y="-136" type="curve" smooth="yes"/>
      <point x="185" y="-158.667"/>
      <point x="218" y="-170"/>
      <point x="260" y="-170" type="curve" smooth="yes"/>
      <point x="304" y="-170"/>
      <point x="339.333" y="-158.667"/>
      <point x="366" y="-136" type="curve" smooth="yes"/>
      <point x="389.333" y="-116.667"/>
      <point x="401" y="-93.6667"/>
    </contour>
  </outline>
</glyph>
<glyph name="h" format="2">
  <advance width="571"/>
  <unicode hex="0068"/>
  <outline>
    <contour>
      <point x="554" y="0" type="line"/>
      <point x="332" y="0" type="line"/>
      <point x="332" y="39" type="line"/>
      <point x="373" y="42" type="line" smooth="yes"/>
      <point x="387.667" y="42.6667"/>
      <point x="395" y="50"/>
      <point x="395" y="64" type="curve" smooth="yes"/>
      <point x="395" y="322" type="line" smooth="yes"/>
      <point x="395" y="388"/>
      <point x="362" y="421"/>
      <point x="296" y="421" type="curve" smooth="yes"/>
      <point x="258.667" y="421"/>
      <point x="222.667" y="411.333"/>
      <point x="188" y="392" type="curve"/>
      <point x="188" y="64" type="line" smooth="yes"/>
      <point x="188" y="50"/>
      <point x="194.667" y="42.6667"/>
      <point x="208" y="42" type="curve" smooth="yes"/>
      <point x="251" y="39" type="line"/>
      <point x="251" y="0" type="line"/>
      <point x="25" y="0" type="line"/>
      <point x="25" y="39" type="line"/>
      <point x="73" y="42" type="line" smooth="yes"/>
      <point x="87" y="42.6667"/>
      <point x="94" y="50"/>
      <point x="94" y="64" type="curve" smooth="yes"/>
      <point x="94" y="665" type="line"/>
      <point x="19" y="665" type="line"/>
      <point x="19" y="698" type="line"/>
      <point x="147" y="737" type="line"/>
      <point x="188" y="737" type="line"/>
      <point x="188" y="432" type="line"/>
      <point x="254.667" y="472.667"/>
      <point x="309.333" y="493"/>
      <point x="352" y="493" type="curve" smooth="yes"/>
      <point x="392.667" y="493"/>
      <point x="424.667" y="481"/>
      <point x="448" y="457" type="curve" smooth="yes"/>
      <point x="474" y="430.333"/>
      <point x="487" y="392.333"/>
      <point x="487" y="343" type="curve" smooth="yes"/>
      <point x="487" y="64" type="line" smooth="yes"/>
      <point x="487" y="50"/>
      <point x="494.333" y="42.6667"/>
      <point x="509" y="42" type="curve" smooth="yes"/>
      <point x="554" y="39" type="line"/>
    </contour>
  </outline>
</glyph>
<glyph name="i" format="2">
  <advance width="303"/>
  <unicode hex="0069"/>
  <outline>
    <contour>
      <point x="218" y="646" type="curve" smooth="yes"/>
      <point x="218" y="628.667"/>
      <point x="212.167" y="614"/>
      <point x="200.5" y="602" type="curve" smooth="yes"/>
      <point x="188.833" y="590"/>
      <point x="174.333" y="584"/>
      <point x="157" y="584" type="curve" smooth="yes"/>
      <point x="140.333" y="584"/>
      <point x="125.833" y="590.167"/>
      <point x="113.5" y="602.5" type="curve" smooth="yes"/>
      <point x="101.167" y="614.833"/>
      <point x="95" y="629.333"/>
      <point x="95" y="646" type="curve" smooth="yes"/>
      <point x="95" y="662.667"/>
      <point x="101.167" y="677"/>
      <point x="113.5" y="689" type="curve" smooth="yes"/>
      <point x="125.833" y="701"/>
      <point x="140.333" y="707"/>
      <point x="157" y="707" type="curve" smooth="yes"/>
      <point x="173.667" y="707"/>
      <point x="188" y="701"/>
      <point x="200" y="689" type="curve" smooth="yes"/>
      <point x="212" y="677"/>
      <point x="218" y="662.667"/>
    </contour>
    <contour>
      <point x="269" y="0" type="line"/>
      <point x="34" y="0" type="line"/>
      <point x="34" y="39" type="line"/>
      <point x="83" y="42" type="line" smooth="yes"/>
      <point x="97" y="42.6667"/>
      <point x="104" y="50"/>
      <point x="104" y="64" type="curve" smooth="yes"/>
      <point x="104" y="421" type="line"/>
      <point x="35" y="421" type="line"/>
      <point x="35" y="455" type="line"/>
      <point x="157" y="493" type="line"/>
      <point x="197" y="493" type="line"/>
      <point x="197" y="64" type="line" smooth="yes"/>
      <point x="197" y="50"/>
      <point x="204" y="42.6667"/>
      <point x="218" y="42" type="curve" smooth="yes"/>
      <point x="269" y="39" type="line"/>
    </contour>
  </outline>
</glyph>
<glyph name="j" format="2">
  <advance width="308"/>
  <unicode hex="006A"/>
  <outline>
    <contour>
      <point x="213" y="646" type="curve" smooth="yes"/>
      <point x="213" y="629.333"/>
      <point x="207" y="614.833"/>
      <point x="195" y="602.5" type="curve" smooth="yes"/>
      <point x="183" y="590.167"/>
      <point x="168.667" y="584"/>
      <point x="152" y="584" type="curve" smooth="yes"/>
      <point x="135.333" y="584"/>
      <point x="120.833" y="590.167"/>
      <point x="108.5" y="602.5" type="curve" smooth="yes"/>
      <point x="96.1667" y="614.833"/>
      <point x="90" y="629.333"/>
      <point x="90" y="646" type="curve" smooth="yes"/>
      <point x="90" y="662.667"/>
      <point x="96" y="677"/>
      <point x="108" y="689" type="curve" smooth="yes"/>
      <point x="120" y="701"/>
      <point x="134.667" y="707"/>
      <point x="152" y="707" type="curve" smooth="yes"/>
      <point x="168.667" y="707"/>
      <point x="183" y="701"/>
      <point x="195" y="689" type="curve" smooth="yes"/>
      <point x="207" y="677"/>
      <point x="213" y="662.667"/>
    </contour>
    <contour>
      <point x="202" y="76" type="line" smooth="yes"/>
      <point x="202" y="-17.3333"/>
      <point x="189" y="-84"/>
      <point x="163" y="-124" type="curve" smooth="yes"/>
      <point x="122.333" y="-186.667"/>
      <point x="67" y="-218"/>
      <point x="-3" y="-218" type="curve" smooth="yes"/>
      <point x="-53.6667" y="-218"/>
      <point x="-79" y="-199.333"/>
      <point x="-79" y="-162" type="curve" smooth="yes"/>
      <point x="-79" y="-133.333"/>
      <point x="-64.6667" y="-114"/>
      <point x="-36" y="-104" type="curve"/>
      <point x="61" y="-171" type="line"/>
      <point x="93" y="-153"/>
      <point x="109" y="-99"/>
      <point x="109" y="-9" type="curve" smooth="yes"/>
      <point x="109" y="417" type="line"/>
      <point x="38" y="417" type="line"/>
      <point x="38" y="450" type="line"/>
      <point x="161" y="488" type="line"/>
      <point x="202" y="488" type="line"/>
    </contour>
  </outline>
</glyph>
<glyph name="k" format="2">
  <advance width="539"/>
  <unicode hex="006B"/>
  <outline>
    <contour>
      <point x="529" y="0" type="line"/>
      <point x="374" y="0" type="line"/>
      <point x="374" y="35" type="line"/>
      <point x="244" y="227" type="line"/>
      <point x="188" y="227" type="line"/>
      <point x="188" y="64" type="line" smooth="yes"/>
      <point x="188" y="50"/>
      <point x="195" y="42.6667"/>
      <point x="209" y="42" type="curve" smooth="yes"/>
      <point x="252" y="39" type="line"/>
      <point x="252" y="0" type="line"/>
      <point x="25" y="0" type="line"/>
      <point x="25" y="39" type="line"/>
      <point x="74" y="42" type="line" smooth="yes"/>
      <point x="88" y="42.6667"/>
      <point x="95" y="50"/>
      <point x="95" y="64" type="curve" smooth="yes"/>
      <point x="95" y="665" type="line"/>
      <point x="19" y="665" type="line"/>
      <point x="19" y="698" type="line"/>
      <point x="147" y="737" type="line"/>
      <point x="188" y="737" type="line"/>
      <point x="188" y="256" type="line"/>
      <point x="208" y="256" type="line"/>
      <point x="355" y="423" type="line" smooth="yes"/>
      <point x="357.667" y="425.667"/>
      <point x="358" y="429"/>
      <point x="356" y="433" type="curve" smooth="yes"/>
      <point x="354.667" y="437"/>
      <point x="351.667" y="439.333"/>
      <point x="347" y="440" type="curve" smooth="yes"/>
      <point x="306" y="444" type="line"/>
      <point x="306" y="482" type="line"/>
      <point x="500" y="482" type="line"/>
      <point x="500" y="444" type="line"/>
      <point x="436" y="437" type="line"/>
      <point x="304" y="295" type="line"/>
      <point x="476" y="45" type="line"/>
      <point x="529" y="39" type="line"/>
    </contour>
  </outline>
</glyph>
<glyph name="l" format="2">
  <advance width="296"/>
  <unicode hex="006C"/>
  <outline>
    <contour>
      <point x="270" y="0" type="line"/>
      <point x="27" y="0" type="line"/>
      <point x="27" y="39" type="line"/>
      <point x="80" y="42" type="line" smooth="yes"/>
      <point x="84.6667" y="42"/>
      <point x="89.5" y="44.3333"/>
      <point x="94.5" y="49" type="curve" smooth="yes"/>
      <point x="99.5" y="53.6667"/>
      <point x="102" y="58.3333"/>
      <point x="102" y="63" type="curve" smooth="yes"/>
      <point x="102" y="665" type="line"/>
      <point x="26" y="665" type="line"/>
      <point x="26" y="698" type="line"/>
      <point x="154" y="737" type="line"/>
      <point x="195" y="737" type="line"/>
      <point x="195" y="63" type="line" smooth="yes"/>
      <point x="195" y="58.3333"/>
      <point x="197.333" y="53.6667"/>
      <point x="202" y="49" type="curve" smooth="yes"/>
      <point x="206.667" y="44.3333"/>
      <point x="211.333" y="42"/>
      <point x="216" y="42" type="curve" smooth="yes"/>
      <point x="270" y="39" type="line"/>
    </contour>
  </outline>
</glyph>
<glyph name="m" format="2">
  <advance width="854"/>
  <unicode hex="006D"/>
  <outline>
    <contour>
      <point x="837" y="0" type="line"/>
      <point x="612" y="0" type="line"/>
      <point x="612" y="39" type="line"/>
      <point x="653" y="42" type="line" smooth="yes"/>
      <point x="667" y="42.6667"/>
      <point x="674" y="50"/>
      <point x="674" y="64" type="curve" smooth="yes"/>
      <point x="674" y="319" type="line" smooth="yes"/>
      <point x="674" y="387"/>
      <point x="644.333" y="421"/>
      <point x="585" y="421" type="curve" smooth="yes"/>
      <point x="551.667" y="421"/>
      <point x="516.333" y="411.333"/>
      <point x="479" y="392" type="curve"/>
      <point x="479" y="64" type="line" smooth="yes"/>
      <point x="479" y="50"/>
      <point x="486" y="42.6667"/>
      <point x="500" y="42" type="curve" smooth="yes"/>
      <point x="542" y="39" type="line"/>
      <point x="542" y="0" type="line"/>
      <point x="323" y="0" type="line"/>
      <point x="323" y="39" type="line"/>
      <point x="365" y="42" type="line" smooth="yes"/>
      <point x="379" y="42.6667"/>
      <point x="386" y="50"/>
      <point x="386" y="64" type="curve" smooth="yes"/>
      <point x="386" y="324" type="line" smooth="yes"/>
      <point x="386" y="388.667"/>
      <point x="356.667" y="421"/>
      <point x="298" y="421" type="curve" smooth="yes"/>
      <point x="260.667" y="421"/>
      <point x="225" y="411.333"/>
      <point x="191" y="392" type="curve"/>
      <point x="191" y="64" type="line" smooth="yes"/>
      <point x="191" y="50"/>
      <point x="198" y="42.6667"/>
      <point x="212" y="42" type="curve" smooth="yes"/>
      <point x="254" y="39" type="line"/>
      <point x="254" y="0" type="line"/>
      <point x="28" y="0" type="line"/>
      <point x="28" y="39" type="line"/>
      <point x="77" y="42" type="line" smooth="yes"/>
      <point x="91" y="42.6667"/>
      <point x="98" y="50"/>
      <point x="98" y="64" type="curve" smooth="yes"/>
      <point x="98" y="417" type="line"/>
      <point x="29" y="417" type="line"/>
      <point x="29" y="450" type="line"/>
      <point x="150" y="488" type="line"/>
      <point x="191" y="488" type="line"/>
      <point x="191" y="432" type="line"/>
      <point x="259" y="472.667"/>
      <point x="313.333" y="493"/>
      <point x="354" y="493" type="curve" smooth="yes"/>
      <point x="404" y="493"/>
      <point x="440.667" y="470.333"/>
      <point x="464" y="425" type="curve"/>
      <point x="536.667" y="470.333"/>
      <point x="594.333" y="493"/>
      <point x="637" y="493" type="curve" smooth="yes"/>
      <point x="684.333" y="493"/>
      <point x="719.333" y="476"/>
      <point x="742" y="442" type="curve" smooth="yes"/>
      <point x="759.333" y="416"/>
      <point x="768" y="382.333"/>
      <point x="768" y="341" type="curve" smooth="yes"/>
      <point x="768" y="64" type="line" smooth="yes"/>
      <point x="768" y="50"/>
      <point x="775" y="42.6667"/>
      <point x="789" y="42" type="curve" smooth="yes"/>
      <point x="837" y="39" type="line"/>
    </contour>
  </outline>
</glyph>
<glyph name="n" format="2">
  <advance width="577"/>
  <unicode hex="006E"/>
  <outline>
    <contour>
      <point x="552" y="0" type="line"/>
      <point x="331" y="0" type="line"/>
      <point x="331" y="39" type="line"/>
      <point x="373" y="42" type="line" smooth="yes"/>
      <point x="387" y="42.6667"/>
      <point x="394" y="50"/>
      <point x="394" y="64" type="curve" smooth="yes"/>
      <point x="394" y="323" type="line" smooth="yes"/>
      <point x="394" y="388.333"/>
      <point x="362" y="421"/>
      <point x="298" y="421" type="curve" smooth="yes"/>
      <point x="263.333" y="421"/>
      <point x="226.667" y="411.333"/>
      <point x="188" y="392" type="curve"/>
      <point x="188" y="64" type="line" smooth="yes"/>
      <point x="188" y="50"/>
      <point x="195" y="42.6667"/>
      <point x="209" y="42" type="curve" smooth="yes"/>
      <point x="251" y="39" type="line"/>
      <point x="251" y="0" type="line"/>
      <point x="25" y="0" type="line"/>
      <point x="25" y="39" type="line"/>
      <point x="74" y="42" type="line" smooth="yes"/>
      <point x="88" y="42.6667"/>
      <point x="95" y="50"/>
      <point x="95" y="64" type="curve" smooth="yes"/>
      <point x="95" y="417" type="line"/>
      <point x="25" y="417" type="line"/>
      <point x="25" y="450" type="line"/>
      <point x="147" y="488" type="line"/>
      <point x="188" y="488" type="line"/>
      <point x="188" y="432" type="line"/>
      <point x="259.333" y="472.667"/>
      <point x="314.333" y="493"/>
      <point x="353" y="493" type="curve" smooth="yes"/>
      <point x="442.333" y="493"/>
      <point x="487" y="442"/>
      <point x="487" y="340" type="curve" smooth="yes"/>
      <point x="487" y="64" type="line" smooth="yes"/>
      <point x="487" y="50"/>
      <point x="494" y="42.6667"/>
      <point x="508" y="42" type="curve" smooth="yes"/>
      <point x="552" y="39" type="line"/>
    </contour>
  </outline>
</glyph>
<glyph name="o" format="2">
  <advance width="547"/>
  <unicode hex="006F"/>
  <outline>
    <contour>
      <point x="513" y="241" type="curve" smooth="yes"/>
      <point x="513" y="169"/>
      <point x="491.333" y="109.667"/>
      <point x="448" y="63" type="curve" smooth="yes"/>
      <point x="404" y="15.6667"/>
      <point x="346" y="-8"/>
      <point x="274" y="-8" type="curve" smooth="yes"/>
      <point x="202" y="-8"/>
      <point x="144.333" y="15.3333"/>
      <point x="101" y="62" type="curve" smooth="yes"/>
      <point x="59" y="108"/>
      <point x="37.6667" y="167.667"/>
      <point x="37" y="241" type="curve" smooth="yes"/>
      <point x="37" y="314.333"/>
      <point x="58.3333" y="374.333"/>
      <point x="101" y="421" type="curve" smooth="yes"/>
      <point x="145" y="469"/>
      <point x="203.333" y="493"/>
      <point x="276" y="493" type="curve" smooth="yes"/>
      <point x="348.667" y="493"/>
      <point x="406.667" y="468.667"/>
      <point x="450" y="420" type="curve" smooth="yes"/>
      <point x="492" y="373.333"/>
      <point x="513" y="313.667"/>
    </contour>
    <contour>
      <point x="409" y="242" type="curve" smooth="yes"/>
      <point x="409" y="300"/>
      <point x="398" y="348"/>
      <point x="376" y="386" type="curve" smooth="yes"/>
      <point x="351.333" y="427.333"/>
      <point x="317.667" y="448"/>
      <point x="275" y="448" type="curve" smooth="yes"/>
      <point x="231" y="448"/>
      <point x="197.333" y="427.333"/>
      <point x="174" y="386" type="curve" smooth="yes"/>
      <point x="152.667" y="348.667"/>
      <point x="142" y="300.667"/>
      <point x="142" y="242" type="curve" smooth="yes"/>
      <point x="142" y="184"/>
      <point x="153" y="136.333"/>
      <point x="175" y="99" type="curve" smooth="yes"/>
      <point x="199" y="57.6667"/>
      <point x="232.333" y="37"/>
      <point x="275" y="37" type="curve" smooth="yes"/>
      <point x="318.333" y="37"/>
      <point x="352" y="57.6667"/>
      <point x="376" y="99" type="curve" smooth="yes"/>
      <point x="398" y="135.667"/>
      <point x="409" y="183.333"/>
    </contour>
  </outline>
</glyph>
<glyph name="p" format="2">
  <advance width="561"/>
  <unicode hex="0070"/>
  <outline>
    <contour>
      <point x="527" y="257" type="curve" smooth="yes"/>
      <point x="527" y="177.667"/>
      <point x="504.5" y="114.5"/>
      <point x="459.5" y="67.5" type="curve" smooth="yes"/>
      <point x="414.5" y="20.5"/>
      <point x="352.667" y="-3"/>
      <point x="274" y="-3" type="curve" smooth="yes"/>
      <point x="252" y="-3"/>
      <point x="222.333" y="0"/>
      <point x="185" y="6" type="curve"/>
      <point x="185" y="-154" type="line" smooth="yes"/>
      <point x="185" y="-166.667"/>
      <point x="192.333" y="-173.667"/>
      <point x="207" y="-175" type="curve" smooth="yes"/>
      <point x="266" y="-180" type="line"/>
      <point x="266" y="-218" type="line"/>
      <point x="23" y="-218" type="line"/>
      <point x="23" y="-180" type="line"/>
      <point x="71" y="-175" type="line" smooth="yes"/>
      <point x="85" y="-173.667"/>
      <point x="92" y="-166.667"/>
      <point x="92" y="-154" type="curve" smooth="yes"/>
      <point x="92" y="417" type="line"/>
      <point x="23" y="417" type="line"/>
      <point x="23" y="450" type="line"/>
      <point x="145" y="488" type="line"/>
      <point x="185" y="488" type="line"/>
      <point x="185" y="432" type="line"/>
      <point x="237.667" y="472.667"/>
      <point x="288" y="493"/>
      <point x="336" y="493" type="curve" smooth="yes"/>
      <point x="390" y="493"/>
      <point x="434.667" y="472.333"/>
      <point x="470" y="431" type="curve" smooth="yes"/>
      <point x="508" y="387"/>
      <point x="527" y="329"/>
    </contour>
    <contour>
      <point x="427" y="243" type="curve" smooth="yes"/>
      <point x="427" y="296.333"/>
      <point x="415.333" y="339.333"/>
      <point x="392" y="372" type="curve" smooth="yes"/>
      <point x="366.667" y="406.667"/>
      <point x="331.667" y="424"/>
      <point x="287" y="424" type="curve" smooth="yes"/>
      <point x="256.333" y="424"/>
      <point x="222.333" y="414"/>
      <point x="185" y="394" type="curve"/>
      <point x="185" y="59" type="line"/>
      <point x="213.667" y="48.3333"/>
      <point x="240.667" y="43"/>
      <point x="266" y="43" type="curve" smooth="yes"/>
      <point x="318" y="43"/>
      <point x="358.667" y="63.3333"/>
      <point x="388" y="104" type="curve" smooth="yes"/>
      <point x="414" y="140.667"/>
      <point x="427" y="187"/>
    </contour>
  </outline>
</glyph>
<glyph name="q" format="2">
  <advance width="541"/>
  <unicode hex="0071"/>
  <outline>
    <contour>
      <point x="537" y="-218" type="line"/>
      <point x="295" y="-218" type="line"/>
      <point x="295" y="-180" type="line"/>
      <point x="354" y="-175" type="line" smooth="yes"/>
      <point x="368" y="-173.667"/>
      <point x="375" y="-166.667"/>
      <point x="375" y="-154" type="curve" smooth="yes"/>
      <point x="375" y="36" type="line"/>
      <point x="321.667" y="10"/>
      <point x="275" y="-3"/>
      <point x="235" y="-3" type="curve" smooth="yes"/>
      <point x="175" y="-3"/>
      <point x="126.667" y="19"/>
      <point x="90" y="63" type="curve" smooth="yes"/>
      <point x="54.6667" y="105.667"/>
      <point x="37" y="161"/>
      <point x="37" y="229" type="curve" smooth="yes"/>
      <point x="37" y="311"/>
      <point x="62.5" y="375.667"/>
      <point x="113.5" y="423" type="curve" smooth="yes"/>
      <point x="164.5" y="470.333"/>
      <point x="235.333" y="494"/>
      <point x="326" y="494" type="curve" smooth="yes"/>
      <point x="375.333" y="494"/>
      <point x="422.667" y="488.667"/>
      <point x="468" y="478" type="curve"/>
      <point x="468" y="-154" type="line" smooth="yes"/>
      <point x="468" y="-166.667"/>
      <point x="475" y="-173.667"/>
      <point x="489" y="-175" type="curve" smooth="yes"/>
      <point x="537" y="-180" type="line"/>
    </contour>
    <contour>
      <point x="375" y="70" type="curve"/>
      <point x="375" y="438" type="line"/>
      <point x="344.333" y="444.667"/>
      <point x="321.333" y="448"/>
      <point x="306" y="448" type="curve" smooth="yes"/>
      <point x="252.667" y="448"/>
      <point x="211" y="429.667"/>
      <point x="181" y="393" type="curve" smooth="yes"/>
      <point x="152.333" y="357"/>
      <point x="138" y="307.667"/>
      <point x="138" y="245" type="curve" smooth="yes"/>
      <point x="138" y="189.667"/>
      <point x="149.667" y="145.333"/>
      <point x="173" y="112" type="curve" smooth="yes"/>
      <point x="199" y="74.6667"/>
      <point x="237.667" y="56"/>
      <point x="289" y="56" type="curve" smooth="yes"/>
      <point x="317.667" y="56"/>
      <point x="346.333" y="60.6667"/>
    </contour>
  </outline>
</glyph>
<glyph name="r" format="2">
  <advance width="395"/>
  <unicode hex="0072"/>
  <outline>
    <contour>
      <point x="386" y="380" type="line"/>
      <point x="347" y="380" type="line"/>
      <point x="331" y="398"/>
      <point x="313" y="407"/>
      <point x="293" y="407" type="curve" smooth="yes"/>
      <point x="262.333" y="407"/>
      <point x="229" y="386.333"/>
      <point x="193" y="345" type="curve"/>
      <point x="193" y="64" type="line" smooth="yes"/>
      <point x="193" y="50"/>
      <point x="200" y="42.6667"/>
      <point x="214" y="42" type="curve" smooth="yes"/>
      <point x="280" y="39" type="line"/>
      <point x="280" y="0" type="line"/>
      <point x="30" y="0" type="line"/>
      <point x="30" y="38" type="line"/>
      <point x="79" y="42" type="line" smooth="yes"/>
      <point x="93" y="42.6667"/>
      <point x="100" y="50"/>
      <point x="100" y="64" type="curve" smooth="yes"/>
      <point x="100" y="417" type="line"/>
      <point x="28" y="417" type="line"/>
      <point x="28" y="450" type="line"/>
      <point x="152" y="488" type="line"/>
      <point x="193" y="488" type="line"/>
      <point x="193" y="393" type="line"/>
      <point x="221.667" y="424.333"/>
      <point x="241.333" y="445"/>
      <point x="252" y="455" type="curve" smooth="yes"/>
      <point x="280" y="480.333"/>
      <point x="304.333" y="493"/>
      <point x="325" y="493" type="curve" smooth="yes"/>
      <point x="348.333" y="493"/>
      <point x="368.667" y="488.333"/>
      <point x="386" y="479" type="curve"/>
    </contour>
  </outline>
</glyph>
<glyph name="s" format="2">
  <advance width="409"/>
  <unicode hex="0073"/>
  <outline>
    <contour>
      <point x="371" y="145" type="curve" smooth="yes"/>
      <point x="371" y="96.3333"/>
      <point x="354.167" y="58.5"/>
      <point x="320.5" y="31.5" type="curve" smooth="yes"/>
      <point x="286.833" y="4.5"/>
      <point x="240" y="-9"/>
      <point x="180" y="-9" type="curve" smooth="yes"/>
      <point x="124" y="-9"/>
      <point x="77.6667" y="-1.66667"/>
      <point x="41" y="13" type="curve"/>
      <point x="41" y="147" type="line"/>
      <point x="92" y="147" type="line"/>
      <point x="104" y="61" type="line"/>
      <point x="129.333" y="44.3333"/>
      <point x="159" y="36"/>
      <point x="193" y="36" type="curve" smooth="yes"/>
      <point x="220.333" y="36"/>
      <point x="242.333" y="43.6667"/>
      <point x="259" y="59" type="curve" smooth="yes"/>
      <point x="275" y="73"/>
      <point x="283" y="90.6667"/>
      <point x="283" y="112" type="curve" smooth="yes"/>
      <point x="283" y="137.333"/>
      <point x="272.333" y="158"/>
      <point x="251" y="174" type="curve" smooth="yes"/>
      <point x="239.667" y="182.667"/>
      <point x="209.667" y="198.667"/>
      <point x="161" y="222" type="curve" smooth="yes"/>
      <point x="121.667" y="240.667"/>
      <point x="93.6667" y="258.667"/>
      <point x="77" y="276" type="curve" smooth="yes"/>
      <point x="57.6667" y="296"/>
      <point x="48" y="320.333"/>
      <point x="48" y="349" type="curve" smooth="yes"/>
      <point x="48" y="393.667"/>
      <point x="63.8333" y="429"/>
      <point x="95.5" y="455" type="curve" smooth="yes"/>
      <point x="127.167" y="481"/>
      <point x="171.333" y="494"/>
      <point x="228" y="494" type="curve" smooth="yes"/>
      <point x="279.333" y="494"/>
      <point x="322" y="486.333"/>
      <point x="356" y="471" type="curve"/>
      <point x="356" y="353" type="line"/>
      <point x="304" y="353" type="line"/>
      <point x="296" y="424" type="line"/>
      <point x="276.667" y="439.333"/>
      <point x="251.333" y="447"/>
      <point x="220" y="447" type="curve" smooth="yes"/>
      <point x="166" y="447"/>
      <point x="139" y="424.667"/>
      <point x="139" y="380" type="curve" smooth="yes"/>
      <point x="139" y="358"/>
      <point x="147" y="340"/>
      <point x="163" y="326" type="curve" smooth="yes"/>
      <point x="177" y="313.333"/>
      <point x="206" y="297"/>
      <point x="250" y="277" type="curve" smooth="yes"/>
      <point x="290" y="259"/>
      <point x="319" y="241"/>
      <point x="337" y="223" type="curve" smooth="yes"/>
      <point x="359.667" y="201"/>
      <point x="371" y="175"/>
    </contour>
  </outline>
</glyph>
<glyph name="t" format="2">
  <advance width="339"/>
  <unicode hex="0074"/>
  <outline>
    <contour>
      <point x="334" y="21" type="line"/>
      <point x="288" y="5"/>
      <point x="242.667" y="-3"/>
      <point x="198" y="-3" type="curve" smooth="yes"/>
      <point x="159.333" y="-3"/>
      <point x="131.833" y="4.5"/>
      <point x="115.5" y="19.5" type="curve" smooth="yes"/>
      <point x="99.1667" y="34.5"/>
      <point x="91" y="61.3333"/>
      <point x="91" y="100" type="curve" smooth="yes"/>
      <point x="91" y="419" type="line"/>
      <point x="27" y="419" type="line"/>
      <point x="27" y="452" type="line"/>
      <point x="95" y="484" type="line"/>
      <point x="140" y="580" type="line"/>
      <point x="184" y="580" type="line"/>
      <point x="184" y="469" type="line"/>
      <point x="325" y="469" type="line"/>
      <point x="325" y="419" type="line"/>
      <point x="184" y="419" type="line"/>
      <point x="184" y="153" type="line" smooth="yes"/>
      <point x="184" y="115"/>
      <point x="190.667" y="88.3333"/>
      <point x="204" y="73" type="curve" smooth="yes"/>
      <point x="216" y="59.6667"/>
      <point x="236" y="53"/>
      <point x="264" y="53" type="curve" smooth="yes"/>
      <point x="288" y="53"/>
      <point x="311.333" y="55.6667"/>
      <point x="334" y="61" type="curve"/>
    </contour>
  </outline>
</glyph>
<glyph name="u" format="2">
  <advance width="568"/>
  <unicode hex="0075"/>
  <outline>
    <contour>
      <point x="548" y="0" type="line"/>
      <point x="390" y="0" type="line"/>
      <point x="390" y="57" type="line"/>
      <point x="333.333" y="13.6667"/>
      <point x="279.667" y="-8"/>
      <point x="229" y="-8" type="curve" smooth="yes"/>
      <point x="137" y="-8"/>
      <point x="91" y="44.6667"/>
      <point x="91" y="150" type="curve" smooth="yes"/>
      <point x="91" y="421" type="line"/>
      <point x="21" y="421" type="line"/>
      <point x="21" y="455" type="line"/>
      <point x="144" y="493" type="line"/>
      <point x="185" y="493" type="line"/>
      <point x="185" y="169" type="line" smooth="yes"/>
      <point x="185" y="96.3333"/>
      <point x="217" y="60"/>
      <point x="281" y="60" type="curve" smooth="yes"/>
      <point x="319.667" y="60"/>
      <point x="356" y="68.6667"/>
      <point x="390" y="86" type="curve"/>
      <point x="390" y="421" type="line"/>
      <point x="320" y="421" type="line"/>
      <point x="320" y="455" type="line"/>
      <point x="442" y="493" type="line"/>
      <point x="482" y="493" type="line"/>
      <point x="482" y="64" type="line" smooth="yes"/>
      <point x="482" y="50"/>
      <point x="489.333" y="42.6667"/>
      <point x="504" y="42" type="curve" smooth="yes"/>
      <point x="548" y="39" type="line"/>
    </contour>
  </outline>
</glyph>
<glyph name="v" format="2">
  <advance width="528"/>
  <unicode hex="0076"/>
  <outline>
    <contour>
      <point x="519" y="444" type="line"/>
      <point x="466" y="438" type="line"/>
      <point x="291" y="0" type="line"/>
      <point x="226" y="0" type="line"/>
      <point x="65" y="438" type="line"/>
      <point x="10" y="444" type="line"/>
      <point x="10" y="482" type="line"/>
      <point x="231" y="482" type="line"/>
      <point x="231" y="444" type="line"/>
      <point x="183" y="441" type="line" smooth="yes"/>
      <point x="177.667" y="441"/>
      <point x="173.333" y="438.667"/>
      <point x="170" y="434" type="curve" smooth="yes"/>
      <point x="166.667" y="429.333"/>
      <point x="166" y="424.333"/>
      <point x="168" y="419" type="curve" smooth="yes"/>
      <point x="280" y="105" type="line"/>
      <point x="403" y="419" type="line" smooth="yes"/>
      <point x="405" y="424.333"/>
      <point x="404.5" y="429.167"/>
      <point x="401.5" y="433.5" type="curve" smooth="yes"/>
      <point x="398.5" y="437.833"/>
      <point x="394.333" y="440.333"/>
      <point x="389" y="441" type="curve" smooth="yes"/>
      <point x="344" y="444" type="line"/>
      <point x="344" y="482" type="line"/>
      <point x="519" y="482" type="line"/>
    </contour>
  </outline>
</glyph>
<glyph name="w" format="2">
  <advance width="783"/>
  <unicode hex="0077"/>
  <outline>
    <contour>
      <point x="773" y="444" type="line"/>
      <point x="722" y="438" type="line"/>
      <point x="585" y="0" type="line"/>
      <point x="514" y="0" type="line"/>
      <point x="396" y="374" type="line"/>
      <point x="264" y="0" type="line"/>
      <point x="193" y="0" type="line"/>
      <point x="65" y="438" type="line"/>
      <point x="10" y="444" type="line"/>
      <point x="10" y="482" type="line"/>
      <point x="229" y="482" type="line"/>
      <point x="229" y="444" type="line"/>
      <point x="182" y="441" type="line" smooth="yes"/>
      <point x="168" y="440.333"/>
      <point x="163" y="433"/>
      <point x="167" y="419" type="curve" smooth="yes"/>
      <point x="250" y="107" type="line"/>
      <point x="379" y="482" type="line"/>
      <point x="450" y="482" type="line"/>
      <point x="566" y="107" type="line"/>
      <point x="658" y="419" type="line" smooth="yes"/>
      <point x="662" y="433"/>
      <point x="657.333" y="440.333"/>
      <point x="644" y="441" type="curve" smooth="yes"/>
      <point x="598" y="444" type="line"/>
      <point x="598" y="482" type="line"/>
      <point x="773" y="482" type="line"/>
    </contour>
  </outline>
</glyph>
<glyph name="x" format="2">
  <advance width="513"/>
  <unicode hex="0078"/>
  <outline>
    <contour>
      <point x="503" y="0" type="line"/>
      <point x="287" y="0" type="line"/>
      <point x="287" y="39" type="line"/>
      <point x="322" y="43" type="line" smooth="yes"/>
      <point x="326" y="43.6667"/>
      <point x="329" y="46"/>
      <point x="331" y="50" type="curve" smooth="yes"/>
      <point x="332.333" y="54"/>
      <point x="332" y="57.6667"/>
      <point x="330" y="61" type="curve" smooth="yes"/>
      <point x="244" y="189" type="line"/>
      <point x="146" y="61" type="line" smooth="yes"/>
      <point x="143.333" y="57.6667"/>
      <point x="142.667" y="54"/>
      <point x="144" y="50" type="curve" smooth="yes"/>
      <point x="145.333" y="46"/>
      <point x="148.333" y="43.6667"/>
      <point x="153" y="43" type="curve" smooth="yes"/>
      <point x="202" y="39" type="line"/>
      <point x="202" y="0" type="line"/>
      <point x="12" y="0" type="line"/>
      <point x="12" y="39" type="line"/>
      <point x="70" y="47" type="line"/>
      <point x="213" y="233" type="line"/>
      <point x="76" y="435" type="line"/>
      <point x="17" y="444" type="line"/>
      <point x="17" y="482" type="line"/>
      <point x="238" y="482" type="line"/>
      <point x="238" y="444" type="line"/>
      <point x="202" y="439" type="line" smooth="yes"/>
      <point x="197.333" y="438.333"/>
      <point x="194" y="436"/>
      <point x="192" y="432" type="curve" smooth="yes"/>
      <point x="190" y="428"/>
      <point x="190.333" y="424.333"/>
      <point x="193" y="421" type="curve" smooth="yes"/>
      <point x="271" y="308" type="line"/>
      <point x="359" y="421" type="line" smooth="yes"/>
      <point x="361.667" y="424.333"/>
      <point x="362" y="428"/>
      <point x="360" y="432" type="curve" smooth="yes"/>
      <point x="358" y="436"/>
      <point x="355" y="438.333"/>
      <point x="351" y="439" type="curve" smooth="yes"/>
      <point x="308" y="444" type="line"/>
      <point x="308" y="482" type="line"/>
      <point x="489" y="482" type="line"/>
      <point x="489" y="444" type="line"/>
      <point x="434" y="435" type="line"/>
      <point x="301" y="263" type="line"/>
      <point x="448" y="47" type="line"/>
      <point x="503" y="39" type="line"/>
    </contour>
  </outline>
</glyph>
<glyph name="z" format="2">
  <advance width="475"/>
  <unicode hex="007A"/>
  <outline>
    <contour>
      <point x="439" y="0" type="line"/>
      <point x="45" y="0" type="line"/>
      <point x="45" y="53" type="line"/>
      <point x="310" y="435" type="line"/>
      <point x="136" y="435" type="line" smooth="yes"/>
      <point x="124.667" y="435"/>
      <point x="118" y="428"/>
      <point x="116" y="414" type="curve" smooth="yes"/>
      <point x="106" y="340" type="line"/>
      <point x="55" y="340" type="line"/>
      <point x="55" y="482" type="line"/>
      <point x="425" y="482" type="line"/>
      <point x="425" y="441" type="line"/>
      <point x="151" y="48" type="line"/>
      <point x="353" y="48" type="line" smooth="yes"/>
      <point x="357" y="48"/>
      <point x="361.5" y="50.6667"/>
      <point x="366.5" y="56" type="curve" smooth="yes"/>
      <point x="371.5" y="61.3333"/>
      <point x="374.333" y="66.6667"/>
      <point x="375" y="72" type="curve" smooth="yes"/>
      <point x="385" y="151" type="line"/>
      <point x="439" y="151" type="line"/>
    </contour>
  </outline>
</glyph>
<glyph name="braceleft" format="2">
  <advance width="624"/>
  <unicode hex="007B"/>
  <outline>
    <contour>
      <point x="536" y="-320" type="line"/>
      <point x="423.333" y="-320"/>
      <point x="349" y="-298.667"/>
      <point x="313" y="-256" type="curve" smooth="yes"/>
      <point x="287.667" y="-226"/>
      <point x="271.667" y="-185.667"/>
      <point x="265" y="-135" type="curve" smooth="yes"/>
      <point x="262.333" y="-113"/>
      <point x="261" y="-65.6667"/>
      <point x="261" y="7" type="curve" smooth="yes"/>
      <point x="261" y="62.3333"/>
      <point x="260" y="100"/>
      <point x="258" y="120" type="curve" smooth="yes"/>
      <point x="253.333" y="165.333"/>
      <point x="242.333" y="197.667"/>
      <point x="225" y="217" type="curve" smooth="yes"/>
      <point x="209.667" y="235"/>
      <point x="186.667" y="246.333"/>
      <point x="156" y="251" type="curve" smooth="yes"/>
      <point x="140" y="253.667"/>
      <point x="113.667" y="255.333"/>
      <point x="77" y="256" type="curve"/>
      <point x="77" y="324" type="line"/>
      <point x="118.333" y="324"/>
      <point x="148.333" y="326.667"/>
      <point x="167" y="332" type="curve" smooth="yes"/>
      <point x="191.667" y="338"/>
      <point x="211" y="348.667"/>
      <point x="225" y="364" type="curve" smooth="yes"/>
      <point x="242.333" y="383.333"/>
      <point x="253.333" y="415.667"/>
      <point x="258" y="461" type="curve" smooth="yes"/>
      <point x="260" y="480.333"/>
      <point x="261" y="518"/>
      <point x="261" y="574" type="curve" smooth="yes"/>
      <point x="261" y="645.333"/>
      <point x="262.333" y="692.333"/>
      <point x="265" y="715" type="curve" smooth="yes"/>
      <point x="271.667" y="765"/>
      <point x="287.667" y="805.333"/>
      <point x="313" y="836" type="curve" smooth="yes"/>
      <point x="348.333" y="878.667"/>
      <point x="422.667" y="900"/>
      <point x="536" y="900" type="curve"/>
      <point x="536" y="840" type="line"/>
      <point x="472.667" y="840"/>
      <point x="429.333" y="825.333"/>
      <point x="406" y="796" type="curve" smooth="yes"/>
      <point x="390.667" y="776.667"/>
      <point x="381" y="745"/>
      <point x="377" y="701" type="curve" smooth="yes"/>
      <point x="375.667" y="685.667"/>
      <point x="375" y="644.667"/>
      <point x="375" y="578" type="curve" smooth="yes"/>
      <point x="375" y="478.667"/>
      <point x="362.667" y="411"/>
      <point x="338" y="375" type="curve" smooth="yes"/>
      <point x="310.667" y="334.333"/>
      <point x="265.667" y="306.333"/>
      <point x="203" y="291" type="curve"/>
      <point x="265.667" y="274.333"/>
      <point x="310.667" y="245.667"/>
      <point x="338" y="205" type="curve" smooth="yes"/>
      <point x="362.667" y="168.333"/>
      <point x="375" y="100.667"/>
      <point x="375" y="2" type="curve" smooth="yes"/>
      <point x="375" y="-63.3333"/>
      <point x="375.667" y="-104.333"/>
      <point x="377" y="-121" type="curve" smooth="yes"/>
      <point x="381" y="-165"/>
      <point x="390.667" y="-196.667"/>
      <point x="406" y="-216" type="curve" smooth="yes"/>
      <point x="428.667" y="-244.667"/>
      <point x="472" y="-259"/>
      <point x="536" y="-259" type="curve"/>
    </contour>
  </outline>
</glyph>
<glyph name="bar" format="2">
  <advance width="500"/>
  <unicode hex="007C"/>
  <outline>
    <contour>
      <point x="285" y="-236" type="line"/>
      <point x="216" y="-236" type="line"/>
      <point x="216" y="764" type="line"/>
      <point x="285" y="764" type="line"/>
    </contour>
  </outline>
</glyph>
<glyph name="braceright" format="2">
  <advance width="624"/>
  <unicode hex="007D"/>
  <outline>
    <contour>
      <point x="547" y="256" type="line"/>
      <point x="510.333" y="256"/>
      <point x="484" y="254.333"/>
      <point x="468" y="251" type="curve" smooth="yes"/>
      <point x="438" y="245.667"/>
      <point x="415" y="234.333"/>
      <point x="399" y="217" type="curve" smooth="yes"/>
      <point x="381.667" y="197.667"/>
      <point x="370.667" y="165.333"/>
      <point x="366" y="120" type="curve" smooth="yes"/>
      <point x="364" y="101.333"/>
      <point x="363" y="63.6667"/>
      <point x="363" y="7" type="curve" smooth="yes"/>
      <point x="363" y="-65.6667"/>
      <point x="361.667" y="-113"/>
      <point x="359" y="-135" type="curve" smooth="yes"/>
      <point x="352.333" y="-185.667"/>
      <point x="336.333" y="-226"/>
      <point x="311" y="-256" type="curve" smooth="yes"/>
      <point x="275" y="-298.667"/>
      <point x="200.667" y="-320"/>
      <point x="88" y="-320" type="curve"/>
      <point x="88" y="-259" type="line"/>
      <point x="152.667" y="-259"/>
      <point x="196.333" y="-244.667"/>
      <point x="219" y="-216" type="curve" smooth="yes"/>
      <point x="234.333" y="-196.667"/>
      <point x="244" y="-165"/>
      <point x="248" y="-121" type="curve" smooth="yes"/>
      <point x="249.333" y="-105"/>
      <point x="250" y="-64"/>
      <point x="250" y="2" type="curve" smooth="yes"/>
      <point x="250" y="101.333"/>
      <point x="262" y="169"/>
      <point x="286" y="205" type="curve" smooth="yes"/>
      <point x="313.333" y="245.667"/>
      <point x="358.667" y="274.333"/>
      <point x="422" y="291" type="curve"/>
      <point x="358.667" y="306.333"/>
      <point x="313.333" y="334.333"/>
      <point x="286" y="375" type="curve" smooth="yes"/>
      <point x="262" y="410.333"/>
      <point x="250" y="478"/>
      <point x="250" y="578" type="curve" smooth="yes"/>
      <point x="250" y="644"/>
      <point x="249.333" y="685"/>
      <point x="248" y="701" type="curve" smooth="yes"/>
      <point x="244.667" y="745"/>
      <point x="235" y="776.667"/>
      <point x="219" y="796" type="curve" smooth="yes"/>
      <point x="195" y="825.333"/>
      <point x="151.333" y="840"/>
      <point x="88" y="840" type="curve"/>
      <point x="88" y="900" type="line"/>
      <point x="201.333" y="900"/>
      <point x="275.667" y="878.667"/>
      <point x="311" y="836" type="curve" smooth="yes"/>
      <point x="336.333" y="806"/>
      <point x="352.333" y="765.667"/>
      <point x="359" y="715" type="curve" smooth="yes"/>
      <point x="361.667" y="692.333"/>
      <point x="363" y="645.333"/>
      <point x="363" y="574" type="curve" smooth="yes"/>
      <point x="363" y="518"/>
      <point x="364" y="480.333"/>
      <point x="366" y="461" type="curve" smooth="yes"/>
      <point x="370.667" y="415.667"/>
      <point x="381.667" y="383.333"/>
      <point x="399" y="364" type="curve" smooth="yes"/>
      <point x="413" y="348"/>
      <point x="432.333" y="337.333"/>
      <point x="457" y="332" type="curve" smooth="yes"/>
      <point x="476.333" y="327.333"/>
      <point x="506.333" y="324.667"/>
      <point x="547" y="324" type="curve"/>
    </contour>
  </outline>
</glyph>
<glyph name="asciitilde" format="2">
  <advance width="833"/>
  <unicode hex="007E"/>
  <outline>
    <contour>
      <point x="747" y="306" type="line"/>
      <point x="679" y="259.333"/>
      <point x="616.333" y="236"/>
      <point x="559" y="236" type="curve" smooth="yes"/>
      <point x="528.333" y="236"/>
      <point x="481.333" y="247.167"/>
      <point x="418" y="269.5" type="curve" smooth="yes"/>
      <point x="354.667" y="291.833"/>
      <point x="305.333" y="303"/>
      <point x="270" y="303" type="curve" smooth="yes"/>
      <point x="219.333" y="303"/>
      <point x="158.333" y="277"/>
      <point x="87" y="225" type="curve"/>
      <point x="87" y="290" type="line"/>
      <point x="153" y="337.333"/>
      <point x="216.333" y="361"/>
      <point x="277" y="361" type="curve" smooth="yes"/>
      <point x="310.333" y="361"/>
      <point x="358.833" y="349.833"/>
      <point x="422.5" y="327.5" type="curve" smooth="yes"/>
      <point x="486.167" y="305.167"/>
      <point x="532" y="294"/>
      <point x="560" y="294" type="curve" smooth="yes"/>
      <point x="614" y="294"/>
      <point x="676.333" y="319.667"/>
      <point x="747" y="371" type="curve"/>
    </contour>
  </outline>
</glyph>
<glyph name="exclamdown" format="2">
  <advance width="337"/>
  <unicode hex="00A1"/>
  <outline>
    <contour>
      <point x="231" y="622" type="curve" smooth="yes"/>
      <point x="231" y="605.333"/>
      <point x="225" y="591"/>
      <point x="213" y="579" type="curve" smooth="yes"/>
      <point x="201" y="567"/>
      <point x="186.667" y="561"/>
      <point x="170" y="561" type="curve" smooth="yes"/>
      <point x="153.333" y="561"/>
      <point x="138.833" y="567"/>
      <point x="126.5" y="579" type="curve" smooth="yes"/>
      <point x="114.167" y="591"/>
      <point x="108" y="605.333"/>
      <point x="108" y="622" type="curve" smooth="yes"/>
      <point x="108" y="638.667"/>
      <point x="114.167" y="653.167"/>
      <point x="126.5" y="665.5" type="curve" smooth="yes"/>
      <point x="138.833" y="677.833"/>
      <point x="153.333" y="684"/>
      <point x="170" y="684" type="curve" smooth="yes"/>
      <point x="186.667" y="684"/>
      <point x="201" y="677.833"/>
      <point x="213" y="665.5" type="curve" smooth="yes"/>
      <point x="225" y="653.167"/>
      <point x="231" y="638.667"/>
    </contour>
    <contour>
      <point x="230" y="69" type="line" smooth="yes"/>
      <point x="230" y="62"/>
      <point x="230" y="62"/>
      <point x="230" y="56" type="curve" smooth="yes"/>
      <point x="230" y="13.3333"/>
      <point x="210" y="-8"/>
      <point x="170" y="-8" type="curve" smooth="yes"/>
      <point x="128.667" y="-8"/>
      <point x="108" y="13.3333"/>
      <point x="108" y="56" type="curve" smooth="yes"/>
      <point x="108" y="60"/>
      <point x="108.333" y="64.3333"/>
      <point x="109" y="69" type="curve" smooth="yes"/>
      <point x="146" y="498" type="line"/>
      <point x="194" y="498" type="line"/>
    </contour>
  </outline>
</glyph>
<glyph name="cent" format="2">
  <advance width="562"/>
  <unicode hex="00A2"/>
  <outline>
    <contour>
      <point x="484" y="23" type="line"/>
      <point x="480.667" y="19.6667"/>
      <point x="468" y="15.3333"/>
      <point x="446" y="10" type="curve" smooth="yes"/>
      <point x="415.333" y="3.33333"/>
      <point x="380" y="0"/>
      <point x="340" y="0" type="curve"/>
      <point x="340" y="-99" type="line"/>
      <point x="292" y="-99" type="line"/>
      <point x="292" y="2" type="line"/>
      <point x="224.667" y="9.33333"/>
      <point x="171.333" y="35.6667"/>
      <point x="132" y="81" type="curve" smooth="yes"/>
      <point x="92.6667" y="126.333"/>
      <point x="73" y="183.333"/>
      <point x="73" y="252" type="curve" smooth="yes"/>
      <point x="73" y="318.667"/>
      <point x="93" y="374.667"/>
      <point x="133" y="420" type="curve" smooth="yes"/>
      <point x="173" y="465.333"/>
      <point x="226" y="492.667"/>
      <point x="292" y="502" type="curve"/>
      <point x="292" y="604" type="line"/>
      <point x="340" y="604" type="line"/>
      <point x="340" y="506" type="line"/>
      <point x="385.333" y="506"/>
      <point x="433.333" y="497.667"/>
      <point x="484" y="481" type="curve"/>
      <point x="484" y="334" type="line"/>
      <point x="436" y="334" type="line"/>
      <point x="422" y="421" type="line" smooth="yes"/>
      <point x="420" y="433"/>
      <point x="416" y="440"/>
      <point x="410" y="442" type="curve" smooth="yes"/>
      <point x="394" y="451.333"/>
      <point x="370.667" y="456.333"/>
      <point x="340" y="457" type="curve"/>
      <point x="340" y="48" type="line"/>
      <point x="366" y="48.6667"/>
      <point x="389.333" y="53.3333"/>
      <point x="410" y="62" type="curve" smooth="yes"/>
      <point x="414.667" y="64"/>
      <point x="418.667" y="69.3333"/>
      <point x="422" y="78" type="curve"/>
      <point x="435" y="174" type="line"/>
      <point x="484" y="174" type="line"/>
    </contour>
    <contour>
      <point x="292" y="51" type="curve"/>
      <point x="292" y="454" type="line"/>
      <point x="260.667" y="446.667"/>
      <point x="233.667" y="427.667"/>
      <point x="211" y="397" type="curve" smooth="yes"/>
      <point x="183" y="359"/>
      <point x="169" y="311.667"/>
      <point x="169" y="255" type="curve" smooth="yes"/>
      <point x="169" y="198.333"/>
      <point x="181.333" y="151.333"/>
      <point x="206" y="114" type="curve" smooth="yes"/>
      <point x="228" y="80.6667"/>
      <point x="256.667" y="59.6667"/>
    </contour>
  </outline>
</glyph>
<glyph name="sterling" format="2">
  <advance width="562"/>
  <unicode hex="00A3"/>
  <outline>
    <contour>
      <point x="516" y="576" type="curve" smooth="yes"/>
      <point x="516" y="560"/>
      <point x="509.833" y="546.5"/>
      <point x="497.5" y="535.5" type="curve" smooth="yes"/>
      <point x="485.167" y="524.5"/>
      <point x="470.667" y="519"/>
      <point x="454" y="519" type="curve" smooth="yes"/>
      <point x="445.333" y="519"/>
      <point x="433.333" y="520.667"/>
      <point x="418" y="524" type="curve"/>
      <point x="418" y="624" type="line"/>
      <point x="400.667" y="629.333"/>
      <point x="385.667" y="632"/>
      <point x="373" y="632" type="curve" smooth="yes"/>
      <point x="283.667" y="632"/>
      <point x="239" y="566"/>
      <point x="239" y="434" type="curve" smooth="yes"/>
      <point x="239" y="406.667"/>
      <point x="239.667" y="380"/>
      <point x="241" y="354" type="curve"/>
      <point x="427" y="354" type="line"/>
      <point x="427" y="304" type="line"/>
      <point x="241" y="304" type="line"/>
      <point x="243" y="199.333"/>
      <point x="207.667" y="123.333"/>
      <point x="135" y="76" type="curve"/>
      <point x="177.667" y="80"/>
      <point x="205.333" y="82"/>
      <point x="218" y="82" type="curve" smooth="yes"/>
      <point x="514" y="82" type="line"/>
      <point x="514" y="0" type="line"/>
      <point x="39" y="0" type="line"/>
      <point x="39" y="61" type="line"/>
      <point x="113.667" y="80.3333"/>
      <point x="150" y="145.333"/>
      <point x="148" y="256" type="curve"/>
      <point x="149.333" y="258"/>
      <point x="149" y="274"/>
      <point x="147" y="304" type="curve"/>
      <point x="77" y="304" type="line"/>
      <point x="77" y="354" type="line"/>
      <point x="146" y="354" type="line"/>
      <point x="145.333" y="388"/>
      <point x="145" y="414.333"/>
      <point x="145" y="433" type="curve" smooth="yes"/>
      <point x="145" y="530.333"/>
      <point x="174" y="600.667"/>
      <point x="232" y="644" type="curve" smooth="yes"/>
      <point x="266" y="669.333"/>
      <point x="308" y="682"/>
      <point x="358" y="682" type="curve" smooth="yes"/>
      <point x="396" y="682"/>
      <point x="430" y="674"/>
      <point x="460" y="658" type="curve" smooth="yes"/>
      <point x="497.333" y="638"/>
      <point x="516" y="610.667"/>
    </contour>
  </outline>
</glyph>
<glyph name="currency" format="2">
  <advance width="775"/>
  <unicode hex="00A4"/>
  <outline>
    <contour>
      <point x="723" y="263" type="line"/>
      <point x="677" y="217" type="line"/>
      <point x="547" y="347" type="line"/>
      <point x="500.333" y="311"/>
      <point x="447.667" y="293"/>
      <point x="389" y="293" type="curve" smooth="yes"/>
      <point x="331" y="293"/>
      <point x="277.667" y="311.333"/>
      <point x="229" y="348" type="curve"/>
      <point x="100" y="217" type="line"/>
      <point x="54" y="263" type="line"/>
      <point x="184" y="393" type="line"/>
      <point x="146.667" y="439.667"/>
      <point x="128" y="493.333"/>
      <point x="128" y="554" type="curve" smooth="yes"/>
      <point x="128" y="612.667"/>
      <point x="146" y="665.333"/>
      <point x="182" y="712" type="curve"/>
      <point x="54" y="841" type="line"/>
      <point x="100" y="886" type="line"/>
      <point x="227" y="758" type="line"/>
      <point x="273.667" y="795.333"/>
      <point x="327.667" y="814"/>
      <point x="389" y="814" type="curve" smooth="yes"/>
      <point x="449.667" y="814"/>
      <point x="503" y="795.667"/>
      <point x="549" y="759" type="curve"/>
      <point x="677" y="886" type="line"/>
      <point x="723" y="841" type="line"/>
      <point x="595" y="713" type="line"/>
      <point x="631" y="666.333"/>
      <point x="649" y="613.333"/>
      <point x="649" y="554" type="curve" smooth="yes"/>
      <point x="649" y="492.667"/>
      <point x="630.333" y="438.667"/>
      <point x="593" y="392" type="curve"/>
    </contour>
    <contour>
      <point x="585" y="554" type="curve" smooth="yes"/>
      <point x="585" y="608"/>
      <point x="565.833" y="654.167"/>
      <point x="527.5" y="692.5" type="curve" smooth="yes"/>
      <point x="489.167" y="730.833"/>
      <point x="443" y="750"/>
      <point x="389" y="750" type="curve" smooth="yes"/>
      <point x="334.333" y="750"/>
      <point x="287.833" y="730.833"/>
      <point x="249.5" y="692.5" type="curve" smooth="yes"/>
      <point x="211.167" y="654.167"/>
      <point x="192" y="608"/>
      <point x="192" y="554" type="curve" smooth="yes"/>
      <point x="192" y="499.333"/>
      <point x="211.167" y="452.833"/>
      <point x="249.5" y="414.5" type="curve" smooth="yes"/>
      <point x="287.833" y="376.167"/>
      <point x="334.333" y="357"/>
      <point x="389" y="357" type="curve" smooth="yes"/>
      <point x="443" y="357"/>
      <point x="489.167" y="376.167"/>
      <point x="527.5" y="414.5" type="curve" smooth="yes"/>
      <point x="565.833" y="452.833"/>
      <point x="585" y="499.333"/>
    </contour>
  </outline>
</glyph>
<glyph name="yen" format="2">
  <advance width="596"/>
  <unicode hex="00A5"/>
  <outline>
    <contour>
      <point x="586" y="629" type="line"/>
      <point x="530" y="616" type="line"/>
      <point x="423" y="427" type="line"/>
      <point x="564" y="427" type="line"/>
      <point x="564" y="383" type="line"/>
      <point x="398" y="383" type="line"/>
      <point x="340" y="281" type="line"/>
      <point x="564" y="281" type="line"/>
      <point x="564" y="237" type="line"/>
      <point x="341" y="237" type="line"/>
      <point x="341" y="69" type="line" smooth="yes"/>
      <point x="341" y="55.6667"/>
      <point x="349.667" y="48.3333"/>
      <point x="367" y="47" type="curve" smooth="yes"/>
      <point x="425" y="42" type="line"/>
      <point x="425" y="0" type="line"/>
      <point x="164" y="0" type="line"/>
      <point x="164" y="42" type="line"/>
      <point x="223" y="47" type="line" smooth="yes"/>
      <point x="239.667" y="48.3333"/>
      <point x="248" y="55.6667"/>
      <point x="248" y="69" type="curve" smooth="yes"/>
      <point x="248" y="237" type="line"/>
      <point x="32" y="237" type="line"/>
      <point x="32" y="281" type="line"/>
      <point x="246" y="281" type="line"/>
      <point x="192" y="383" type="line"/>
      <point x="32" y="383" type="line"/>
      <point x="32" y="427" type="line"/>
      <point x="168" y="427" type="line"/>
      <point x="69" y="617" type="line"/>
      <point x="10" y="629" type="line"/>
      <point x="10" y="671" type="line"/>
      <point x="234" y="671" type="line"/>
      <point x="234" y="629" type="line"/>
      <point x="191" y="622" type="line" smooth="yes"/>
      <point x="177" y="620"/>
      <point x="173" y="612.667"/>
      <point x="179" y="600" type="curve" smooth="yes"/>
      <point x="311" y="342" type="line"/>
      <point x="456" y="599" type="line" smooth="yes"/>
      <point x="462.667" y="611"/>
      <point x="458.333" y="618.333"/>
      <point x="443" y="621" type="curve" smooth="yes"/>
      <point x="395" y="629" type="line"/>
      <point x="395" y="671" type="line"/>
      <point x="586" y="671" type="line"/>
    </contour>
  </outline>
</glyph>
<glyph name="brokenbar" format="2">
  <advance width="500"/>
  <unicode hex="00A6"/>
  <outline>
    <contour>
      <point x="284" y="329" type="line"/>
      <point x="216" y="329" type="line"/>
      <point x="216" y="700" type="line"/>
      <point x="284" y="700" type="line"/>
    </contour>
    <contour>
      <point x="284" y="-171" type="line"/>
      <point x="216" y="-171" type="line"/>
      <point x="216" y="200" type="line"/>
      <point x="284" y="200" type="line"/>
    </contour>
  </outline>
</glyph>
<glyph name="section" format="2">
  <advance width="500"/>
  <unicode hex="00A7"/>
  <outline>
    <contour>
      <point x="441" y="306" type="curve" smooth="yes"/>
      <point x="441" y="269.333"/>
      <point x="428.333" y="235.667"/>
      <point x="403" y="205" type="curve" smooth="yes"/>
      <point x="380.333" y="177"/>
      <point x="352.667" y="156.667"/>
      <point x="320" y="144" type="curve"/>
      <point x="388.667" y="112"/>
      <point x="423" y="68"/>
      <point x="423" y="12" type="curve" smooth="yes"/>
      <point x="423" y="-32.6667"/>
      <point x="405.5" y="-69.3333"/>
      <point x="370.5" y="-98" type="curve" smooth="yes"/>
      <point x="335.5" y="-126.667"/>
      <point x="291" y="-141"/>
      <point x="237" y="-141" type="curve" smooth="yes"/>
      <point x="183" y="-141"/>
      <point x="131.667" y="-130.333"/>
      <point x="83" y="-109" type="curve"/>
      <point x="83" y="22" type="line"/>
      <point x="133" y="22" type="line"/>
      <point x="138" y="-9" type="line"/>
      <point x="147" y="-68" type="line"/>
      <point x="155.667" y="-74"/>
      <point x="167.333" y="-79.3333"/>
      <point x="182" y="-84" type="curve" smooth="yes"/>
      <point x="202.667" y="-90.6667"/>
      <point x="222.333" y="-94"/>
      <point x="241" y="-94" type="curve" smooth="yes"/>
      <point x="271" y="-94"/>
      <point x="295.667" y="-86.6667"/>
      <point x="315" y="-72" type="curve" smooth="yes"/>
      <point x="334.333" y="-57.3333"/>
      <point x="344" y="-37.6667"/>
      <point x="344" y="-13" type="curve" smooth="yes"/>
      <point x="344" y="28.3333"/>
      <point x="288.667" y="73.6667"/>
      <point x="178" y="123" type="curve" smooth="yes"/>
      <point x="98.6667" y="159"/>
      <point x="59" y="213.333"/>
      <point x="59" y="286" type="curve" smooth="yes"/>
      <point x="59" y="326.667"/>
      <point x="70.6667" y="360.333"/>
      <point x="94" y="387" type="curve" smooth="yes"/>
      <point x="111.333" y="407"/>
      <point x="139" y="425.667"/>
      <point x="177" y="443" type="curve"/>
      <point x="110.333" y="476.333"/>
      <point x="77" y="519"/>
      <point x="77" y="571" type="curve" smooth="yes"/>
      <point x="77" y="669"/>
      <point x="141.667" y="718"/>
      <point x="271" y="718" type="curve" smooth="yes"/>
      <point x="328.333" y="718"/>
      <point x="374.667" y="710"/>
      <point x="410" y="694" type="curve"/>
      <point x="410" y="564" type="line"/>
      <point x="363" y="564" type="line"/>
      <point x="353" y="645" type="line"/>
      <point x="317.667" y="664.333"/>
      <point x="286.333" y="674"/>
      <point x="259" y="674" type="curve" smooth="yes"/>
      <point x="229.667" y="674"/>
      <point x="205.667" y="666"/>
      <point x="187" y="650" type="curve" smooth="yes"/>
      <point x="168.333" y="634"/>
      <point x="159" y="614"/>
      <point x="159" y="590" type="curve" smooth="yes"/>
      <point x="159" y="569.333"/>
      <point x="173" y="549"/>
      <point x="201" y="529" type="curve" smooth="yes"/>
      <point x="219" y="515.667"/>
      <point x="253.333" y="497"/>
      <point x="304" y="473" type="curve" smooth="yes"/>
      <point x="395.333" y="429.667"/>
      <point x="441" y="374"/>
    </contour>
    <contour>
      <point x="363" y="281" type="curve" smooth="yes"/>
      <point x="363" y="337"/>
      <point x="317" y="384"/>
      <point x="225" y="422" type="curve"/>
      <point x="196.333" y="412"/>
      <point x="173.667" y="396"/>
      <point x="157" y="374" type="curve" smooth="yes"/>
      <point x="142.333" y="354"/>
      <point x="135" y="332.333"/>
      <point x="135" y="309" type="curve" smooth="yes"/>
      <point x="135" y="279.667"/>
      <point x="146.667" y="253.667"/>
      <point x="170" y="231" type="curve" smooth="yes"/>
      <point x="191.333" y="210.333"/>
      <point x="227.667" y="188"/>
      <point x="279" y="164" type="curve"/>
      <point x="297.667" y="173.333"/>
      <point x="315.333" y="188"/>
      <point x="332" y="208" type="curve" smooth="yes"/>
      <point x="352.667" y="233.333"/>
      <point x="363" y="257.667"/>
    </contour>
  </outline>
</glyph>
<glyph name="dieresis" format="2">
  <advance width="315"/>
  <unicode hex="00A8"/>
  <outline>
    <contour>
      <point x="316" y="641" type="curve" smooth="yes"/>
      <point x="316" y="625.667"/>
      <point x="310.833" y="612.5"/>
      <point x="300.5" y="601.5" type="curve" smooth="yes"/>
      <point x="290.167" y="590.5"/>
      <point x="277.333" y="585"/>
      <point x="262" y="585" type="curve" smooth="yes"/>
      <point x="247.333" y="585"/>
      <point x="234.5" y="590.667"/>
      <point x="223.5" y="602" type="curve" smooth="yes"/>
      <point x="212.5" y="613.333"/>
      <point x="207" y="626.333"/>
      <point x="207" y="641" type="curve" smooth="yes"/>
      <point x="207" y="655"/>
      <point x="212.667" y="667.667"/>
      <point x="224" y="679" type="curve" smooth="yes"/>
      <point x="235.333" y="690.333"/>
      <point x="248" y="696"/>
      <point x="262" y="696" type="curve" smooth="yes"/>
      <point x="276.667" y="696"/>
      <point x="289.333" y="690.5"/>
      <point x="300" y="679.5" type="curve" smooth="yes"/>
      <point x="310.667" y="668.5"/>
      <point x="316" y="655.667"/>
    </contour>
    <contour>
      <point x="109" y="641" type="curve" smooth="yes"/>
      <point x="109" y="626.333"/>
      <point x="103.667" y="613.333"/>
      <point x="93" y="602" type="curve" smooth="yes"/>
      <point x="82.3333" y="590.667"/>
      <point x="69.3333" y="585"/>
      <point x="54" y="585" type="curve" smooth="yes"/>
      <point x="40" y="585"/>
      <point x="27.5" y="590.5"/>
      <point x="16.5" y="601.5" type="curve" smooth="yes"/>
      <point x="5.5" y="612.5"/>
      <point x="0" y="625.333"/>
      <point x="0" y="640" type="curve" smooth="yes"/>
      <point x="0" y="654.667"/>
      <point x="5.5" y="667.667"/>
      <point x="16.5" y="679" type="curve" smooth="yes"/>
      <point x="27.5" y="690.333"/>
      <point x="40" y="696"/>
      <point x="54" y="696" type="curve" smooth="yes"/>
      <point x="68.6667" y="696"/>
      <point x="81.5" y="690.5"/>
      <point x="92.5" y="679.5" type="curve" smooth="yes"/>
      <point x="103.5" y="668.5"/>
      <point x="109" y="655.667"/>
    </contour>
  </outline>
</glyph>
<glyph name="copyright" format="2">
  <advance width="894"/>
  <unicode hex="00A9"/>
  <outline>
    <contour>
      <point x="833" y="340" type="curve" smooth="yes"/>
      <point x="833" y="233.333"/>
      <point x="795.5" y="142.167"/>
      <point x="720.5" y="66.5" type="curve" smooth="yes"/>
      <point x="645.5" y="-9.16667"/>
      <point x="554.667" y="-47"/>
      <point x="448" y="-47" type="curve" smooth="yes"/>
      <point x="342.667" y="-47"/>
      <point x="252.333" y="-9.16667"/>
      <point x="177" y="66.5" type="curve" smooth="yes"/>
      <point x="101.667" y="142.167"/>
      <point x="64" y="233"/>
      <point x="64" y="339" type="curve" smooth="yes"/>
      <point x="64" y="445.667"/>
      <point x="101.667" y="536.833"/>
      <point x="177" y="612.5" type="curve" smooth="yes"/>
      <point x="252.333" y="688.167"/>
      <point x="343" y="726"/>
      <point x="449" y="726" type="curve" smooth="yes"/>
      <point x="555.667" y="726"/>
      <point x="646.333" y="688"/>
      <point x="721" y="612" type="curve" smooth="yes"/>
      <point x="795.667" y="536"/>
      <point x="833" y="445.333"/>
    </contour>
    <contour>
      <point x="790" y="339" type="curve" smooth="yes"/>
      <point x="790" y="433.667"/>
      <point x="756.667" y="514.833"/>
      <point x="690" y="582.5" type="curve" smooth="yes"/>
      <point x="623.333" y="650.167"/>
      <point x="543" y="684"/>
      <point x="449" y="684" type="curve" smooth="yes"/>
      <point x="354.333" y="684"/>
      <point x="273.667" y="650.167"/>
      <point x="207" y="582.5" type="curve" smooth="yes"/>
      <point x="140.333" y="514.833"/>
      <point x="107" y="433.667"/>
      <point x="107" y="339" type="curve" smooth="yes"/>
      <point x="107" y="244.333"/>
      <point x="140.333" y="163.333"/>
      <point x="207" y="96" type="curve" smooth="yes"/>
      <point x="273.667" y="28.6667"/>
      <point x="354" y="-5"/>
      <point x="448" y="-5" type="curve" smooth="yes"/>
      <point x="542" y="-5"/>
      <point x="622.5" y="28.6667"/>
      <point x="689.5" y="96" type="curve" smooth="yes"/>
      <point x="756.5" y="163.333"/>
      <point x="790" y="244.333"/>
    </contour>
    <contour>
      <point x="606" y="127" type="line"/>
      <point x="558" y="111"/>
      <point x="510.667" y="103"/>
      <point x="464" y="103" type="curve" smooth="yes"/>
      <point x="388.667" y="103"/>
      <point x="328.333" y="126.667"/>
      <point x="283" y="174" type="curve" smooth="yes"/>
      <point x="241" y="218"/>
      <point x="219.667" y="273"/>
      <point x="219" y="339" type="curve" smooth="yes"/>
      <point x="219" y="408.333"/>
      <point x="241.5" y="464.833"/>
      <point x="286.5" y="508.5" type="curve" smooth="yes"/>
      <point x="331.5" y="552.167"/>
      <point x="391" y="574"/>
      <point x="465" y="574" type="curve" smooth="yes"/>
      <point x="501.667" y="574"/>
      <point x="548.667" y="565.667"/>
      <point x="606" y="549" type="curve"/>
      <point x="606" y="430" type="line"/>
      <point x="561" y="430" type="line"/>
      <point x="546" y="506" type="line"/>
      <point x="525.333" y="520"/>
      <point x="501.667" y="527"/>
      <point x="475" y="527" type="curve" smooth="yes"/>
      <point x="430.333" y="527"/>
      <point x="392.333" y="510.667"/>
      <point x="361" y="478" type="curve" smooth="yes"/>
      <point x="327.667" y="443.333"/>
      <point x="311" y="397.667"/>
      <point x="311" y="341" type="curve" smooth="yes"/>
      <point x="311" y="283"/>
      <point x="327" y="235.667"/>
      <point x="359" y="199" type="curve" smooth="yes"/>
      <point x="388.333" y="165.667"/>
      <point x="423.667" y="149"/>
      <point x="465" y="149" type="curve" smooth="yes"/>
      <point x="493" y="149"/>
      <point x="520.667" y="155.333"/>
      <point x="548" y="168" type="curve"/>
      <point x="562" y="253" type="line"/>
      <point x="606" y="253" type="line"/>
    </contour>
  </outline>
</glyph>
<glyph name="ordfeminine" format="2">
  <advance width="347"/>
  <unicode hex="00AA"/>
  <outline>
    <contour>
      <point x="335" y="383" type="line"/>
      <point x="235" y="383" type="line"/>
      <point x="226" y="418" type="line"/>
      <point x="184.667" y="392"/>
      <point x="147.667" y="379"/>
      <point x="115" y="379" type="curve" smooth="yes"/>
      <point x="89.6667" y="379"/>
      <point x="69.3333" y="385.667"/>
      <point x="54" y="399" type="curve" smooth="yes"/>
      <point x="36.6667" y="413"/>
      <point x="28" y="432.333"/>
      <point x="28" y="457" type="curve" smooth="yes"/>
      <point x="28" y="483"/>
      <point x="40.6667" y="503.333"/>
      <point x="66" y="518" type="curve" smooth="yes"/>
      <point x="94" y="534"/>
      <point x="147.333" y="549.667"/>
      <point x="226" y="565" type="curve"/>
      <point x="226" y="592" type="line" smooth="yes"/>
      <point x="226" y="631.333"/>
      <point x="205.667" y="651"/>
      <point x="165" y="651" type="curve" smooth="yes"/>
      <point x="151" y="651"/>
      <point x="135" y="648.333"/>
      <point x="117" y="643" type="curve"/>
      <point x="117" y="591" type="line"/>
      <point x="68" y="591" type="line" smooth="yes"/>
      <point x="52" y="591"/>
      <point x="44" y="596.667"/>
      <point x="44" y="608" type="curve" smooth="yes"/>
      <point x="44" y="630.667"/>
      <point x="59" y="648.667"/>
      <point x="89" y="662" type="curve" smooth="yes"/>
      <point x="115.667" y="673.333"/>
      <point x="147.333" y="679"/>
      <point x="184" y="679" type="curve" smooth="yes"/>
      <point x="254" y="679"/>
      <point x="289" y="649"/>
      <point x="289" y="589" type="curve" smooth="yes"/>
      <point x="289" y="421" type="line" smooth="yes"/>
      <point x="289" y="413.667"/>
      <point x="294.667" y="409.333"/>
      <point x="306" y="408" type="curve" smooth="yes"/>
      <point x="335" y="406" type="line"/>
    </contour>
    <contour>
      <point x="332" y="304" type="line"/>
      <point x="31" y="304" type="line"/>
      <point x="31" y="334" type="line"/>
      <point x="332" y="334" type="line"/>
    </contour>
    <contour>
      <point x="226" y="439" type="curve"/>
      <point x="226" y="542" type="line"/>
      <point x="170.667" y="529.333"/>
      <point x="133.667" y="516"/>
      <point x="115" y="502" type="curve" smooth="yes"/>
      <point x="101" y="492"/>
      <point x="94" y="478.333"/>
      <point x="94" y="461" type="curve" smooth="yes"/>
      <point x="94" y="447.667"/>
      <point x="98.6667" y="436.667"/>
      <point x="108" y="428" type="curve" smooth="yes"/>
      <point x="117.333" y="419.333"/>
      <point x="129.667" y="415"/>
      <point x="145" y="415" type="curve" smooth="yes"/>
      <point x="167" y="415"/>
      <point x="194" y="423"/>
    </contour>
  </outline>
</glyph>
<glyph name="guillemotleft" format="2">
  <advance width="565"/>
  <unicode hex="00AB"/>
  <outline>
    <contour>
      <point x="514" y="82" type="line"/>
      <point x="301" y="256" type="line"/>
      <point x="301" y="359" type="line"/>
      <point x="514" y="533" type="line"/>
      <point x="514" y="442" type="line"/>
      <point x="367" y="308" type="line"/>
      <point x="514" y="170" type="line"/>
    </contour>
    <contour>
      <point x="262" y="82" type="line"/>
      <point x="49" y="256" type="line"/>
      <point x="49" y="359" type="line"/>
      <point x="262" y="533" type="line"/>
      <point x="262" y="442" type="line"/>
      <point x="114" y="308" type="line"/>
      <point x="262" y="170" type="line"/>
    </contour>
  </outline>
</glyph>
<glyph name="logicalnot" format="2">
  <advance width="500"/>
  <unicode hex="00AC"/>
  <outline>
    <contour>
      <point x="463" y="242" type="line"/>
      <point x="388" y="242" type="line"/>
      <point x="388" y="460" type="line"/>
      <point x="36" y="460" type="line"/>
      <point x="36" y="538" type="line"/>
      <point x="463" y="538" type="line"/>
    </contour>
  </outline>
</glyph>
<glyph name="registered" format="2">
  <advance width="894"/>
  <unicode hex="00AE"/>
  <outline>
    <contour>
      <point x="833" y="339" type="curve" smooth="yes"/>
      <point x="833" y="232.333"/>
      <point x="795.333" y="141.333"/>
      <point x="720" y="66" type="curve" smooth="yes"/>
      <point x="644.667" y="-9.33333"/>
      <point x="553.667" y="-47"/>
      <point x="447" y="-47" type="curve" smooth="yes"/>
      <point x="341.667" y="-47"/>
      <point x="251.5" y="-9.33333"/>
      <point x="176.5" y="66" type="curve" smooth="yes"/>
      <point x="101.5" y="141.333"/>
      <point x="64" y="232.333"/>
      <point x="64" y="339" type="curve" smooth="yes"/>
      <point x="64" y="445.667"/>
      <point x="101.667" y="536.833"/>
      <point x="177" y="612.5" type="curve" smooth="yes"/>
      <point x="252.333" y="688.167"/>
      <point x="343" y="726"/>
      <point x="449" y="726" type="curve" smooth="yes"/>
      <point x="554.333" y="726"/>
      <point x="644.667" y="688.167"/>
      <point x="720" y="612.5" type="curve" smooth="yes"/>
      <point x="795.333" y="536.833"/>
      <point x="833" y="445.667"/>
    </contour>
    <contour>
      <point x="790" y="339" type="curve" smooth="yes"/>
      <point x="790" y="434.333"/>
      <point x="756.667" y="515.667"/>
      <point x="690" y="583" type="curve" smooth="yes"/>
      <point x="623.333" y="650.333"/>
      <point x="543" y="684"/>
      <point x="449" y="684" type="curve" smooth="yes"/>
      <point x="355" y="684"/>
      <point x="274.5" y="650.333"/>
      <point x="207.5" y="583" type="curve" smooth="yes"/>
      <point x="140.5" y="515.667"/>
      <point x="107" y="433.667"/>
      <point x="107" y="337" type="curve" smooth="yes"/>
      <point x="107" y="243"/>
      <point x="140.333" y="162.5"/>
      <point x="207" y="95.5" type="curve" smooth="yes"/>
      <point x="273.667" y="28.5"/>
      <point x="354" y="-5"/>
      <point x="448" y="-5" type="curve" smooth="yes"/>
      <point x="542.667" y="-5"/>
      <point x="623.333" y="28.6667"/>
      <point x="690" y="96" type="curve" smooth="yes"/>
      <point x="756.667" y="163.333"/>
      <point x="790" y="244.333"/>
    </contour>
    <contour>
      <point x="697" y="131" type="line"/>
      <point x="677.667" y="127.667"/>
      <point x="658.333" y="126"/>
      <point x="639" y="126" type="curve" smooth="yes"/>
      <point x="601" y="126"/>
      <point x="574.5" y="133.667"/>
      <point x="559.5" y="149" type="curve" smooth="yes"/>
      <point x="544.5" y="164.333"/>
      <point x="531.667" y="189.333"/>
      <point x="521" y="224" type="curve" smooth="yes"/>
      <point x="509" y="260"/>
      <point x="498" y="284"/>
      <point x="488" y="296" type="curve" smooth="yes"/>
      <point x="471.333" y="316"/>
      <point x="443" y="326"/>
      <point x="403" y="326" type="curve" smooth="yes"/>
      <point x="397" y="326"/>
      <point x="390" y="325.833"/>
      <point x="382" y="325.5" type="curve" smooth="yes"/>
      <point x="370" y="325"/>
      <point x="370" y="325"/>
      <point x="370" y="325" type="curve"/>
      <point x="370" y="176" type="line" smooth="yes"/>
      <point x="370" y="167.333"/>
      <point x="375" y="162.667"/>
      <point x="385" y="162" type="curve" smooth="yes"/>
      <point x="423" y="159" type="line"/>
      <point x="423" y="131" type="line"/>
      <point x="246" y="131" type="line"/>
      <point x="246" y="159" type="line"/>
      <point x="284" y="162" type="line" smooth="yes"/>
      <point x="294" y="162.667"/>
      <point x="299" y="167.333"/>
      <point x="299" y="176" type="curve" smooth="yes"/>
      <point x="299" y="524" type="line" smooth="yes"/>
      <point x="299" y="532.667"/>
      <point x="294" y="537.333"/>
      <point x="284" y="538" type="curve" smooth="yes"/>
      <point x="246" y="541" type="line"/>
      <point x="246" y="569" type="line"/>
      <point x="432" y="569" type="line" smooth="yes"/>
      <point x="548.667" y="569"/>
      <point x="607" y="530.333"/>
      <point x="607" y="453" type="curve" smooth="yes"/>
      <point x="607" y="397"/>
      <point x="568" y="360.667"/>
      <point x="490" y="344" type="curve"/>
      <point x="518.667" y="337.333"/>
      <point x="539.333" y="327.667"/>
      <point x="552" y="315" type="curve" smooth="yes"/>
      <point x="567.333" y="299"/>
      <point x="579" y="275"/>
      <point x="587" y="243" type="curve" smooth="yes"/>
      <point x="595" y="211"/>
      <point x="605" y="188.833"/>
      <point x="617" y="176.5" type="curve" smooth="yes"/>
      <point x="629" y="164.167"/>
      <point x="655.667" y="158"/>
      <point x="697" y="158" type="curve"/>
    </contour>
    <contour>
      <point x="529" y="450" type="curve" smooth="yes"/>
      <point x="529" y="508.667"/>
      <point x="487.333" y="538"/>
      <point x="404" y="538" type="curve" smooth="yes"/>
      <point x="370" y="538" type="line"/>
      <point x="370" y="358" type="line"/>
      <point x="390" y="357.333"/>
      <point x="402.333" y="357"/>
      <point x="407" y="357" type="curve" smooth="yes"/>
      <point x="488.333" y="357"/>
      <point x="529" y="388"/>
    </contour>
  </outline>
</glyph>
<glyph name="degree" format="2">
  <advance width="330"/>
  <unicode hex="00B0"/>
  <outline>
    <contour>
      <point x="304" y="572" type="curve" smooth="yes"/>
      <point x="304" y="533.333"/>
      <point x="290.5" y="500.5"/>
      <point x="263.5" y="473.5" type="curve" smooth="yes"/>
      <point x="236.5" y="446.5"/>
      <point x="203.667" y="433"/>
      <point x="165" y="433" type="curve" smooth="yes"/>
      <point x="126.333" y="433"/>
      <point x="93.5" y="446.5"/>
      <point x="66.5" y="473.5" type="curve" smooth="yes"/>
      <point x="39.5" y="500.5"/>
      <point x="26" y="533.333"/>
      <point x="26" y="572" type="curve" smooth="yes"/>
      <point x="26" y="610.667"/>
      <point x="39.5" y="643.333"/>
      <point x="66.5" y="670" type="curve" smooth="yes"/>
      <point x="93.5" y="696.667"/>
      <point x="126.333" y="710"/>
      <point x="165" y="710" type="curve" smooth="yes"/>
      <point x="203.667" y="710"/>
      <point x="236.5" y="696.667"/>
      <point x="263.5" y="670" type="curve" smooth="yes"/>
      <point x="290.5" y="643.333"/>
      <point x="304" y="610.667"/>
    </contour>
    <contour>
      <point x="264" y="572" type="curve" smooth="yes"/>
      <point x="264" y="599.333"/>
      <point x="254.333" y="622.5"/>
      <point x="235" y="641.5" type="curve" smooth="yes"/>
      <point x="215.667" y="660.5"/>
      <point x="192.333" y="670"/>
      <point x="165" y="670" type="curve" smooth="yes"/>
      <point x="137.667" y="670"/>
      <point x="114.333" y="660.333"/>
      <point x="95" y="641" type="curve" smooth="yes"/>
      <point x="75.6667" y="621.667"/>
      <point x="66" y="598.667"/>
      <point x="66" y="572" type="curve" smooth="yes"/>
      <point x="66" y="544.667"/>
      <point x="75.8333" y="521.333"/>
      <point x="95.5" y="502" type="curve" smooth="yes"/>
      <point x="115.167" y="482.667"/>
      <point x="138.333" y="473"/>
      <point x="165" y="473" type="curve" smooth="yes"/>
      <point x="192.333" y="473"/>
      <point x="215.667" y="482.667"/>
      <point x="235" y="502" type="curve" smooth="yes"/>
      <point x="254.333" y="521.333"/>
      <point x="264" y="544.667"/>
    </contour>
  </outline>
</glyph>
<glyph name="plusminus" format="2">
  <advance width="833"/>
  <unicode hex="00B1"/>
  <outline>
    <contour>
      <point x="709" y="351" type="line"/>
      <point x="446" y="351" type="line"/>
      <point x="446" y="183" type="line"/>
      <point x="388" y="183" type="line"/>
      <point x="388" y="351" type="line"/>
      <point x="124" y="351" type="line"/>
      <point x="124" y="408" type="line"/>
      <point x="388" y="408" type="line"/>
      <point x="388" y="576" type="line"/>
      <point x="446" y="576" type="line"/>
      <point x="446" y="408" type="line"/>
      <point x="709" y="408" type="line"/>
    </contour>
    <contour>
      <point x="709" y="20" type="line"/>
      <point x="124" y="20" type="line"/>
      <point x="124" y="77" type="line"/>
      <point x="709" y="77" type="line"/>
    </contour>
  </outline>
</glyph>
<glyph name="twosuperior" format="2">
  <advance width="365"/>
  <unicode hex="00B2"/>
  <outline>
    <contour>
      <point x="335" y="295" type="line"/>
      <point x="31" y="295" type="line"/>
      <point x="31" y="335" type="line"/>
      <point x="114.333" y="398.333"/>
      <point x="167.333" y="442"/>
      <point x="190" y="466" type="curve" smooth="yes"/>
      <point x="230.667" y="507.333"/>
      <point x="251" y="546.667"/>
      <point x="251" y="584" type="curve" smooth="yes"/>
      <point x="251" y="642.667"/>
      <point x="222.667" y="672"/>
      <point x="166" y="672" type="curve" smooth="yes"/>
      <point x="156" y="672"/>
      <point x="138.333" y="667.667"/>
      <point x="113" y="659" type="curve"/>
      <point x="113" y="593" type="line"/>
      <point x="105" y="586.333"/>
      <point x="94.6667" y="583"/>
      <point x="82" y="583" type="curve" smooth="yes"/>
      <point x="55.3333" y="583"/>
      <point x="42" y="594.667"/>
      <point x="42" y="618" type="curve" smooth="yes"/>
      <point x="42" y="643.333"/>
      <point x="56" y="664.167"/>
      <point x="84" y="680.5" type="curve" smooth="yes"/>
      <point x="112" y="696.833"/>
      <point x="145.333" y="705"/>
      <point x="184" y="705" type="curve" smooth="yes"/>
      <point x="226" y="705"/>
      <point x="259.333" y="694.667"/>
      <point x="284" y="674" type="curve" smooth="yes"/>
      <point x="308.667" y="653.333"/>
      <point x="321" y="625.333"/>
      <point x="321" y="590" type="curve" smooth="yes"/>
      <point x="321" y="552"/>
      <point x="298.667" y="511.333"/>
      <point x="254" y="468" type="curve" smooth="yes"/>
      <point x="228" y="442.667"/>
      <point x="176.333" y="402"/>
      <point x="99" y="346" type="curve"/>
      <point x="291" y="346" type="line"/>
      <point x="303" y="397" type="line"/>
      <point x="335" y="397" type="line"/>
    </contour>
  </outline>
</glyph>
<glyph name="acute" format="2">
  <advance width="350"/>
  <unicode hex="00B4"/>
  <outline>
    <contour>
      <point x="350" y="688" type="curve" smooth="yes"/>
      <point x="350" y="671.333"/>
      <point x="342.333" y="658"/>
      <point x="327" y="648" type="curve" smooth="yes"/>
      <point x="175" y="551" type="line"/>
      <point x="118" y="551" type="line"/>
      <point x="251" y="706" type="line" smooth="yes"/>
      <point x="266.333" y="724"/>
      <point x="284" y="733"/>
      <point x="304" y="733" type="curve" smooth="yes"/>
      <point x="334.667" y="733"/>
      <point x="350" y="718"/>
    </contour>
  </outline>
</glyph>
<glyph name="paragraph" format="2">
  <advance width="622"/>
  <unicode hex="00B6"/>
  <outline>
    <contour>
      <point x="587" y="813" type="line"/>
      <point x="508" y="800" type="line"/>
      <point x="508" y="-101" type="line"/>
      <point x="446" y="-101" type="line"/>
      <point x="446" y="806" type="line"/>
      <point x="348" y="806" type="line"/>
      <point x="348" y="359" type="line"/>
      <point x="246.667" y="359"/>
      <point x="171.333" y="375.667"/>
      <point x="122" y="409" type="curve" smooth="yes"/>
      <point x="63.3333" y="448.333"/>
      <point x="34" y="514.333"/>
      <point x="34" y="607" type="curve" smooth="yes"/>
      <point x="34" y="698.333"/>
      <point x="60" y="764"/>
      <point x="112" y="804" type="curve" smooth="yes"/>
      <point x="160" y="840.667"/>
      <point x="234" y="859"/>
      <point x="334" y="859" type="curve" smooth="yes"/>
      <point x="587" y="859" type="line"/>
    </contour>
  </outline>
</glyph>
<glyph name="periodcentered" format="2">
  <advance width="383"/>
  <unicode hex="00B7"/>
  <outline>
    <contour>
      <point x="339" y="435" type="curve" smooth="yes"/>
      <point x="339" y="393.667"/>
      <point x="324.667" y="358.833"/>
      <point x="296" y="330.5" type="curve" smooth="yes"/>
      <point x="267.333" y="302.167"/>
      <point x="232.667" y="288"/>
      <point x="192" y="288" type="curve" smooth="yes"/>
      <point x="150.667" y="288"/>
      <point x="115.833" y="302.333"/>
      <point x="87.5" y="331" type="curve" smooth="yes"/>
      <point x="59.1667" y="359.667"/>
      <point x="45" y="394.333"/>
      <point x="45" y="435" type="curve" smooth="yes"/>
      <point x="45" y="476.333"/>
      <point x="59.1667" y="511.333"/>
      <point x="87.5" y="540" type="curve" smooth="yes"/>
      <point x="115.833" y="568.667"/>
      <point x="150.667" y="583"/>
      <point x="192" y="583" type="curve" smooth="yes"/>
      <point x="233.333" y="583"/>
      <point x="268.167" y="568.667"/>
      <point x="296.5" y="540" type="curve" smooth="yes"/>
      <point x="324.833" y="511.333"/>
      <point x="339" y="476.333"/>
    </contour>
  </outline>
</glyph>
<glyph name="cedilla" format="2">
  <advance width="230"/>
  <unicode hex="00B8"/>
  <outline>
    <contour>
      <point x="231" y="-130" type="curve" smooth="yes"/>
      <point x="231" y="-160"/>
      <point x="220.333" y="-183.333"/>
      <point x="199" y="-200" type="curve" smooth="yes"/>
      <point x="177.667" y="-216.667"/>
      <point x="149.667" y="-225"/>
      <point x="115" y="-225" type="curve" smooth="yes"/>
      <point x="93" y="-225"/>
      <point x="68.3333" y="-221.667"/>
      <point x="41" y="-215" type="curve"/>
      <point x="41" y="-176" type="line"/>
      <point x="65.6667" y="-181.333"/>
      <point x="85.6667" y="-184"/>
      <point x="101" y="-184" type="curve" smooth="yes"/>
      <point x="144.333" y="-184"/>
      <point x="166" y="-170.333"/>
      <point x="166" y="-143" type="curve" smooth="yes"/>
      <point x="166" y="-118.333"/>
      <point x="150.333" y="-106"/>
      <point x="119" y="-106" type="curve" smooth="yes"/>
      <point x="113" y="-106"/>
      <point x="105.333" y="-108"/>
      <point x="96" y="-112" type="curve"/>
      <point x="96" y="0" type="line"/>
      <point x="135" y="0" type="line"/>
      <point x="135" y="-63" type="line"/>
      <point x="153" y="-60.3333"/>
      <point x="160.667" y="-59"/>
      <point x="158" y="-59" type="curve"/>
      <point x="206.667" y="-59"/>
      <point x="231" y="-82.6667"/>
    </contour>
  </outline>
</glyph>
